<?xml version='1.0' encoding='utf-8'?>
<svg xmlns="http://www.w3.org/2000/svg" version="1.1" width="600px" height="976px" viewBox="0 0 600 976"> <g id="layer1"> <g style="fill:rgb(0,0,0); fill-opacity:1.0; stroke-linejoin: miter"> <path d="M204.41693,579.92615C204.41678,579.92615,204.41663,579.9262,204.41647,579.9262L204.41739,579.9262C204.41724,579.9262,204.41708,579.92615,204.41693,579.92615 Z M205.11847,577.2175C205.05406,577.2175,204.987,577.22577,204.91734,577.24243C204.63171,577.31323,203.76096,578.03326,203.526,578.3997C203.3244,578.7013,203.30106,578.7864,203.19241,579.5964C203.1252,580.07837,203.0945,580.47064,203.11926,580.47375C203.1502,580.47766,203.14708,580.50244,203.12381,580.53723C203.10133,580.56586,203.14302,580.634,203.22499,580.68207C203.36415,580.77515,203.36955,580.7821,203.27177,581.5558C203.1607,582.4347,203.20558,583.57227,203.34845,583.7852C203.47354,583.96344,203.72052,584.0608,204.28427,584.132C204.441,584.15186,204.62221,584.1696,204.83209,584.1866C205.19695,584.21606,205.51236,584.23114,205.78828,584.23114C206.24205,584.23114,206.58904,584.19025,206.87354,584.105L207.15454,584.02106L207.08989,584.3336C206.9941,584.7931,207.10146,584.9387,207.67232,585.0989L208.12173,585.22485L208.20543,585.7071C208.25381,585.971,208.30818,586.3866,208.32799,586.6281C208.35475,586.86414,208.41396,587.142,208.46413,587.2427C208.6679,587.62054,208.73863,587.9565,208.72101,588.3945C208.71225,588.56647,208.7174,588.7462,208.73053,588.86725L208.72845,588.86725C208.71143,588.8903,208.69485,588.903,208.6795,588.903C208.62128,588.903,208.10255,589.6017,208.04433,589.7658C207.9914,589.89813,207.77966,590.708,207.70027,591.0838C207.6738,591.2108,207.2821,591.8248,206.96452,592.2483C206.76338,592.51294,206.34521,593.5769,206.17055,594.2544C206.1282,594.4185,205.99586,594.69904,205.87411,594.879C205.74709,595.05896,205.62006,595.2813,205.57771,595.3766C205.4983,595.5724,205.37657,597.1233,205.41362,597.44617C205.4295,597.5626,205.46655,597.8644,205.4983,598.11316C205.55124,598.526,205.55124,598.58954,205.45067,598.84357C205.38715,598.9971,205.33951,599.2088,205.33951,599.3147C205.33951,599.5211,205.40833,599.447,204.23853,600.5639C203.70392,601.07733,203.60335,601.2361,203.66687,601.43726C203.70392,601.5537,204.04797,601.7125,204.2597,601.7125C204.4238,601.7125,204.94252,601.50604,205.83177,601.08264C206.32935,600.8444,206.5199,600.72797,206.56754,600.6274C206.60988,600.52686,206.60988,600.34686,206.56224,599.9022C206.47226,599.0289,206.56754,598.40424,206.89041,597.7691C207.02803,597.49384,207.04921,597.39856,207.03862,597.0704C207.03333,596.86395,207.01216,596.5781,206.98569,596.4352C206.92218,596.1229,206.98569,596.0065,207.56793,595.3554L207.97551,594.90546L208.40427,594.9531L208.8383,595.00604L208.9971,594.85254C209.08708,594.7678,209.32527,594.42377,209.52112,594.09033C209.91281,593.4446,210.06102,593.2434,210.15102,593.2434C210.18277,593.2434,210.26746,593.4498,210.34157,593.7039C210.42096,593.96326,210.61151,594.59314,210.77031,595.1119C210.92911,595.6306,211.05615,596.0911,211.05615,596.1335C211.05615,596.24994,211.36844,596.3611,211.7972,596.39813L212.1783,596.4352L212.44296,596.79517C212.78172,597.2609,213.05167,597.49915,213.61804,597.8114C214.37497,598.23486,215.60828,599.20355,215.60828,599.3782C215.60828,599.42584,215.69296,599.6376,215.79353,599.8546C216.01056,600.3045,216.02115,600.4792,215.86765,601.15674C215.73001,601.76544,215.72473,602.3159,215.84647,602.45355C215.95935,602.57996,216.19167,602.6563,216.43167,602.6563C216.47299,602.6563,216.51454,602.65405,216.55576,602.6494C216.7463,602.62823,216.82571,602.5859,216.94745,602.44293C217.23857,602.0936,217.3021,601.5749,217.20152,600.3522C217.14859,599.7223,217.01627,599.42584,216.58751,598.9865C216.39166,598.7854,216.2064,598.49426,215.9047,597.9014C215.6771,597.4568,215.41243,597.00684,215.31715,596.901C215.15836,596.7263,214.84076,596.5463,214.33261,596.3505C214.14735,596.2764,214.14206,596.2658,214.03091,595.7524C213.96739,595.46124,213.8086,594.67786,213.67627,594.00037C213.54395,593.3281,213.40102,592.67175,213.35338,592.54474C213.21046,592.13184,213.06755,591.30084,213.04109,590.71326C213.01462,590.00397,212.88757,589.41113,212.7129,589.18353C212.60585,589.0408,212.58525,589.0071,212.6036,588.6356L212.60147,588.6356L212.55864,588.6371L212.55864,588.6371C212.54688,588.4345,212.54279,588.21594,212.5488,588.0104C212.56912,587.4065,212.57439,587.2506,212.67079,587.2506C212.67505,587.2506,212.67949,587.2509,212.68411,587.2515C212.71591,587.25555,212.75655,587.27277,212.809,587.295C212.86682,587.3197,212.92242,587.3354,212.97574,587.34216C212.99571,587.34467,213.01537,587.34595,213.0347,587.34595C213.18736,587.34595,213.31973,587.2672,213.42986,587.1093C213.54382,586.9539,213.58977,586.7396,213.70006,585.86694C213.83687,584.83405,213.8346,584.80237,213.70961,583.9502C213.63753,583.47577,213.56778,582.9827,213.5517,582.8612C213.5057,582.52844,213.06863,581.85693,212.75012,581.64056C212.53783,581.49567,212.4232,581.4536,211.99774,581.39984C211.94754,581.3935,211.893,581.38696,211.8335,581.3801C211.28883,581.3113,211.15501,581.2755,210.94086,581.12897C210.88779,581.09344,210.83136,581.0484,210.77907,581.0007L210.77696,581.0007L210.73679,580.9194L210.73701,580.9193L210.73676,580.9193L210.73698,580.91925C210.71487,580.8907,210.69495,580.8632,210.67754,580.83746L210.67708,580.83746C210.6324,580.7236,210.6241,580.7014,210.6021,580.6402C210.58987,580.6062,210.57608,580.5682,210.57141,580.55615C210.54694,580.4896,210.50499,580.3539,210.48303,580.2706C210.4543,580.1594,210.45442,580.0848,210.48366,579.9692C210.50375,579.88873,210.52121,579.8401,210.58244,579.6908C210.6699,579.4782,210.68024,579.4424,210.69917,579.2937C210.73085,579.04535,210.71886,578.81305,210.66382,578.597C210.60329,578.36066,210.4885,578.15173,210.32928,577.98865C210.06435,577.7172,209.68474,577.57166,209.24136,577.57166C209.22777,577.57166,209.21411,577.57184,209.20041,577.5721C209.19626,577.5722,209.19217,577.57227,209.18816,577.57227C209.08945,577.57446,209.02464,577.5798,208.91783,577.5938C208.87752,577.59906,208.68564,577.6375,208.64867,577.6475C208.64745,577.6479,208.64638,577.64813,208.64551,577.64844C208.6375,577.6509,208.61024,577.6593,208.58444,577.6666C208.3127,577.7475,208.06812,577.893,207.8949,578.0767C207.7995,578.1777,207.71559,578.3015,207.65904,578.4251C207.58495,578.5861,207.5473,578.7649,207.55022,578.94305C207.55182,579.0554,207.5692,579.1225,207.61363,579.18805L207.62686,579.20776L207.61188,579.2442C207.587,579.3045,207.54948,579.3836,207.47728,579.5281C207.36145,579.7598,207.32355,579.8449,207.30164,579.9233C207.28415,579.986,207.28337,580.0232,207.29828,580.0508C207.31668,580.0848,207.35066,580.1039,207.43022,580.1249C207.46161,580.1331,207.47623,580.13617,207.49115,580.13617C207.49202,580.13617,207.49289,580.1361,207.49377,580.1361C207.497,580.13605,207.50027,580.1359,207.5038,580.13556C207.517,580.1345,207.5288,580.1339,207.53935,580.13367C207.54198,580.1336,207.54453,580.1336,207.547,580.1336C207.58592,580.1336,207.60687,580.13995,207.62102,580.15485C207.63383,580.16815,207.63646,580.1864,207.63257,580.2297C207.63057,580.25037,207.62921,580.2739,207.63,580.2823C207.63095,580.3023,207.62634,580.32043,207.61107,580.35394C207.59225,580.39496,207.58923,580.4093,207.59421,580.4304C207.60165,580.46136,207.6223,580.4791,207.6837,580.5078C207.69699,580.51385,207.70918,580.5211,207.71074,580.52356C207.71587,580.5313,207.70917,580.54913,207.68753,580.58655C207.66695,580.6226,207.66145,580.6382,207.66475,580.65314C207.66747,580.66565,207.67265,580.6706,207.71935,580.7056C207.77469,580.7473,207.7978,580.7748,207.80807,580.8109C207.81488,580.8359,207.81499,580.8379,207.80481,580.93085C207.78998,581.0652,207.79224,581.1164,207.81506,581.1614C207.84328,581.2169,207.92479,581.2765,208.00015,581.297C208.03473,581.30634,208.05817,581.3101,208.09787,581.3116L208.12901,581.31305L208.4121,581.253L208.69478,581.19257L208.71065,581.2042C208.73152,581.2198,208.77228,581.27155,208.79854,581.31647C208.8001,581.3191,208.80164,581.3218,208.80322,581.3245L208.80345,581.32446Q208.8056,581.32715,208.80688,581.32904Q208.80836,581.3314,208.81047,581.33545Q208.81244,581.3391,208.81798,581.3505Q208.81961,581.35376,208.82095,581.35596Q208.82259,581.35876,208.82454,581.36127L208.83035,581.3682Q208.83154,581.3698,208.83247,581.37146L208.83273,581.3714Q208.83493,581.3744,208.83759,581.3783Q208.8383,581.37946,208.83885,581.3806Q208.84174,581.38745,208.8428,581.38947L208.84622,581.3952Q208.8471,581.3967,208.84798,581.3985L208.85031,581.4037L208.85034,581.40375Q208.85034,581.404,208.85477,581.4093Q208.85521,581.41,208.85558,581.4107L208.85588,581.4106L208.85881,581.4231L208.8591,581.42303Q208.85918,581.42334,208.8592,581.4236L208.85918,581.4247L208.92328,581.6962L208.92119,581.6962C208.90807,581.72156,208.87753,581.73364,208.82848,581.73364C208.81244,581.73364,208.79442,581.73236,208.77437,581.7298C208.73155,581.7244,208.67952,581.71326,208.61789,581.6969C208.5487,581.6794,208.47806,581.666,208.40628,581.657C208.32971,581.6473,208.25186,581.64246,208.17307,581.64246C207.85086,581.64246,207.51315,581.7235,207.1853,581.88684C206.90785,582.0178,206.78069,582.064,206.59645,582.064C206.53645,582.064,206.4704,582.05914,206.39113,582.05066C206.33812,582.04565,206.28511,582.04315,206.2325,582.04315C205.89037,582.04315,205.56442,582.147,205.35695,582.3224C205.27946,582.38806,205.13776,582.4645,205.03865,582.50226L204.84822,582.5662L204.58617,581.80365C204.33028,581.0419,204.32565,581.0287,204.39684,580.46545C204.42831,580.1688,204.44061,579.933,204.41794,579.92633L204.4159,579.92633C204.41548,579.92645,204.41504,579.92664,204.4146,579.9269C204.4097,579.92816,204.40517,579.9288,204.40103,579.9288C204.39929,579.9288,204.39761,579.9287,204.39601,579.92847C204.37607,579.92596,204.3667,579.90784,204.36977,579.88354C204.37498,579.8423,204.4054,579.8204,204.47046,579.8204C204.48558,579.8204,204.50256,579.8216,204.52153,579.824C204.5558,579.8283,204.59657,579.8367,204.64452,579.84906C204.65051,579.8503,204.65622,579.8512,204.66168,579.8519C204.66888,579.85284,204.67561,579.8533,204.68193,579.8533C204.73935,579.8533,204.76099,579.81506,204.76695,579.7262C204.77892,579.456,204.80505,579.3832,204.91719,579.3832C204.93222,579.3832,204.94878,579.38446,204.96706,579.3868C204.99722,579.39056,205.02637,579.3926,205.05473,579.3926C205.27086,579.3926,205.44324,579.2774,205.69809,578.9761C206.02519,578.5773,206.07426,578.3382,205.92392,577.9356C205.75575,577.5025,205.51476,577.26184,205.20831,577.2231C205.17897,577.21936,205.14902,577.2175,205.11847,577.2175 Z"/> </g> </g> </svg>