<?xml version="1.0" encoding="UTF-8"?>
<svg viewBox="0 0 1217 821" xmlns="http://www.w3.org/2000/svg">
 <g fill-rule="evenodd" stroke-width=".5">
  <g fill="#fff" stroke="#fff">
   <path d="m0 410.5v-410.5h1217v821h-1217v-410.5zm878-318.5l2 0.5 1.5 0.5 1.5 0.5 1.5 0.5 1.5 0.5v0.5l2.5 1.2q2.5 1.3 5 1.3t20 3.7q17.5 3.8 17.5 4.8t10 2.8q10 1.7 11.5 2l1.5 0.2v-0.5l6 0.5q6 0.5 35 6.5t32.5 5.5 7-4 9.5-5.2q6-1.8 6-0.8t-1 1-1 1 3.8 1.5q3.7 0.5 4.4-0.3 0.8-0.7 4.6-0.4 3.7 0.2 3.4 1.7-0.2 1.5 0.8 1.5t1.5-1.8q0.5-1.7 4.5-1.2t5 2.2q1 1.8 4 1.3t3 1 4.8 2q4.7 0.5 5.4 2.5 0.8 2 21.3 1.2 20.5-0.7 20.7-1l0.3-0.2 0.3-0.2 0.2-0.3 2-0.3 2-0.2 1.8-0.5q1.7-0.5 2.7-7t8.3-8.7q7.2-2.3 15.7-1.8t13.7 2.8q5.3 2.2 4.8 23.2t-1 47l-0.5 26-0.5-10.5-0.5-10.5-0.5 69.5q-0.5 69.5-2 119t-1.8 61.5l-0.2 12 2.2 2.5q2.3 2.5-1 99.5-3.2 97-7.2 98.8-4 1.7-9 2.2l-5 0.5h-3v-0.5l-8.5-0.2q-8.5-0.3-12.5-1l-4-0.8-1-0.2-1-0.3h-6q-6 0-18.5 1t-19 2.5-56 12-71 13.8l-21.5 3.2v0.5l-3 0.5-3 0.5-4.5 0.5q-4.5 0.5-14 3t-49.5 8.8l-40 6.2v0.5l-4 0.5-4 0.5-2 0.5q-2 0.5-4 1t-17.5 3.2l-15.5 2.8v0.5l-3 0.5-3 0.5-2 0.5q-2 0.5-21 3l-19 2.5-2.5 0.3-2.5 0.2-0.5 0.2-0.5 0.3-2.5 0.5-2.5 0.5-2 0.5q-2 0.5-18.5 4t-41 7-43.5 6.8l-19 3.2-2 0.2-2 0.3-3 0.5q-3 0.5-22 4.5t-93 15.3l-74 11.2-2.5 0.2q-2.5 0.3-32 4.8t-31 9.2q-1.5 4.8-4.5 6.6-3 1.7-11.5 4.7t-18 3.5-14-0.5l-4.5-1-1-0.3-1-0.2-1-0.2q-1-0.3-3.5-1.3l-2.5-1-1-0.5-1-0.5-0.2-0.3-0.3-0.2-0.3-0.2-0.2-0.3-0.2-0.3-0.3-0.2-0.5-1q-0.5-1-1-1.5t-1.5-17.5-4.7-22.2q-3.8-5.3-15.3-15.8t-16.5-15.8l-5-5.2-0.5-0.2q-0.5-0.3-0.7-0.6-0.3-0.2-4.3-8.2t-11-15-7.5-15.5-6.5-14-10.5-12.5-11-14.5l-6.5-7.5-0.3-0.2-0.2-0.3-0.2-0.3-0.3-0.2h-0.5l-0.5-0.2q-0.5-0.3-0.5-0.6v-0.2l-0.5-0.2q-0.5-0.3-0.5-0.6v-0.2l-0.5-0.2q-0.5-0.3-2.5-2.3t-8.2-11.3q-6.3-9.2-11-13.2-4.8-4-5-5-0.3-1-3-3-2.8-2-3-3-0.3-1-5-6.8-4.8-5.7-11.8-7.2t-10.2-5.2q-3.3-3.8-7-7.3-3.8-3.5-5.8-6.7-2-3.3-5.5-9.6-3.5-6.2-6.5-8.4-3-2.3-5.2-6.6-2.3-4.2-7.6-9.4-5.2-5.3-15.2-7.3t-12.8-4.3q-2.7-2.2-3.2-83.7t0.2-82.3q0.8-0.7-0.7-99l-1.5-98.2v-47h-0.5l0.5-21q0.5-21 2.8-22.2 2.2-1.3 15.2-0.8t14.2 1.2q1.3 0.8 2 8.3 0.8 7.5 16.3 8t16-0.7q0.5-1.3 9-4.3t22-2.5 16.7 4.8q3.3 4.2 3.6 6.2 0.2 2 31.7 0.2 31.5-1.7 91-2.2t60-0.2l0.5 0.2 44.5-1.2q44.5-1.3 49-1.6l4.5-0.2v-0.5l1-0.5 1-0.5 127-6.5q127-6.5 130-11.5t5-7 12-2.7q10-0.8 11-8.6 1-7.7 3-8.7t13.5-0.5 12.3 1.2q0.7 0.8 1 19.8 0.2 19 65.2 34.2 65 15.3 67 15.8z"/>
   <path d="m707.5 76.8l7.5 0.2-0.2 14.5q-0.3 14.5-0.6 20.5-0.2 6-4.7 6.2-4.5 0.3-11.5 2.8t-10 8-151 14.5l-148 9-1.5 0.3-1.5 0.2-13.5 0.2q-13.5 0.3-50 2.8l-36.5 2.5-3.5 0.5-3.5 0.5 0.2 0.3 0.3 0.2 0.3 0.2 0.2 0.3 0.2 0.3 0.3 0.2 0.3 0.5 0.2 0.5-1 0.2q-1 0.3-22-9.2t-24-9.8l-3-0.2-2-0.2q-2-0.3-5.5-1-3.5-0.8-4.3-3.3-0.7-2.5-1.2-1.5t-4.2-0.2q-3.8-1.3-5.6-2.6-1.7-1.2-5.4-3.4-3.8-2.3-4.6-1.6-0.7 0.8-2.7-0.7t-4.7-3.5q-2.8-2-2.8-1t-3.5-0.5-4-2.7q-0.5-1.3-5.5-3-5-1.8-5-2.8t-8-5l-8-4-0.2-0.5q-0.3-0.5-0.6-0.5h-0.2l-0.5-0.2-0.5-0.3v-0.5h-1l-0.5-1.5q-0.5-1.5-2.7-3.5-2.3-2 0.2-6.5t2.8-8.7q0.2-4.3 90.2-8.3t90-4.3v-0.2l44.5-1.2q44.5-1.3 49-1.6l4.5-0.2 128.8-4.5q128.7-4.5 131 1.3 2.2 5.7 4.7 8.2t4.5 3 9.5 0.8z"/>
  </g>
  <g fill="#fefefe" stroke="#fefefe">
   <path d="m711.5 240.2l2.5-0.2 0.5 16.8q0.5 16.7-2 18.2t-2.7 1.8l-0.3 0.2-0.3 0.2-0.2 0.3-0.2 0.3-0.3 0.2-0.3 2-0.2 2h2v0.2q0 0.3-6.5 1.3t-26.5 3-34 3-87 7.3l-73 6.2v-0.5l0.2-0.3 0.3-0.2 0.3-0.2 0.2-0.3h-6.5q-6.5 0-9 0.3-2.5 0.2-3-1.8t-15.5-1.2q-15 0.7-42.5 2.2t-29.7-6.2q-2.3-7.8-3.8-9.8l-1.5-2-0.3 0.2q-0.2 0.3-1.7 2l-1.5 1.8-1.5-0.2-1.5-0.3-1.5-0.3-1.5-0.2v-1.5q0-1.5-1-1.7-1-0.3 0.2-1.6 1.3-1.2-0.4-2-1.8-0.7-9.8-1.2t-13 0.5-9.5 1.7q-4.5 0.8-6 3l-1.5 2.3-0.2 0.3-0.3 0.2-0.3 0.2-0.2 0.3-0.2 0.3-0.3 0.2-0.5 1.5-0.5 1.5-0.5-6q-0.5-6-0.8-15l-0.2-9 0.2-4.5q0.3-4.5 3.6-5.3l3.2-0.7 2.5-0.3 2.5-0.2 3-0.2 3-0.3 167-12.5q167-12.5 175.2-12.2 8.3 0.2 10.8 5.7t7.2 8.3q4.8 2.7 8.8 2.7t6.5-0.3zm-344.3 40.6l-0.2-0.3h2l0.2 0.3q0.3 0.2-0.4 0.4l-0.8 0.3-0.2-0.3-0.3-0.2-0.3-0.2z"/>
   <path d="m672 171.2l1-0.2 1 0.2 1 0.3 16-0.5q16-0.5 20-0.8l4-0.2-0.2 13.5q-0.3 13.5-0.6 15-0.2 1.5-1.7 1.3-1.5-0.3-9.5 1.2t-10.2 3.2q-2.3 1.8-5 7.6-2.8 5.7-180.3 19.2l-177.5 13.5-0.2 0.3-0.3 0.2h-11.5l0.2-14.5q0.3-14.5 0.8-18.5l0.5-4 0.5 1 0.5 1 0.3 0.2 0.2 0.3 5 3q5 3 10.5 4.5t13.5 0.5 13.8-2.7q5.7-1.8 8.2-4.8t4.5-9 2.7-7.5q0.8-1.5 51.3-5.3 50.5-3.7 53-4.2t2.5-0.8v-0.2l37.8-2.5q37.7-2.5 44-3.3 6.2-0.7 12.7-1.2t28-1.5 32-2 14-2 10-0.5 7.5 0.2z"/>
  </g>
  <path d="m832 377.2l1-0.2v0.5l3 0.5 3 0.5 1 0.5 1 0.5 6.2 3.3q6.3 3.2 9.6 4 3.2 0.7 2.2 1.2t0 0.8q1 0.2 1 1.2t11 6.2q11 5.3 23 9.8t27.5 12.5 16.5 8.5l1 0.5 0.2 0.3 0.3 0.2 0.3 0.2 0.2 0.3 0.2 0.3 0.3 0.2 0.3 0.2 0.2 0.3 0.2 0.3 0.3 0.2 0.3 0.2 0.2 0.3 0.2 0.3 0.3 0.2v2l-0.5 1-0.5 1-0.3 0.2-0.2 0.3-2 0.5q-2 0.5-4.5 1t-8 2.5l-5.5 2-0.2 0.3-0.3 0.2-0.5 1-0.5 1-0.5 1.5-0.5 1.5v2l2.7 3.8q2.8 3.7 3.6 4.4 0.7 0.8 2 2 1.2 1.3 2.7 1.8l1.5 0.5 0.2 0.3 0.3 0.2v1l-0.3 0.2-0.2 0.3-0.2 0.3-0.3 0.2-0.3 0.2-0.2 0.3 1 0.3 1 0.2v2l-1 0.2-1 0.3-0.2 0.3-0.3 0.2-0.3 0.2-0.2 0.3-0.2 0.3-0.3 0.2-0.3 0.2-0.2 0.3v0.5l-0.5 0.2-0.5 0.3-4 0.5q-4 0.5-38 5t-38 5-2.5 1-9.5 1.5-21 1.5-10.2 1.2q-0.3 0.8-1 1.3-0.8 0.5-0.8-0.5t-2-1h-2l-0.5 0.2q-0.5 0.3-0.5 0.6v0.2l-0.5 0.2q-0.5 0.3-0.5 0.6v1.2l-0.2 0.5q-0.3 0.5-0.6 0l-0.2-0.5h-1v-1q0-1-6.5 0.8-6.5 1.7-22.5 2.7t-58.5 7-41.5 6.5-8 1-7.5 1-1.5 0.5-16.5 1.5l-13.5 1.5-1 0.3-1 0.2-2 0.2q-2 0.3-8.8 2-6.7 1.8-19 2.6-12.2 0.7-36.7 4.2l-24.5 3.5-2 0.3-2 0.2-0.2-0.5q-0.3-0.5-0.6-0.5h-0.2l-1 0.2q-1 0.3-3 0.8t-33 4.2q-31 3.8-31 4.8t-1.5 0.8q-1.5-0.3-9.5 0.4l-8 0.8-2 0.2q-2 0.3-6.5 1.3t-42.3 5.7q-37.7 4.8-50 4-12.2-0.7-13.2-46l-1-45.2v-3h0.5l0.3-1.5 0.2-1.5 1-0.2 1-0.3 2.5 0.5q2.5 0.5 6.5 2.5t11 3 15.8-1.3q8.7-2.2 10.4-3.2 1.8-1 6.3-10.8 4.5-9.7 39-13.7t36.5-4.5l2-0.5 3.5-0.3 3.5-0.2-0.2-1-0.3-1-0.3-1-0.2-1 15.2-0.5q15.3-0.5 15.8-1.5t0.8 0q0.2 1 9.4-0.5 9.3-1.5 11-1.3 1.8 0.3 5.3-0.2t5-1 8.5-0.5 31.5-3 77-9 96-10.5 54.5-6 13-1 16.5-1.5 15.5-2.3z" fill="#f4f4f3" stroke="#f4f4f3"/>
  <g fill="#fefefe" stroke="#fefefe">
   <path d="m1080.5 139l1.5-0.5 3.8 0.3q3.7 0.2 4.4 4.4 0.8 4.3 16.8 4.8t25 0.2l9-0.2v0.5l0.5 0.3 0.5 0.2v0.5l0.2 0.3 0.3 0.2 0.3 0.5 0.2 0.5-0.2 10q-0.3 10-0.6 39-0.2 29-22.2 29.5l-22 0.5v-0.5l-1-0.5-1-0.5-0.2-0.3-0.3-0.2-0.3-1.5-0.2-1.5-1 0.2-1 0.3-2 0.3q-2 0.2-2.2-0.8-0.3-1-1.6-0.2-1.2 0.7-1.4-0.6-0.3-1.2-2.6-2-2.2-0.7-4.2-3-2-2.2-16-3.4-14-1.3-18.5 0.2t-7 4.5-17.5-0.5-30.5-7.5-21.5-4.3l-6-0.2v-0.2q0-0.3-5.8-1.6-5.7-1.2-12.4-4-6.8-2.7-8.8-2.2t-3-0.8q-1-1.2-2-1-1 0.3-3.2-0.4-2.3-0.8-3.6-1.6-1.2-0.7-6.7-1-5.5-0.2-5.5-1.7t-6-2.3q-6-0.7-14-2.7t-8.5-3.3q-0.5-1.2-5-2-4.5-0.7-11.5-2-7-1.2-7-2.2t-5.5-2.2q-5.5-1.3-17.5-4.8t-11-4-4-1.5l-5-1-2.5-0.5-2.5-0.5-0.2-0.3-0.3-0.2-0.3-0.2-0.2-0.3v-0.5l3-0.2 3-0.3 1.5-0.5q1.5-0.5 1.5-0.8v-0.2l14.5-2.2q14.5-2.3 24.5-2.3t11.5-0.5 5 0 4-0.2q0.5-0.8 9-1.3t8.5-1.5 12.5-1.2q12.5-0.3 17-0.8t7-1 3-0.2l0.5 0.2-0.2 0.5-0.3 0.5-0.3 0.2-0.2 0.3 21-0.5q21-0.5 46.5-2.2 25.5-1.8 27.3 1.7 1.7 3.5 3.4 5.7 1.8 2.3 7.8 4.8t15 2.5 13-2.5 5.8-5.8q1.7-3.2 2-8.7 0.2-5.5-0.8-5.7l-1-0.3 2-0.5 2-0.5 1.5-0.5z"/>
   <path d="m777.5 165.5l32.5-2.5v0.5l0.2 0.3 0.3 0.2 0.3 0.2 0.2 0.3 2.5 0.5 2.5 0.5 5 1q5 1 4 1.5t11 4 17.5 4.8q5.5 1.2 5.5 2.2t7 2.2q7 1.3 11.5 2 4.5 0.8 5 2 0.5 1.3 8.5 3.3t14 2.7q6 0.8 6 2.3t5.5 1.7q5.5 0.3 6.7 1 1.3 0.8 3.6 1.6 2.2 0.7 3.2 0.4 1-0.2 2 1 1 1.3 3 0.8t8.8 2.2q6.7 2.8 12.4 4 5.8 1.3 5.8 1.6v0.4q0 0.3 2 0.8l2 0.5 2 0.5 2 0.5 28.5 9q28.5 9 30.5 9.5l2 0.5 0.2 0.3 0.3 0.2v1l-0.5 2-0.5 2-0.5 2-0.5 2-0.5 1.5-0.5 1.5-0.3 0.2-0.2 0.3-5 0.5q-5 0.5-49.5 6t-47.5 6l-3 0.5-0.2 0.3-0.3 0.2-0.3 0.2-0.2 0.3 0.2 0.3 0.3 0.2 0.3 0.2 0.2 0.3-2 0.5-2 0.5-0.2 0.3-0.3 0.2h-0.5l-0.5 0.2q-0.5 0.3-1 0.3t-28.5 3l-28 3v0.5l-9.5 0.2q-9.5 0.3-12.5 0.6l-3 0.2-0.2-0.5-0.3-0.5-0.3-1.5-0.2-1.5 1-0.2 1-0.3-1-0.5-1-0.5-2-0.5q-2-0.5-2.5-0.8l-0.5-0.2-0.2-0.5q-0.3-0.5-0.6-0.7-0.2-0.3-41.2-15.3t-41.5-45.3q-0.5-30.2 32-32.7z"/>
   <path d="m850.5 266.2l9.5-0.2v0.5l-1 0.5-1 0.5 0.2 0.3 0.3 0.2v1l-0.3 0.2-0.2 0.3 1.5 0.5 1.5 0.5 3.5 1q3.5 1 4 1.7 0.5 0.8 3 0.8t3 0.8q0.5 0.7 3.7 2 3.3 1.2 10 3.4 6.8 2.3 7.8 2 1-0.2 1 0.8t3.8 1.5q3.7 0.5 4 1.5 0.2 1 2 1 1.7 0 5 1.2 3.2 1.3 5.7 1.6 2.5 0.2 2.5 1.2t3.5 1 4 1.2q0.5 1.3 4 1.6 3.5 0.2 3.5 1.2t2.8 1.5q2.7 0.5 5 0.5 2.2 0 3.2 1.2 1 1.3 7.2 3 6.3 1.8 8 2.6 1.8 0.7 2.8 0.4 1-0.2 1 0.8t6.5 2.8q6.5 1.7 9.3 2.4 2.7 0.8 5.4 2.6 2.8 1.7 3.3 2l0.5 0.2 0.5 0.2q0.5 0.3 3 0.8l2.5 0.5 1.5 0.5q1.5 0.5 17.5 7t14 15.2q-2 8.8-34.5 12.6-32.5 3.7-52.5 6.7t-19.5 4.3q0.5 1.2-5 2l-5.5 0.7-3 0.5-3 0.5v0.5h-7l-0.2-1-0.3-1-0.3-0.2-0.2-0.3 0.2-0.3 0.3-0.2 0.3-1 0.2-1-1-0.2-1-0.3-1.5-0.5-1.5-0.5-1-0.5q-1-0.5-16.8-7.2-15.7-6.8-30.4-13-14.8-6.3-14-7 0.7-0.8-26.3-12.3t-34.3-14q-7.2-2.5-7.2-3.5t-7.5-3.8q-7.5-2.7-11-5.2l-3.5-2.5-0.2-0.3-0.3-0.2-0.3-0.2-0.2-0.3-0.2-0.3-0.3-0.2-0.3-0.2-0.2-0.3-0.2-0.3-0.3-0.2-0.3-1.5-0.2-1.5 2.5 0.8q2.5 0.7 3.5 1l1 0.2-0.2-1-0.3-1-0.3-0.2-0.2-0.3 0.2-0.3 0.3-0.2v-3l-0.3-0.2-0.2-0.3 0.2-0.3 0.3-0.2 0.3-0.2 0.2-0.3-1.5-0.5-1.5-0.5h-1.5q-1.5 0-3.5 0.5l-2 0.5-0.2-0.3-0.3-0.2-0.3 0.2-0.2 0.3h-5v-0.5h3v-2l2-0.2 2-0.3 0.2-0.3 0.3-0.2 0.3-0.2 0.2-0.3 1-0.5 1-0.5v-0.5l11.5-0.2q11.5-0.3 16.5-1.3t26.5-2.5 26-2.5 7.5-1.5l3-0.5h2l0.2 0.3 0.3 0.2 0.3-0.2 0.2-0.3 0.5-0.3 0.5-0.2 3-0.2q3-0.3 12.5-0.6zm-16.3 67.6q-0.2-0.3 0-0.6 0.3-0.2 0.3 0.3t-0.3 0.3z"/>
   <path d="m1084 241.2l1-0.2h3q3 0 4 4.2 1 4.3 10.5 5.3t23 1 14.3 0.7q0.7 0.8 0.4 40.8-0.2 40-4.4 41-4.3 1-4.6 1.2-0.2 0.3-1.7 0.6l-1.5 0.2-2-0.2-2-0.3-9-0.5q-9-0.5-15-1.2-6-0.8-6-2.3t-2-2-2 0.5-1 1-1-1.5-1.5-0.7q-1.5 0.7-2.5-0.8t-3.5-2-4-2.8q-1.5-2.2-2.5-2.4-1-0.3-2 1-1 1.2-9 0.4-8-0.7-7-1.7t-6.5-1-9.5 2.3q-2 2.2-5 3-3 0.7-20.5-4.8t-21-4.8l-3.5 0.8-0.5-0.2q-0.5-0.3-3-1.3t-2.5-2-4.5-1.5-12.3-3.8q-7.7-3.2-14-5-6.2-1.7-7.2-3-1-1.2-3.2-1.2-2.3 0-5-0.5-2.8-0.5-2.8-1.5t-3.5-1.2q-3.5-0.3-4-1.6-0.5-1.2-4-1.2t-3.5-1-2.5-1.2q-2.5-0.3-5.7-1.6-3.3-1.2-5-1.2-1.8 0-2-1-0.3-1-4-1.5-3.8-0.5-3.8-1.5t-1-0.8q-1 0.3-7.8-2-6.7-2.2-9.4-3.4-2.8-1.3-4.8-1-2 0.2-2-0.8t-1.5-1-2-0.8q-0.5-0.7-4-1.7l-3.5-1-1.5-0.5-1.5-0.5 0.2-0.3 0.3-0.2v-1l-0.3-0.2-0.2-0.3 1-0.5 1-0.5v-1l28-3q28-3 28.5-3t1-0.3l0.5-0.2v0.5l0.2 0.3 0.3 0.2 0.3 0.2 0.2 0.3 56.5-5.3q56.5-5.2 57.7-1.7 1.3 3.5 5 6.3 3.8 2.7 11.3 4.7t12.5 1.5 9.8-3.2q4.7-2.8 6.7-7.8t2.3-9q0.2-4 1.2-4.2 1-0.3 2-0.6z"/>
   <path d="m746 105.5v-39.5l33.5 7.2q33.5 7.3 62.5 13.8t32.5 7l3.5 0.5 4 0.3 4 0.2 2.5 1.2q2.5 1.3 5 1.3t20 3.7q17.5 3.8 17.5 4.8t10 2.8q10 1.7 11.5 2l1.5 0.2 28.5 7.8q28.5 7.7 33.5 8.7t7 1.5l2 0.5 1 0.3 1 0.2-0.2 2.5-0.3 2.5-0.3 3-0.2 3-6 0.2q-6 0.3-42 3.8l-36 3.5-3 0.5-3 0.5v0.5l-0.5-0.2q-0.5-0.3-3 0.2t-7 1-17 0.8q-12.5 0.2-12.5 1.2t-8.5 1.5-9 1.3q-0.5 0.7-4 0.2t-5 0-11.5 0.5-24.5 2.3l-14.5 2.2-0.5-0.2q-0.5-0.3-0.7-0.6-0.3-0.2-5-0.2-4.8 0-4.8-1t-29.5-0.5l-29.5 0.5h-3v-8l2 0.2 2 0.3 10 2.5q10 2.5 17 2.8l7 0.2v-2l-1.5-0.2-1.5-0.3-1.5-0.5-1.5-0.5-2.5-0.5q-2.5-0.5-16-4.2-13.5-3.8-13.5-43.3z"/>
   <path d="m732 161.8v0.2l-2 0.2q-2 0.3-2.5 0.3t-10.5 1-24 3l-14 2-0.2 0.3-0.3 0.2-0.3 0.2-0.2 0.3-2.5 0.5-2.5 0.5v0.5l-1 0.2q-1 0.3-7.5-0.2t-10 0.5-14 2-32 2-28 1.5-12.7 1.2q-6.3 0.8-44 3.3l-37.8 2.5h-1.5q-1.5 0-1.3-1 0.3-1-1.4-1.5-1.8-0.5-1.8 0.5t-1 1-1.2-1q-0.3-1-3.6-0.8-3.2 0.3-10.7 0.8t-44.5 1.8q-37 1.2-37.2-1.8-0.3-3-2.3-7.5l-2-4.5-0.3-0.2-0.2-0.3-0.2-0.3-0.3-0.2-0.3-0.2-0.2-0.3-0.2-0.3-0.3-0.2-0.3-0.2-0.2-0.3-0.2-0.3-0.3-0.2-0.3-0.2-0.2-0.3-0.2-0.3-0.3-0.2-0.3 0.2-0.2 0.3v2.7q0 2.8-1 2.6l-1-0.3-0.2-0.3-0.3-0.2-0.3-0.2-0.2-0.3-0.2-0.3-0.3-0.2-0.3-0.2-0.2-0.3-1-0.5q-1-0.5-2-1l-1-0.5 0.2-0.3 0.3-0.2v-4l0.3-1 0.2-1-1.5-0.2-1.5-0.3-1-0.5-1-0.5 10.5-1q10.5-1 15-1.3l4.5-0.2 137.5-8.2q137.5-8.3 147.7-8 10.3 0.2 12.6 6 2.2 5.7 7.2 8.7t12 2.7q7-0.2 7 1.6 0 1.7 8.5 1.7t8.5 0.3z"/>
   <path d="m1081 345.8l1-0.3 3.8 0.3q3.7 0.2 4 4.2 0.2 4 14.2 5.2 14 1.3 20 1.3h6l0.5-0.3 0.5-0.2 3.8 0.5q3.7 0.5 3.7 19t-0.5 31-1 24l-0.5 11.5-0.5 1q-0.5 1-3.2 1.5l-2.8 0.5-0.2-0.5q-0.3-0.5-0.6-0.5h-0.2l-0.5-0.2q-0.5-0.3-2-1.3t-12-4-17.7-6.3q-7.3-3.2-13.6-5-6.2-1.7-7.2-2.7t-13-5.5-21-9-13.5-5.5-10-3-9.5-2-13-3-34-12.5l-25-9.5-0.2-0.3-0.3-0.2-0.3-0.2-0.2-0.3-1-0.3-1-0.2v-0.5l0.2-0.3 0.3-0.2v-3l-0.3-0.2-0.2-0.3-0.2-0.3-0.3-0.2-0.3-1-0.2-1 48.5-5.2q48.5-5.3 51-0.8t7 6.5 17.5 2 15.8-2.7q2.7-2.8 4.2-7.3t2-7.5l0.5-3 0.3-1 0.2-1 1-0.2zm-75.8 51q-0.2-0.3 0-0.6 0.3-0.2 0.3 0.3t-0.3 0.3z"/>
   <path d="m110 80l1-0.5h4l0.2 0.3 0.3 0.2v2l-0.3 0.2-0.2 0.3-1 0.5-1 0.5-0.2 0.3-0.3 0.2-0.3 1.5q-0.2 1.5-4.2 3l-4 1.5 0.2 1 0.3 1 0.3 0.2 0.2 0.3 0.2 0.3 0.3 0.2 0.3 0.2 0.2 0.3 0.2 0.3 0.3 0.2 0.3 0.2 0.2 0.3 0.2 0.3 0.3 0.2 1.3 2.5q1.2 2.5 5.7 4.3 4.5 1.7 12.5 1.2t11-0.5 5.8 0.7q2.7 0.8 3 1l0.2 0.3h4v-0.5h1v0.5l0.5 0.3 0.5 0.2v0.5l0.5 0.3 0.5 0.2 9 4.2q9 4.3 10 4.6 1 0.2 1 1.2t3.2 2.5q3.3 1.5 3.6 2.5 0.2 1 2.7 1.8 2.5 0.7 5 1.2t3.7 1.8q1.3 1.2 8 4 6.8 2.7 6.8 3.7t6 1.7q6 0.8 6.5 3.3t4 3.3q3.5 0.7 5.5 1l2 0.2 1 1.2q1 1.3 0.2 2-0.7 0.8-0.4 1l0.2 0.3 0.2 0.3 0.3 0.2 0.3 0.2 0.2 0.3 1 0.5 1 0.5 5 2.5q5 2.5 6.5 3l1.5 0.5 0.2 0.3 0.3 0.2 0.3 0.2 0.2 0.3 0.2 0.3 0.3 0.2 0.3 0.2 0.2 0.3 1 0.3 1 0.2v2l-8.5 0.2-8.5 0.3-1 0.3-1 0.2-7.5 0.2q-7.5 0.3-41 2.3t-34.7 0.3q-1.3-1.8-4.6-5.6-3.2-3.7-12.7-5.2t-15.3-0.8q-5.7 0.8-12.4 3.6-6.8 2.7-18.3 3.2t-16.5-0.8l-5-1.2v-69l1-0.2 1-0.3 16.5 0.7q16.5 0.8 17-2.2t1.5-3.2q1-0.3 3-0.8l2-0.5 1-0.5 1-0.5 1-0.5zm87.2 49.8q-0.2-0.3 0-0.6 0.3-0.2 0.3 0.3t-0.3 0.3zm20 8q-0.2-0.3 0-0.6 0.3-0.2 0.3 0.3t-0.3 0.3z"/>
   <path d="m114.5 170l1.5-0.5h2l0.2 0.3 0.3 0.2 0.3 1.5q0.2 1.5-0.8 1.5t1 2.2q2 2.3 3 2 1-0.2 1 1.3t6 5.3q6 3.7 6.5 4l0.5 0.2v0.2q0 0.3 0.5 0.6l0.5 0.2h0.5l0.7-0.8q0.8-0.7 1-0.4 0.3 0.2 0.8 1.7l0.5 1.5 0.3 1 0.2 1 3.5 1.2q3.5 1.3 13.5 7.3t15.2 8.7q5.3 2.8 7.6 5 2.2 2.3 5.2 3.3t3 2 5.2 4.3q5.3 3.2 5.6 4.7 0.2 1.5 2 2.5 1.7 1 2.4 0.2 0.8-0.7 3.3 0.8t1.5 2 0 0.8q1 0.2 1 1.2t5.5 2.8q5.5 1.7 5.5 2.7t1.5 2.5 2.5 2l1 0.5 0.2 0.3 0.3 0.2 0.5 1 0.5 1 0.3 0.2 0.2 0.3 0.2 0.3 0.3 0.2 0.3 0.2 0.2 0.3 0.2 0.3 0.3 0.2 0.3 0.5 0.2 0.5v1h-2v-2l-3.5 0.2q-3.5 0.3-40 2.6-36.5 2.2-38-1.8t-3.5-4.8q-2-0.7-14-2.2t-15.5-0.5-10.3 2.7q-6.7 1.8-19 1-12.2-0.7-14.2-1.7t-3-17.7l-1-16.8-0.2-9q-0.3-9-0.3-18v-9l0.3-0.2 0.2-0.3 2.5-0.3q2.5-0.2 3 1 0.5 1.3 15 1.6 14.5 0.2 15-2.6 0.5-2.7 6-4.2t7-2z"/>
   <path d="m266 165l2 0.5 0.2 0.3 0.3 0.2v1q0 1-0.3 41.5l-0.2 40.5-7 0.2q-7 0.3-12 0.6l-5 0.2v2l1 0.2 1 0.3 0.2 0.3 0.3 0.2 0.3 0.2 0.2 0.3 1 0.5q1 0.5 5 1l4 0.5-1.5 0.5-1.5 0.5h-5l-0.2-0.3-0.3-0.2-0.3-0.2q-0.2-0.3-4.2-0.3h-4l1 0.3q1 0.2 0.8 1.2-0.3 1-0.6 1h-0.2l-0.5-0.2q-0.5-0.3-0.5-0.6v-0.2l-1-0.2q-1-0.3-1.2-0.6-0.3-0.2-4-1.7l-3.8-1.5-0.2-0.5-0.3-0.5-0.3-0.2-0.2-0.3-0.2-0.3-0.3-0.2-0.3-0.2-0.2-0.3-0.2-0.3-0.3-0.2-0.5-1-0.5-1-0.3-0.2-0.2-0.3-1-0.5q-1-0.5-2.5-2t-1.5-2.5-5.5-2.7q-5.5-1.8-5.5-2.8t-1-1.2q-1-0.3 0-0.8t-1.5-2-3.3-0.8q-0.7 0.8-2.4-0.2-1.8-1-2-2.5-0.3-1.5-5.6-4.7-5.2-3.3-5.2-4.3t-3-2-6-4-6-3.5-3.2-1.2q-0.3-0.8-11.6-7.6-11.2-6.7-14.7-8l-3.5-1.2-0.2-1-0.3-1-0.3-0.2-0.2-0.3-1-0.5-1-0.5-0.2-0.3-0.3-0.2h-0.5l-0.2-0.5-0.3-0.5h-0.5l0.2-0.5 0.3-0.5 0.3-0.2 0.2-0.3-0.2-0.3-0.3-0.2-0.3-0.2-0.2-0.3h2l1 0.5 1 0.5 2.5 1.5q2.5 1.5 4-1t2.5-2.8q1-0.2 2-6.7t34.5-8.7q33.5-2.3 40.5-2.8l7-0.5v-0.5l15.5-0.2q15.5-0.3 17.5 0.2zm-127.8 22.2q0.3-0.2 0.6 0 0.2 0.3-0.3 0.3t-0.3-0.3z"/>
   <path d="m230 253.5v-0.5l3.8 1.5q3.7 1.5 4 1.7 0.2 0.3 1.2 0.6l1 0.2v0.2q0 0.3 0.5 0.6l0.5 0.2 0.2 0.5q0.3 0.5 0.6 0.7l0.2 0.3 0.2 0.3 0.3 0.2 0.3 0.2 0.2 0.3 12.5 7.7q12.5 7.8 12.5 32.3v24.5l-7 0.2q-7 0.3-15.5 1.3t-15.7 1.3q-7.3 0.2-12 1l-4.8 0.7-1 0.3-1 0.2v2l-2.5 0.2-2.5 0.3 24-1q24-1 30.5-1.3l6.5-0.2 0.2 3.5q0.3 3.5 0.3 23v19.5l-0.3 0.2-0.2 0.3h-1l-1-0.5-1-0.5-1-0.5-1-0.5-0.2-0.3-0.3-0.2-0.3-0.2-0.2-0.3-0.2-0.3q-0.3-0.2-1-1l-0.8-0.7-1-0.5-1-0.5-1-0.3-1-0.2-0.2-0.5q-0.3-0.5-2.6-1.5-2.2-1-2.2-2t-7.2-5.5q-7.3-4.5-21-13.7-13.8-9.3-16.3-11.3t-5.5-2.5-3.8 0.2q-0.7 0.8-3.4-0.7l-2.8-1.5-0.2-0.5-0.3-0.5-0.3-0.2-0.2-0.3-0.2-0.3-0.3-0.2-0.3-0.2-0.2-0.3-0.2-0.3-0.3-0.2-0.3-0.2-0.2-0.3 0.2-0.3 0.3-0.2 0.3-0.2 0.2-0.3-0.2-0.3-0.3-0.2-0.3-0.2q-0.2-0.3-1.2-0.6-1-0.2-1-1.7t-3.5-2.3q-3.5-0.7-4.5-3.4-1-2.8-4-3.6-3-0.7-2.5-1.2t-3.7-2.2q-4.3-1.8-5.8-4.8t-4.2-4.2q-2.8-1.3-3.8-3-1-1.8-2.5-1.8t-1.5-1-3-2.5-3-2.5v-1l-0.2-0.5q-0.3-0.5-1.8-2l-1.5-1.5-0.3-0.2-0.2-0.3-1-0.3-1-0.2v-2l2.5-0.2q2.5-0.3 4.7-2.6 2.3-2.2 3.8-4.7t1.8-7.7q0.2-5.3 32.7-7.8t38-3l5.5-0.5 2.5-0.5 2.5-0.5-0.2-0.3-0.3-0.2-0.3-0.2-0.2-0.3v-1z"/>
   <path d="m108 263l1-0.5h5l0.2 0.3 0.3 0.2 0.3 0.2 0.2 0.3 0.2 0.3 0.3 0.2v2l-0.3 0.2-0.2 0.3-1 0.5-1 0.5-3 1.5q-3 1.5-4.5 2l-1.5 0.5-0.2 0.3-0.3 0.2-0.3 0.2-0.2 0.3 0.2 0.3 0.3 0.2 0.3 0.2 0.2 0.3 0.2 0.3 0.3 0.2 0.5 1 0.5 1 0.5 1 0.5 1 0.3 0.2 0.2 0.3 0.2 0.3 0.3 0.2 2.3 3.2q2.2 3.3 11.2 4.3t13 1.5 5 1l1 0.5 1.5 0.3 1.5 0.2v1q0 1 3 2.5t3 2.5 1.5 1 2.5 1.8q1 1.7 3.8 3 2.7 1.2 4.2 4.2t5.8 4.8q4.2 1.7 3.7 2.2t2.5 1.2q3 0.8 4 3.6 1 2.7 4 3.2t3.5 1 1.5 0.8l1 0.2 0.2 1.5 0.3 1.5 0.3 0.2 0.2 0.3-0.2 0.3-0.3 0.2-0.3 0.2-0.2 0.3 0.2 0.3 0.3 0.2 0.3 0.2 0.2 0.3 0.2 0.3 0.3 0.2 0.3 0.2 0.2 0.3 0.2 0.3 0.3 0.2 0.3 0.5 0.2 0.5v1l-5.5 0.2q-5.5 0.3-28.5 2.3t-33.5 2-14.5 1-19.5 2.5-16.7-0.2q-1.3-1.8-2.6-8.3l-1.2-6.5-0.2-6.5q-0.3-6.5-0.3-29.5v-23l0.3-0.2 0.2-0.3 1.5-0.3 1.5-0.2v1q0 1 14.8 1.5 14.7 0.5 16-1.3 1.2-1.7 3.2-2.2l2-0.5 1-0.5zm28.2 26.2q0.3-0.2 0.6 0 0.2 0.3-0.3 0.3t-0.3-0.3z"/>
  </g>
  <path d="m280 162.2l1-0.2 1-0.2 1-0.3 23-0.3q23-0.2 23 0.8t-1 1.2q-1 0.3-1.2 0.6l-0.3 0.2-0.3 0.2-0.2 0.3-0.2 0.3-0.3 0.2-0.3 0.2-0.2 0.3-0.2 0.3-0.3 0.2-0.5 1-0.5 1-1.3 3q-1.2 3-0.2 3.2 1 0.3-4 0.6-5 0.2-4.8 33.2 0.3 33 0.6 44l0.2 11 1 29.8q1 29.7 1.8 30.4 0.7 0.8 1-0.7 0.2-1.5 1.2-1.5t0.8 2.5q-0.3 2.5 0 3l0.2 0.5h-0.5l-0.3 0.5-0.2 0.5-0.2 2.5-0.3 2.5v68l0.5 3.5 0.5 3.5 0.3-0.2 0.2-0.3 0.2-0.3 0.3-0.2 0.3-0.2 0.2-0.3 0.2-0.3 0.3-0.2 0.3-0.2 0.2-0.3 0.2-0.3 0.3-0.2h1.5q1 0 1 1.8 0 1.7 1.5 2.7t1.7 0.7l0.3-0.2 0.3 0.2 0.2 0.3 0.2 0.3 0.3 0.2 0.3 0.2 0.2 0.3-3.8 2.3q-3.7 2.2-4.2 3.7t1.8 2q2.2 0.5 1.7 3t-3.5 3.5-3 2.5 0.8 2q0.7 0.5 0 6.5-0.8 6-1.6 6.5-0.7 0.5-0.4 4.5l0.2 4v3h-0.5l-2 32q-2 32-1.5 51.5t0.8 23.7q0.2 4.3 1.7 3.3t2.5-1.3l1-0.2-0.8 2q-0.7 2-1 2.5l-0.2 0.5h-0.2q-0.3 0-0.6 0.5l-0.2 0.5h-0.2q-0.3 0-4.6 1.2l-4.2 1.3-1 0.5-1 0.5 0.2 0.3 0.3 0.2 0.3 0.2 0.2 0.3 2.5 0.7q2.5 0.8 2.7 79.3 0.3 78.5-0.4 85.5-0.8 7-1.8 7t-2.8 20q-1.7 20-1 20.8 0.8 0.7 2.3 1.2l1.5 0.5 0.2 0.3 0.3 0.2v3l-0.3 0.2-0.2 0.3-0.2 0.3-0.3 0.2-0.3 0.2-0.2 0.3-0.2 0.3-0.3 0.2-0.3 0.2-0.2 0.3h-1l-0.2-0.3-0.3-0.2-0.3 0.2-0.2 0.3h-3l0.2-0.3 0.3-0.2 0.3-0.2 0.2-0.3 0.2-0.3 0.3-0.2 0.3-0.2 0.2-0.3-0.2-0.3-0.3-0.2v-1.5q0-1.5-0.5-3.5l-0.5-2-0.5-1.5-0.5-1.5-0.3 0.2-0.2 0.3-0.2 0.3-0.3 0.2-0.3 0.2-0.2 0.3-0.2 0.3-0.3 0.2-0.3 1q-0.2 1 0.8 1.2 1 0.3 0 1.3t-8 1.5-9 1.2q-2 0.8-2-0.2v-1h-2l-0.2 1-0.3 1-0.3 0.2-0.2 0.3h-2l-0.2-0.3-0.3-0.2h-1v-1q0-1-1-1h-1v-11.5q0-11.5 1-16t2.5-15-0.5-79-3.3-82.5q-1.2-14-4.2-14h-3l-0.2-0.5-0.3-0.5v-4l0.3-0.2 0.2-0.3 0.2-0.3 0.3-0.2 0.5-1q0.5-1 0.8-1.2 0.2-0.3 2.2 0.4 2 0.8 1.8-15.7-0.3-16.5-1.6-32l-1.2-15.5-0.2-31.5q-0.3-31.5-0.6-56.5-0.2-25-1.2-25.2-1-0.3-5.2-5l-4.3-4.8-0.5-2-0.5-2-0.5-1-0.5-1-0.3-1-0.2-1 1 0.2 1 0.3 1 0.5 1 0.5 0.8 0.7q0.7 0.8 1 1l0.2 0.3 0.2 0.3 0.3 0.2 0.3 0.2 0.2 0.3 1 0.5 1 0.5 1 0.5 1 0.5h1l0.2-0.3 0.3-0.2v-19.5q0-19.5-0.3-23l-0.2-3.5-6.5 0.2q-6.5 0.3-30.5 1.3l-24 1 2.5-0.3 2.5-0.2v-2l1-0.2 1-0.3 4.8-0.7q4.7-0.8 12-1 7.2-0.3 15.7-1.3t15.5-1.3l7-0.2v-24.5q0-24.5-12.5-32.3l-12.5-7.7-0.2-0.3-0.3-0.2-0.3-0.2-0.2-0.3-1-0.3-1-0.2v-2l0.5-0.2 0.5-0.3-0.2-0.3-0.3-0.2-0.3-0.2-0.2-0.3 0.2-0.3 0.3-0.2 0.3-0.2 0.2-0.3-0.2-0.3-0.3-0.2v-2l0.3 0.2 0.2 0.3 1 0.5 1 0.5 2.5 1q2.5 1 2.7 1.3l0.3 0.2 0.3 0.2 0.2 0.3h5l1.5-0.5 1.5-0.5-4-0.5q-4-0.5-5-1l-1-0.5-0.2-0.3-0.3-0.2-0.3-0.2-0.2-0.3-1-0.3-1-0.2v-2l5-0.2q5-0.3 12-0.6l7-0.2 0.2-40.5q0.3-40.5 0.3-41.5v-1l-0.3-0.2-0.2-0.3-2-0.5q-2-0.5-17.5-0.2l-15.5 0.2h-2l0.2-1 0.3-1 0.3-0.2 0.2-0.3 0.2-0.3 0.3-0.2 0.3-0.5 0.2-0.5 1-0.2 1-0.3 8.5-0.3 8.5-0.2v-2l-1-0.2-1-0.3-0.2-0.3-0.3-0.2-0.3-0.2-0.2-0.3-0.2-0.3-0.3-0.2-0.3-0.2-0.2-0.3-1.5-0.5q-1.5-0.5-6.5-3l-5-2.5-1-0.5-1-0.5-0.2-0.3-0.3-0.2-0.3-0.2-0.2-0.3-0.2-0.3q-0.3-0.2 0.4-1 0.8-0.7-0.2-2l-1-1.2 3 0.2q3 0.3 24 9.8t22 9.2zm26 629.3q0-1.5 1.2-1 1.3 0.5 1.6 1.5 0.2 1-1.3 1t-1.5-1.5z" fill="#111211" stroke="#111211"/>
  <path d="m1186 179l-0.5 26-0.5-10.5-0.5-10.5-0.5 69.5q-0.5 69.5-2 119t-1.8 61.5l-0.2 12h-0.5v1q0 1 0 3t-1.7 2.2l-1.8 0.3-0.2-0.3-0.3-0.2v10.5q0 10.5-3.5 61t-6 58-3 14-2.5 16.5-1.5 21.5 0.5 12.5v1l0.3 0.2 0.2 0.3-1.5 0.5-1.5 0.5v0.5l-8.5-0.2q-8.5-0.3-12.5-1l-4-0.8-0.2-0.5-0.3-0.5-0.3-0.2-0.2-0.3-1-0.5-1-0.5-1-0.3q-1-0.2-1-1.2t-1-1.2l-1-0.3-1-0.5-1-0.5 0.2-0.3 0.3-0.2 0.3-0.2q0.2-0.3 1.2-0.6 1-0.2 1.2 0.8 0.3 1 1.8-4.5t3.5-51l2-45.5 0.3-4.5 0.2-4.5h0.5l0.5 5 0.5 5 0.3-0.2 0.2-0.3 0.2-0.3 0.3-0.2 0.5 1.5 0.5 1.5 0.5-1.5 0.5-1.5 0.5-6q0.5-6 1-9.5t1.5-30 0-29-3.3-4.3q-2.2-1.7-4.4-6-2.3-4.2-4.6-3.4l-2.2 0.7-0.2-0.3-0.3-0.2-0.3-0.2-0.2-0.3 0.2-0.3 0.3-0.2 0.3-0.2 0.2-0.3 1-0.3 1-0.2 0.2-1q0.3-1 0-2.5l-0.2-1.5h3.2q3.3 0 3.8-1l0.5-1 0.5-11.5q0.5-11.5 1-24t0.5-31-3.7-19l-3.8-0.5v-2l1.5-0.2 1.5-0.3-0.2-0.3-0.3-0.2-0.3-0.2-0.2-0.3 0.2-0.3 0.3-0.2 0.5-1 0.5-1v-1l-0.3-0.2-0.2-0.3-1-0.5-1-0.5-0.2-0.3-0.3-0.2-0.3-0.2-0.2-0.3-0.2-0.3-0.3-0.2v1q0 1 0 2.5t-0.7-0.5q-0.8-2-2.8-1.8l-2 0.3-0.2-0.3-0.3-0.2-0.3-0.2-0.2-0.3-0.2-0.3-0.3-0.2-0.3-0.2-0.2-0.3 1-0.5 1-0.5 0.2-0.3 0.3-0.2v-4l-0.3-0.2-0.2-0.3-0.2-0.3-0.3-0.2-0.3-0.2-0.2-0.3 2.5-0.5 2.5-0.5-0.2-0.3-0.3-0.2-0.3-0.2-0.2-0.3v-0.5l1.5-0.2q1.5-0.3 1.7-0.6 0.3-0.2 4.6-1.2 4.2-1 4.4-41 0.3-40-0.4-40.8-0.8-0.7-14.3-0.7t-23-1-10.5-5.3q-1-4.2-4-4.2h-3l-0.2-1-0.3-1-0.3-0.2-0.2-0.3-0.2-0.3-0.3-0.2v-2l0.3 0.2 0.2 0.3h2l0.2-0.3 0.3-0.2 0.5-1 0.5-1 0.3-0.2 0.2-0.3 1-0.3q1-0.2 1.5-2 0.5-1.7 1.7-1.4 1.3 0.2 1.6 0.4l0.2 0.3h3l0.5-0.3 0.5-0.2 22-0.5q22-0.5 22.2-29.5 0.3-29 0.6-39l0.2-10h0.5l0.3-0.2 0.2-0.3 0.2-0.3 0.3-0.2 0.3-0.2q0.2-0.3-1.3-0.6l-1.5-0.2-0.2-0.5q-0.3-0.5-0.6-0.5h-0.2v-0.2q0-0.3 0.5-4.6 0.5-4.2-2.5-4.7l-3-0.5 0.5-2q0.5-2 2.5-2.5t2-3.5-1-3-0.8-1q0.3-1 0.6-1.5l0.2-0.5 1.8-0.5q1.7-0.5 2.7-7t8.3-8.7q7.2-2.3 15.7-1.8t13.7 2.8q5.3 2.2 4.8 23.2t-1 47z" fill="#111011" stroke="#111011"/>
  <path d="m190 331.5v-0.5l2.8 1.5q2.7 1.5 3.4 0.7 0.8-0.7 3.8-0.2t5.5 2.5 16.3 11.3q13.7 9.2 21 13.7 7.2 4.5 7.2 5.5t2.2 2q2.3 1 2.6 1.5l0.2 0.5 0.2 1 0.3 1 0.5 1 0.5 1 0.5 2 0.5 2 4.3 4.8q4.2 4.7 5.2 5 1 0.2 1.2 25.2 0.3 25 0.6 56.5l0.2 31.5h-2l-0.2-1-0.3-1-0.3-0.2-0.2-0.3-0.2-0.3-0.3-0.2-0.3-0.2-0.2-0.3-1-0.5-1-0.5-1-0.5q-1-0.5-3-2.2l-2-1.8-0.2-0.5q-0.3-0.5-15-13.3-14.8-12.7-36-32-21.3-19.2-24-20.7-2.8-1.5-3-2.5-0.3-1-15-13.8-14.8-12.7-18.3-16.4-3.5-3.8-12-10.6-8.5-6.7-21-18.2l-12.5-11.5-0.2-0.3-0.3-0.2-0.3-0.2-0.2-0.3-1-0.5-1-0.5-0.2-0.3-0.3-0.2v-2l0.3-1 0.2-1 1-0.2 1-0.3 1-0.5 1-0.5 34-3.5q34-3.5 41.5-4l7.5-0.5 3.5-0.5 3.5-0.5 0.2-0.3 0.3-0.2 0.3-0.2 0.2-0.3-0.2-0.3-0.3-0.2-0.3-0.2-0.2-0.3-0.2-0.3-0.3-0.2-0.3-0.2-0.2-0.3v-1z" fill="#ededea" stroke="#ededea"/>
  <path d="m741.5 280.5h1.5l1.5 0.5 1.5 0.5-0.2 0.3-0.3 0.2-0.3 0.2-0.2 0.3 0.2 0.3 0.3 0.2v3l-0.3 0.2-0.2 0.3 0.2 0.3 0.3 0.2 0.3 1 0.2 1-1-0.2q-1-0.3-3.5-1l-2.5-0.8 0.2 1.5 0.3 1.5 0.3 0.2 0.2 0.3 0.2 0.3 0.3 0.2 0.3 0.2 0.2 0.3 0.2 0.3 0.3 0.2 0.3 0.2 0.2 0.3 3.5 2.5q3.5 2.5 11 5.2 7.5 2.8 7.5 3.8t7.2 3.5q7.3 2.5 32.6 13.3 25.2 10.7 28.2 11.7t2.2 1.7q-0.7 0.8 10 5.6 10.8 4.7 29.3 12.7t19.5 8.5l1 0.5 1.5 0.5 1.5 0.5 1 0.3 1 0.2-0.2 1-0.3 1-0.3 0.2-0.2 0.3 0.2 0.3 0.3 0.2 0.3 1 0.2 1-2 0.2-2 0.3-3.5 0.5q-3.5 0.5-13.5 2t-25.5 3.5l-15.5 2-2 0.3-2 0.2-1 0.2q-1 0.3-15.5 2.3t-16.5 1.5-13 1-54.5 6-96 10.5-77 9-31.5 3-8.5 0.5-5 1-5.3 0.2q-1.7-0.2-11 1.3-9.2 1.5-9.4 0.5-0.3-1-0.8 0t-15.8 1.5l-15.2 0.5-8.5 0.2q-8.5 0.3-10.5 0.8t-30 2-28.8-2.8q-0.7-4.2-3.4-9.7l-2.8-5.5-1-0.2-1-0.3-0.2-0.3-0.3-0.2-0.3-0.2-0.2-0.3-0.2-0.3-0.3-0.2-0.3-0.2-0.2-0.3-1-0.3-1-0.2 1 2.2q1 2.3-0.8 3-1.7 0.8-1.4 1 0.2 0.3-2.3 0.3h-2.5l-4-0.5-4-0.5 5-0.5 5-0.5-0.2-0.3-0.3-0.2v-3l0.3-0.2 0.2-0.3 0.2-0.3 0.3-0.2 0.3-0.2 0.2-0.3-0.2-0.3-0.3-0.2-0.3-0.2-0.2-0.3-3-0.5-3-0.5h-6.5q-6.5 0-13.5 0.5t-9 1.8l-2 1.2-0.2 1-0.3 1-0.5 0.5q-0.5 0.5-1 1.5l-0.5 1-0.3 0.5-0.2 0.5h-0.5l-0.3 0.2-0.2 0.3-0.2 0.3-0.3 0.2-0.3 0.2-0.2 0.3-0.2 0.3-0.3 0.2-0.3 0.2-0.2 0.3-0.2 0.3-0.3 0.2-0.5-3.5-0.5-3.5v-68l0.3-2.5 0.2-2.5 0.2-0.5 0.3-0.5h1l0.5 1 0.5 1 0.3 0.2 0.2 0.3 6 3q6 3 17.5 3t17.5-3 8.8-6.7q2.7-3.8 3-5.3 0.2-1.5 10-2.5 9.7-1 10.4-1.8 0.8-0.7 3.3-0.7t4-0.5 5.5-1l4-0.5-0.2-0.3q-0.3-0.2-2.6-1l-2.2-0.7 20.5-1.5q20.5-1.5 26.3-2.8 5.7-1.2 13-1.2 7.2 0 7.2-1t3.5-1.2l3.5-0.3 1-0.3 1-0.2 73-6.2q73-6.3 87-7.3t34-3 26.5-3 6.5-1.3v-0.2l6.5-0.2q6.5-0.3 10-0.6l3.5-0.2v0.5h5l0.2-0.3 0.3-0.2 0.3 0.2 0.2 0.3 2-0.5q2-0.5 3.5-0.5zm89.7 54.3q-0.2-0.3 0-0.6 0.3-0.2 0.3 0.3t-0.3 0.3z" fill="#ecebe9" stroke="#ecebe9"/>
  <path d="m802 533.2l1-0.2v1q0 1 1 1t0.2 2q-0.7 2-2 1.5-1.2-0.5 2.3 4.7 3.5 5.3 4.5 5.6 1 0.2 1 1.7t3 1.5 3 2 2.2 2q2.3 0 3.6 1.8 1.2 1.7 3.2 2.7t-0.2 2.3q-2.3 1.2 0 2 2.2 0.7 3.2 0.4 1-0.2 1 1.3t1.2 2q1.3 0.5 1 1.7-0.2 1.3-1.2 1.6-1 0.2 0.2 3.7 1.3 3.5 4.3 4.5t3.3 2.8q0.2 1.7 2.7 4.2t2.7 2.8l0.3 0.2 0.3 0.2 0.2 0.3 0.2 0.3 0.3 0.2 0.5 1 0.5 1v1l-0.3 0.2-0.2 0.3v1l-1 0.5-1 0.5-0.2 0.3-0.3 0.2-0.3 1.5-0.2 1.5h-1.5q-1.5 0-1.5-1t-1-1-1.2 1.5q-0.3 1.5-4 1.7-3.8 0.3-4.6-1-0.7-1.2-1 0.3-0.2 1.5-1.7 1.3-1.5-0.3-2.3-1.6-0.7-1.2-1.2 0.8t-1.8 2.2q-1.2 0.3-2-1.4-0.7-1.8-1.2 0.2t-1.8 2.2q-1.2 0.3-2-1.4-0.7-1.8-1 0.2-0.2 2-1.7 2t-1.5-1.5-1-1.5-1.2 1.5q-0.3 1.5-2 1.7-1.8 0.3-3.3 0.8t-2.7-0.8q-1.3-1.2-1.8 0.3t-2.8 1.3q-2.2-0.3-6.2 0.7t-4.5-0.3q-0.5-1.2-1.5-1.2t-1 1.5-1.5 1.5-1.7-1q-0.3-1-3-0.2-2.8 0.7-5.3 0.4-2.5-0.2-2.5-2 0-1.7-3.5-0.2t-7.5 1.5-11 1.5-8.5 1-2.5 0.8q-1 1.2-3.5 1-2.5-0.3-3.5 0.2t-1.8-0.2q-0.7-0.8-3 0.2-2.2 1-2.4 2-0.3 1-2 1.5-1.8 0.5-2 1.5-0.3 1-1.6 1.5-1.2 0.5-1.4 1.5-0.3 1-4.6 2l-4.2 1-1.5 0.2-1.5 0.3-3 0.5q-3 0.5-14 2t-10.5 0.2q0.5-1.2-1.5-1.4-2-0.3-2.5-1.6-0.5-1.2-1.5-1.2t-1.8-2q-0.7-2 0-2.5 0.8-0.5 0.8-1.5t-1-1 0-3-1-3.5-1.8-2q0.3-1.5-0.4-2.3l-0.8-0.7 2.5-0.5q2.5-0.5 2.7-0.8 0.3-0.2-0.4-0.7-0.8-0.5-0.8-1.5t3-1.5 2.8-1.5q-0.3-1 2-9 2.2-8 3.2-7.8 1 0.3 1.5-0.4 0.5-0.8 1.5-0.8t1.2-2.5q0.3-2.5 1-4.3 0.8-1.7 0-4.4-0.7-2.8-2-3.6-1.2-0.7-0.7-2.4 0.5-1.8 1.5-1.8t2.8-4q1.7-4 7.4-5.5 5.8-1.5 5.8-2.5v-1h1.5q1.5 0 1.7-1.5 0.3-1.5 1-0.3 0.8 1.3 2.6 1 1.7-0.2 1.4-1.4-0.2-1.3 0.8-1.6 1-0.2 1.5 1 0.5 1.3 1.7 1 1.3-0.2 1.6-1.7 0.2-1.5 1.2-1.5t1 1.5 1.8 1q1.7-0.5 2-1.5 0.2-1 1.2-1t1 1 1.2 0.5q1.3-0.5 1.6-1.5 0.2-1 1.2-1t1.5 1.2q0.5 1.3 1.7 1 1.3-0.2 2-1 0.8-0.7 3-0.4 2.3 0.2 2-0.6-0.2-0.7 1-0.4 1.3 0.2 1.6 1.2 0.2 1 5.2-0.2 5-1.3 7.5-1.3t4.7-0.3q2.3-0.2 2.8-1.2t0.8 0q0.2 1 2.2 0.5t2 0.5 15.5-1.2q15.5-2.3 14.5-2.8t1-1.5 3.8-0.7q1.7 0.2 2-1.3 0.2-1.5 1-1 0.7 0.5 1.4 1.3 0.8 0.7 1.8 0.4zm-0.8 2.6q-0.2-0.3 0-0.6 0.3-0.2 0.3 0.3t-0.3 0.3z" fill="#9f0117" stroke="#9f0117"/>
  <path d="m421.5 642.2l1.5-3.2 0.2 1 0.3 1 0.3 0.2 0.2 0.3 1 2q1 2 2 1.5t5.5 4.8q4.5 5.2 5.5 5.2t3.5 2.8q2.5 2.7 7.5 5.2t7.5 4.2q2.5 1.8 3.5 5 1 3.3 4.2 4.6 3.3 1.2 4.8 9.2t4 13 3.8 5.5q1.2 0.5 1.2 1.5t2.5 0.2q2.5-0.7 13 0.8t17.5 0.5 10.5-1h3.5l0.2-0.3 0.3-0.2 0.3 0.2 0.2 0.3 0.2 0.3 0.3 0.2v-2l-0.3-0.2-0.2-0.3-0.2-0.3-0.3-0.2-0.5-1.5-0.5-1.5-0.3-1.5-0.2-1.5h0.5l0.3 0.2 0.2 0.3 0.2 0.3 0.3 0.2 0.3 0.2 0.2 0.3 0.2 0.3 0.3 0.2 0.3 0.2 0.2 0.3 0.2 0.3 0.3 0.2 0.3 0.2 0.2 0.3 5 3.5q5 3.5 6.8 4.2 1.7 0.8 2 1l0.2 0.3-0.2 0.3-0.3 0.2-0.3 2.5-0.2 2.5 1 0.2 1 0.3 0.2 0.3 0.3 0.2 0.3 0.2 0.2 0.3h-1.5q-1.5 0-2.5-0.3-1-0.2-1.2 0.8-0.3 1-2.6 1.8l-2.2 0.7-0.2 0.3-0.3 0.2-0.3 0.2-0.2 0.3-0.2 0.3-0.3 0.2-0.3 0.2-0.2 0.3-0.2 0.3-0.3 0.2-0.3 0.2-0.2 0.3 1 0.5 1 0.5 0.2 0.3 0.3 0.2 0.3 0.2 0.2 0.3 2.5 0.5 2.5 0.5 8 1q8 1 10 0t6.5-1.7q4.5-0.8 4.7 1.2l0.3 2 0.3 0.5 0.2 0.5v0.2q0 0.3 0.5 0.6l0.5 0.2 0.2 0.5q0.3 0.5 0.6 0.7l0.2 0.3 7 1q7 1 11.5 1.3l4.5 0.2-0.2 1-0.3 1-0.3 0.2-0.2 0.3 0.2 0.3 0.3 0.2 0.3 0.5 0.2 0.5-2 0.2-2 0.3-3 0.5q-3 0.5-22 4.5t-93 15.3l-74 11.2 0.2-0.5q0.3-0.5 1-2 0.8-1.5-2.2-2l-3-0.5-0.2 1-0.3 1-0.3-0.2-0.2-0.3-0.2-0.3-0.3-0.2-0.3-1-0.2-1 1.5-0.2q1.5-0.3 1.5-1.3t-0.8-4.3q-0.7-3.2-2.4-4.4-1.8-1.3-10.3-2.8t-17-1.5-13.5 2.5l-5 2.5-0.2 0.3-0.3 0.2-0.3 0.2-0.2 0.3-0.2 0.3-0.3 0.2-0.5-1-0.5-1-0.5-2-0.5-2-0.5-6.5q-0.5-6.5-0.8-20l-0.2-13.5 1 0.2 1 0.3 0.5 0.3 0.5 0.2v0.5l0.2 0.3 0.3 0.2 0.5 1.5 0.5 1.5 0.5 1 0.5 1 0.3 0.2 0.2 0.3 0.2 0.3 0.3 0.2 0.3 0.2 0.2 0.3h11q11 0 17.8-0.7 6.7-0.8 7-1l0.2-0.3 0.2-0.3 0.3-0.2 0.3-0.2 0.2-0.3 0.2-0.3 0.3-0.2 0.3-0.2 0.2-0.3 0.2-0.3 0.3-0.2 0.3-0.2 0.2-0.3 0.2-0.3 0.3-0.2 0.3-0.2 0.2-0.3-0.2-0.3-0.3-0.2-0.5-1q-0.5-1-0.8-2.5l-0.2-1.5-0.5-0.2-0.5-0.3v-0.5h-0.5l-0.3-1.5-0.2-1.5h0.5l0.3 0.2 0.2 0.3 0.2 0.3 0.3 0.2 0.3 0.2 0.2 0.3 0.2 0.3 0.3 0.2 1.7 2.2q1.8 2.3 4.8 1.3t6.5-3 7.7-2.3q4.3-0.2 4.6-1.2 0.2-1 2.7-1.8 2.5-0.7 7-1l4.5-0.2 0.2-1q0.3-1-0.2-4.5t-1-12 1-11.5 0.8-5q-0.8-2-2.8-2.8-2-0.7-6.2-6.4l-4.3-5.8-0.3-0.2-0.2-0.3 0.2-0.3 0.3-0.2 0.3-0.2 0.2-0.3 1.5-0.5 1.5-0.5 0.2-0.3 0.3-0.2 0.3-1 0.2-1 1-0.2q1-0.3 2.5-3.6zm-11.5 123l1-0.2v2l-2 0.2-2 0.3h-4l-0.2-0.3-0.3-0.2-0.3-0.2q-0.2-0.3 3.3-0.8l3.5-0.5 1-0.3z" fill="#1e1d1c" stroke="#1e1d1c"/>
  <path d="m325 567.2l1-0.2 0.2 1.5 0.3 1.5 4 59q4 59 4.5 63l0.5 4 0.5 1 0.5 1 0.5-2q0.5-2 1 0t0.8 0q0.2-2 2.4-1.5 2.3 0.5 4.3 4.5t2.5 4.5 1 1.5l0.5 1 0.3 0.2 0.2 0.3-0.2 0.3-0.3 0.2-0.3 0.2-0.2 0.3-0.5 1.5q-0.5 1.5-2.5 0.8-2-0.8-2 0.7v1.5l-0.5-0.2-0.5-0.3-1-0.3-1-0.2 0.2 13.5q0.3 13.5 0.8 20l0.5 6.5 0.5 2 0.5 2 0.5 1 0.5 1 0.3-0.2 0.2-0.3 0.2-0.3 0.3-0.2 0.3-0.2 0.2-0.3 5-2.5q5-2.5 13.5-2.5t17 1.5 10.3 2.8q1.7 1.2 2.4 4.4 0.8 3.3 0.8 4.3t-1.5 1.3l-1.5 0.2 0.2 1 0.3 1 0.3 0.2 0.2 0.3 0.2 0.3 0.3 0.2 0.3-1 0.2-1 3 0.2q3 0.3 7.5-0.2l4.5-0.5 1-0.3 1-0.2v2l-2 0.2-2 0.3h-4l-0.2-0.3-0.3-0.2-2 1.5q-2 1.5-2.3 2l-0.2 0.5-2.5 0.2q-2.5 0.3-32 4.8t-31 9.2q-1.5 4.8-4.5 6.6-3 1.7-11.5 4.7t-18 3.5-14-0.5l-4.5-1-1-0.3-1-0.2-0.2-0.5-0.3-0.5-0.3-0.2-0.2-0.3-0.2-0.3-0.3-0.2-0.3-0.2-0.2-0.3-0.2-0.3-0.3-0.2-0.3-0.2-0.2-0.3 0.2-0.3 0.3-0.2 0.3-1 0.2-1h0.5l0.3 0.2 0.2 0.3h2l0.2-0.3 0.3-0.2 0.3-1 0.2-1h2v1q0 1 2 0.2 2-0.7 9-1.2t8-1.5 0-1.3q-1-0.2-0.8-1.2l0.3-1 0.3-0.2 0.2-0.3 0.2-0.3 0.3-0.2 0.3-0.2 0.2-0.3 0.2-0.3 0.3-0.2 0.3 0.2q0.2 0.3 1.2 0.6 1 0.2 3-18.3t3-18.5 1.8-7q0.7-7 0.4-85.5-0.2-78.5-2.7-79.3l-2.5-0.7-0.2-0.3-0.3-0.2-0.3-0.2-0.2-0.3 1-0.5 1-0.5 4-0.7q4-0.8 4-1.8t1-1h2q1 0 1.5 0.8 0.5 0.7 2-0.8t2.5-1.8zm-17.8 220.6l2.8 1.7 0.2 0.3 0.3 0.2v3l-0.3 0.2-0.2 0.3-0.2 0.3-0.3 0.2-0.3 0.2-0.2 0.3-0.2 0.3-0.3 0.2-0.3 0.2-0.2 0.3h-1l-0.2-0.3-0.3-0.2-0.3 0.2-0.2 0.3h-3l0.2-0.3 0.3-0.2 0.3-0.2 0.2-0.3 0.2-0.3 0.3-0.2 0.3-0.2 0.2-0.3-0.2-0.3-0.3-0.2v-1.5q0-1.5 0-3.5t2.7-0.2z" fill="#191919" stroke="#191919"/>
  <path d="m1087.5 489.2l0.5-0.2-1 3.8q-1 3.7-2 4-1 0.2-0.8 2.2l0.3 2 0.3-0.2 0.2-0.3 1.2-1.3q1.3-1.2 1 0.6-0.2 1.7 2.6 2.4 2.7 0.8 1.4 2.6-1.2 1.7 1.6 2 2.7 0.2 3.2 0.7t0.8 0.7l0.2 0.3 2.8-0.3q2.7-0.2 3-2.2 0.2-2 1.2-2.2l1-0.3 0.2-0.3 0.3-0.2 0.3-0.2 0.2-0.3 0.2-0.3 0.3-0.2 0.3-0.2 0.2-0.3 0.2-0.3 0.3-0.2 0.3-0.2 0.2-0.3 0.2-0.3 0.3-0.2v3l-0.3 0.2-0.2 0.3-0.2 0.3-0.3 0.2-0.3 0.2-0.2 0.3-0.2 0.3-0.3 0.2-0.5 1-0.5 1-0.5 2.5q-0.5 2.5-0.2 7 0.2 4.5 7.2 6t7.5 2.7q0.5 1.3 1.5 1.6 1 0.2 2 2 1 1.7 2 2 1 0.2 1.2 3.2 0.3 3 0.8 6.5l0.5 3.5 0.3 1 0.2 1h2l0.2-3 0.3-3 0.5-4 0.5-4 0.5-3 0.5-3 0.5 1 0.5 1 0.3 1 0.2 1-0.2 4.5-0.3 4.5-2 45.5q-2 45.5-3.5 51t-1.8 4.5q-0.2-1-1.2-0.8-1 0.3-1.2 0.6l-0.3 0.2-0.3 0.2-0.2 0.3 1 0.5 1 0.5 1 0.3q1 0.2 1 1.2t1 1.2l1 0.3 1 0.5 1 0.5 0.2 0.3 0.3 0.2 0.3 0.5 0.2 0.5-1-0.2-1-0.3h-6q-6 0-18.5 1t-19 2.5-56 12-71 13.8l-21.5 3.2-4-0.2-4-0.3 0.2-0.3 0.3-0.2 0.3-0.2 0.2-0.3 0.2-0.3 0.3-0.2 0.3-0.2 0.2-0.3 0.2-0.3 0.3-0.2 0.3-0.2 0.2-0.3 1-0.5 1-0.5 0.2-0.3 0.3-0.2 0.5-1 0.5-1 2.3-2q2.2-2 2.2-3t5-2 5.5-0.2q0.5 0.7 1.5 0.4 1-0.2 2-3 1-2.7 6-6.2t14-11.8q9-8.2 10-10 1-1.7 2-2.2l1-0.5-1.5-0.5q-1.5-0.5-3-1.2l-1.5-0.8 0.2-1q0.3-1 4.8-11t4.5-21.5-2.7-11.7q-2.8-0.3-1.3-3.6l1.5-3.2 4-6.8q4-6.7 11-6.7t10.8-2.7q3.7-2.8 4.4-2 0.8 0.7 1.8-0.3t1.2-1.3l0.3-0.2 0.3-0.2 0.2-0.3 1-0.5 1-0.5 0.2-0.3 0.3-0.2 0.3-1 0.2-1 1-0.2 1-0.3 0.2-0.3 0.3-0.2 0.3 1 0.2 1h-2l-0.2 1-0.3 1-1.3 2.2q-1.2 2.3-1 2.6l0.3 0.2v1l-0.3 0.2-0.2 0.3-0.2 0.3-0.3 0.2-0.3 0.2-0.2 0.3-0.2 0.3-0.3 0.2-0.3 0.2-0.2 0.3h2l0.2-0.3 0.3-0.2 0.3-0.2 0.2-0.3 0.2-0.3 0.3-0.2 0.3-0.2 0.2-0.3 0.2-0.3 0.3-0.2 0.3 0.2 0.2 0.3 3 0.7q3 0.8 3-0.2t1-1 1.5 1.2q0.5 1.3 1.5 1.6 1 0.2 3-3 2-3.3 7.2-7 5.3-3.8 9.3-9.8t4.3-8q0.2-2 1.4-2.5 1.3-0.5 0.3-8.5t0.5-11 4-6 2.8-4l0.2-1h0.2q0.3 0 0.6-0.5l0.2-0.5h0.2q0.3 0 0.6-0.5l0.2-0.5 6.8-5q6.7-5 7.4-6.2 0.8-1.3 1.3-1.6zm-101.3 145.6q-0.2-0.3 0-0.6 0.3-0.2 0.3 0.3t-0.3 0.3z" fill="#212020" stroke="#212020"/>
  <path d="m257 492.8v-0.8l2 1.8q2 1.7 3 2.2l1 0.5 1 0.5 1 0.5 0.2 0.3 0.3 0.2 0.3 0.2 0.2 0.3 0.2 0.3 0.3 0.2 0.3 1 0.2 1h2l1.2 15.5q1.3 15.5 1.6 32 0.2 16.5-1.8 15.7-2-0.7-2.2-0.4-0.3 0.2-0.8 1.2l-0.5 1-0.3 0.2-0.2 0.3-0.2 0.3-0.3 0.2v4l0.3 0.5 0.2 0.5-0.2 42.5q-0.3 42.5-0.8 50.5l-0.5 8-0.5-2q-0.5-2-1 1l-0.5 3-0.5-1-0.5-1-0.3-0.2q-0.2-0.3-0.7-0.8t-1.3 0.2q-0.7 0.8-1.2-0.2t-1 0-1.8 0.2q-1.2-0.7-5.7-6.4-4.5-5.8-5.5-6-1-0.3-4 0.2l-3 0.5h-1l-0.2-0.3-0.3-0.2-0.3 0.2-0.2 0.3-0.2 0.3-0.3 0.2-0.3 0.2-0.2 0.3-1.2 0.7q-1.3 0.8-5.3 24.8t-4.3 25.5l-0.2 1.5-0.5-0.2q-0.5-0.3-0.7-0.6-0.3-0.2-4.3-8.2t-11-15-7.5-15.5-6.5-14-10.5-12.5-11-14.5l-6.5-7.5-0.3-0.2-0.2-0.3-0.2-0.3-0.3-0.2h-0.5l-0.2-0.5-0.3-0.5h-0.5l-0.2-0.5-0.3-0.5h-0.5l-0.2-0.5-0.3-0.5v-2l0.5-1 0.5-1 0.3 0.2 0.2 0.3 0.2 0.3 0.3 0.2 0.3 0.2 0.2 0.3 0.2 0.3 0.3 0.2 0.3 0.2 0.2 0.3 0.2 0.3 0.3 0.2 2.3 1.8q2.2 1.7 2.4 2l0.3 0.2 0.3 0.2 0.2 0.3h1l0.2-0.3 0.3-0.2 0.3 0.2 0.2 0.3 0.2 0.3 0.3 0.2 0.5-2 0.5-2 0.5-4.5q0.5-4.5 1-23t-0.5-24.5-2.3-9.2q-1.2-3.3-1.2-4.3t4.2-12.7l4.3-11.8 0.3-0.2 0.2-0.3 0.2-0.3 0.3-0.2 0.3-0.2 0.2-0.3 0.2-0.3 0.3-0.2 0.3-0.2 0.2-0.3 1.5-0.5 1.5-0.5h3l1 0.5 1 0.5 0.2 0.3 0.3 0.2 3 8q3 8 3.5 10l0.5 2 0.3 0.2 0.2 0.3h4l1.5 0.5 1.5 0.5h1l0.2-0.3 0.3-0.2 0.3-0.2 0.2-0.3 1-0.3 1-0.2v-2h2l-0.2-2q-0.3-2 2.2-14l2.5-12 0.3-0.2 0.2-0.3 1-0.5 1-0.5 1.5-0.5 1.5-0.5 0.2-0.3 0.3-0.2 0.3 0.2 0.2 0.3 3.2 0.7q3.3 0.8 14.6 10 11.2 9.3 16.2 12.3t5.2 3.3l0.3 0.2 0.3 0.2 0.2 0.3 0.2 0.3 0.3 0.2 0.3 0.2 0.2 0.3 0.2 0.3 0.3 0.2 0.3 0.2 0.2 0.3h2l0.2-0.3 0.3-0.2 0.3 0.2 0.2 0.3h1l0.2-0.3 0.3-0.2v-3.5q0-3.5-2.3-5.3-2.2-1.7-2.4-3-0.3-1.2 2.4-1.4 2.8-0.3 1.8-2.6-1-2.2 0-2.2t0.5-5-2.3-5q-1.7 0-0.7-1t1-2-3.3-1.2q-3.2-0.3-2-1 1.3-0.8-1-4.3-2.2-3.5-3.2-3.7-1-0.3 2-1.8t0.5-5.5-2.5-4.7z" fill="#43433f" stroke="#43433f"/>
  <path d="m273.5 778.5v11.5h1q1 0 1 1v1h0.5l-0.2 1-0.3 1-0.3 0.2-0.2 0.3 0.2 0.3 0.3 0.2 0.3 0.2 0.2 0.3 0.2 0.3 0.3 0.2 0.3 0.2 0.2 0.3 0.2 0.3 0.3 0.2 0.3 0.5 0.2 0.5-1-0.2q-1-0.3-3.5-1.3l-2.5-1-1-0.5-1-0.5-0.2-0.3-0.3-0.2-0.3-0.2-0.2-0.3-0.2-0.3-0.3-0.2-0.5-1q-0.5-1-1-1.5t-1.5-17.5-4.7-22.2q-3.8-5.3-15.3-15.8t-16.5-15.8l-5-5.2 0.2-1.5q0.3-1.5 4.3-25.5t5.3-24.8l1.2-0.7 0.2-0.3 0.3-0.2 0.3-0.2 0.2-0.3 0.2-0.3 0.3-0.2 0.3 0.2 0.2 0.3h1l3-0.5q3-0.5 4-0.2 1 0.2 5.5 6 4.5 5.7 5.7 6.4 1.3 0.8 1.8-0.2t1 0 1.2 0.2q0.8-0.7 1.3-0.2t0.7 0.8l0.3 0.2 0.5 1 0.5 1 0.5-3q0.5-3 1-1l0.5 2 0.5-8q0.5-8 0.8-50.5l0.2-42.5h3q3 0 4.2 14 1.3 14 3.3 82.5t0.5 79-2.5 15-1 16z" fill="#2e2e2b" stroke="#2e2e2b"/>
  <path d="m874 615.2l1-0.2v0.5l0.2 0.3 0.3 0.2 0.3 0.2 0.2 0.3 3 0.5 3 0.5 1.5 0.5q1.5 0.5 0 1.5t3 1.7q4.5 0.8 4.7 3.3 0.3 2.5 0.6 4l0.2 1.5-0.2 0.5q-0.3 0.5-6 6.7-5.8 6.3-10.3 7.8t-7.7 6.2q-3.3 4.8-5 8.3-1.8 3.5-3.8 3.7-2 0.3-9.5 6.6-7.5 6.2-7.5 7.2t1 1 1 1-1 1.2q-1 0.3 1 1.3l2 1-0.2 0.3-0.3 0.2-0.5 1-0.5 1-0.3-0.2-0.2-0.3h-1.5q-1.5 0-4.5 0t-6-0.5-4 1.2q-1 1.8-5 3.6l-4 1.7-0.2 0.3-0.3 0.2-0.3 0.2-0.2 0.3-0.2 0.3-0.3 0.2-0.5 1-0.5 1-0.3 0.2-0.2 0.3-1 0.5-1 0.5-1 0.5-1 0.5h10l0.2 0.3 0.3 0.2 0.3 0.2 0.2 0.3 0.2 0.3 0.3 0.2 0.3 0.5 0.2 0.5v0.5l-4 0.5-4 0.5-2 0.5q-2 0.5-4 1t-17.5 3.2l-15.5 2.8h-0.5l-0.3-1-0.2-1-2.5-0.2q-2.5-0.3-5.5-1-3-0.8-2.8-2.8 0.3-2-0.4-2.5-0.8-0.5-0.6-3.5 0.3-3-1.4-3.5-1.8-0.5-1.6-1.5 0.3-1-1-1.8-1.2-0.7-10.7-2.2t-10.3-2.8q-0.7-1.2-4-1.7l-3.2-0.5v-0.5l2-0.5 2-0.5 0.2-0.3 0.3-0.2 0.3-0.2 0.2-0.3 0.2-0.3 0.3-0.2 0.3-1.5 0.2-1.5-1-0.2-1-0.3-0.2-0.3-0.3-0.2-0.5-1q-0.5-1-2.2-4-1.8-3-4.3-2.8-2.5 0.3-3.7-1.4-1.3-1.8-6-5.3-4.8-3.5-5.3-5.7-0.5-2.3-6.5-3.8l-6-1.5 1-0.5 1-0.5 1-0.5 1-0.5 0.2-0.3 0.3-0.2 0.3-0.2 0.2-0.3 0.2-0.3 0.3-0.2 0.3-0.2 0.2-0.3-1.5-0.5-1.5-0.5 2.5-0.7q2.5-0.8 2.5-1.8v-1l22-3.2q22-3.3 47.5-7.3t56-9 34.5-5.5 5-0.8z" fill="#940f1b" stroke="#940f1b"/>
  <path d="m519 523.2l1-0.2v0.2q0 0.3 0.5 0.6l0.5 0.2v1q0 1 3.2 1.5 3.3 0.5 4.3 2t0.7 2.5q-0.2 1 1.3 1.8 1.5 0.7-0.3 2.4-1.7 1.8-1.2 5.8t2.2 4.5q1.8 0.5 1.3 2.3-0.5 1.7 0.7 1.4 1.3-0.2 0.3 2.8t-3.5 9-2.5 7v1l0.3-0.2 0.2-0.3 1.8 0.3q1.7 0.2 1.4 2.2l-0.2 2h1.5q1.5 0 1.7-1l0.3-1 0.3 1 0.2 1h2v0.5l-2 0.5-2 0.5-3.8 1.3q-3.7 1.2-7.2 11.7t-7.5 19.5-6.5 19-4 14.5-1.8 4.5h-0.2v-0.5h-7l-0.8 1.3q-0.7 1.2-1.2 2.2l-0.5 1-0.3 0.2-0.2 0.3-0.2 0.3-0.3 0.2-0.5 1.5-0.5 1.5-0.5 1-0.5 1-0.3 0.2-0.2 0.3-0.2 0.3-0.3 0.2v-3l0.5-4q0.5-4-1.8-4.5-2.2-0.5-2.2-2.3 0-1.7-1-0.4-1 1.2-2 1.2t-1-2 1-2-0.5-3.5-2.5-3.7q-1-0.3-3.5 0.4-2.5 0.8-2.3-0.2 0.3-1-1.2-6.5t-1.8-12.5q-0.2-7-1.2-7.2-1-0.3-4.8-9-3.7-8.8-4-7.3-0.2 1.5-1.4 1-1.3-0.5-6-2.3-4.8-1.7-6.8-3.4l-2-1.8-0.2-0.5q-0.3-0.5-0.6-0.5h-0.2l-0.2-0.5q-0.3-0.5-0.6-0.5h-0.2l-0.2-0.5q-0.3-0.5-1-1l-0.8-0.5-0.2-1q-0.3-1-1.3-4t-0.3-7l0.8-4-3.5 0.2q-3.5 0.3-5.5 0l-2-0.2-0.2-1-0.3-1-0.3 0.2-0.2 0.3-0.2 0.3-0.3 0.2-0.3-1.5-0.2-1.5 1 0.2 1 0.3 1.5 0.3q1.5 0.2 1.5-0.8t1-1 1.8-2.5q0.7-2.5 3-3.7l2.2-1.3 0.2-0.3 0.3-0.2v-2l-0.3-0.2-0.2-0.3-0.2-0.3-0.3-0.2-0.3-0.2-0.2-0.3-1-0.5q-1-0.5-4-1.2-3-0.8-2.8-2.3l0.3-1.5 0.3-0.2 0.2-0.3 0.2-0.3 0.3-0.2 0.3-0.2 0.2-0.3 0.2-0.3 0.3-0.2 0.3-0.2 0.2-0.3-1-0.5-1-0.5 0.2-0.3 0.3-0.2 0.3-0.2 0.2-0.3 0.2-0.3 0.3-0.2 0.3-0.2 0.2-0.3v-0.5l8-0.8q8-0.7 9.5-0.4 1.5 0.2 1.5-0.8t31-4.8q31-3.7 33-4.2t3-0.8zm-86 18.3q0.5-0.5 1.2 0.3 0.8 0.7-0.4 0.4-1.3-0.2-0.8-0.7z" fill="#181616" stroke="#181616"/>
  <path d="m394 569l1-0.5 3.5-0.3 3.5-0.2-0.2 1-0.3 1 0.7 5.2q0.8 5.3 3.8 8.3t8.5 4.5 9.3-0.8q3.7-2.2 4.7-4.2t1.3-2h0.2l1.2 7q1.3 7 3 9.8 1.8 2.7 2.8 3 1 0.2-3.2 8.2-4.3 8-3.8 13t1 6.5l0.5 1.5v4l-0.3-0.2-0.2-0.3-1-0.5q-1-0.5-3.5-1.8l-2.5-1.2-0.2 3-0.3 3-0.3 1.5-0.2 1.5-1.5 3.2q-1.5 3.3-2.5 3.6l-1 0.2-0.2 1-0.3 1-0.3 0.2-0.2 0.3-1.5 0.5-1.5 0.5-0.2 0.3-0.3 0.2-0.3 0.2-0.2 0.3 0.2 0.3 0.3 0.2 4.3 5.8q4.2 5.7 6.2 6.4 2 0.8 2.8 2.8 0.7 2-0.8 5t-1 11.5 1 12 0.2 4.5l-0.2 1-4.5 0.2q-4.5 0.3-7 1-2.5 0.8-2.7 1.8-0.3 1-4.6 1.2-4.2 0.3-7.7 2.3t-6.5 3-5-0.3l-2-1.2-0.5-0.2-0.5-0.3v-1.5l-0.2-1-0.3-1h-0.7q-0.3 0-1.3-3t-1-13 2.5-14.5 2-7.5-2.2-3.5q-1.8-0.5-1.8-1.5t-1.5-1.2q-1.5-0.3-2.5-1.8t-2.5-4.2q-1.5-2.8-2.5-2.8t-0.8-1q0.3-1-5-3.8-5.2-2.7-8-5.4l-2.7-2.8-0.3-0.2-0.2-0.3-0.2-0.3-0.3-0.2-0.3-0.2-0.2-0.3-0.2-0.3-0.3-0.2-0.5-1-0.5-1v-2l0.3 0.2 0.2 0.3h1l0.2-0.3 0.3-0.2 0.3-1.5 0.2-1.5 3.5-0.2q3.5-0.3 4.7-1.6 1.3-1.2 1 0-0.2 1.3 1.8 1.6 2 0.2 3.5-2.6 1.5-2.7 3-3 1.5-0.2 1.5-1.2t2.8-1q2.7 0 5.2 2t3 3.5l0.5 1.5 0.5 1 0.5 1 0.3-0.2 0.2-0.3 0.2-0.3 0.3-0.2 0.3-0.2 0.2-0.3 0.2-0.3 0.3-0.2 0.3 0.2 0.2 0.3 0.2 0.3 0.3 0.2v-2l-0.5-1-0.5-1-0.5-3.5q-0.5-3.5-1.5-5t-7-13l-6-11.5-0.3-0.2-0.2-0.3-1-0.5-1-0.5-0.2-0.3-0.3-0.2-0.3-0.2-0.2-0.3-1-0.3-1-0.2v-2l1 0.2 1 0.3 0.2 0.3 0.3 0.2 0.3 0.2 0.2 0.3 1 0.5q1 0.5 6 0.5t8-4 5.5-9.7l2.5-5.8-1-0.2-1-0.3 1-0.5z" fill="#0d0e0e" stroke="#0d0e0e"/>
  <path d="m948.2 517.8l0.3 0.2 0.5 1 0.5 1 0.3-0.2 0.2-0.3 1-0.3 1-0.2-0.2 1-0.3 1v1.5q0 1.5 0.3 2.5 0.2 1-0.8 0.8-1-0.3-3.8 1-2.7 1.2-2 2 0.8 0.7-0.2 1.2t-0.5 1.8q0.5 1.2-0.5 1.2t-1.2 1.5q-0.3 1.5 1 3.3 1.2 1.7 2.4 4 1.3 2.2-1 2.2-2.2 0-2.2 1t1 1.2q1 0.3 1.5 1.6 0.5 1.2 1.5 1.2t0 2.8q-1 2.7-5.8 8-4.7 5.2-7.4 7-2.8 1.7-5.6-1-2.7-2.8-4-3l-1.2-0.3-0.2 0.3q-0.3 0.2-0.8-0.3l-0.5-0.5-1.7 3.2q-1.8 3.3-4.6 5-2.7 1.8-2.7 6.8t0.3 6.8q0.2 1.7-1.3 2.2l-1.5 0.5 0.2 0.3 0.3 0.2 0.3 0.5 0.2 0.5-0.5 0.2q-0.5 0.3-2.7 0-2.3-0.2-2.6 2-0.2 2.3-5.2 2.3t-5.5 0.7q-0.5 0.8-6 2.3t-6-0.3q-0.5-1.7-1.5-0.4-1 1.2-2 1-1-0.3-2.5 0.2t-4.5 0.8q-3 0.2-3-1.3t-2.5-0.7q-2.5 0.7-3 2-0.5 1.2-2 1.2t-1.7-1.5q-0.3-1.5-1.3 0t-2.7 2q-1.8 0.5-1.8-0.5t-3.5-0.5-4.5-1l-1-1.5v-0.5l0.2-0.3 0.3-0.2v-1l-0.5-1-0.5-1-0.3-0.2-0.2-0.3-0.2-0.3-0.3-0.2-0.3-0.2q-0.2-0.3-2.7-2.8t-2.7-4.2q-0.3-1.8-3.3-2.8t-4.3-4.5q-1.2-3.5-0.2-3.7 1-0.3 1.2-1.6 0.3-1.2-3.4-1.7l-3.8-0.5-0.2-1.5q-0.3-1.5-0.8-2t1.8-1.7q2.2-1.3 0.2-2.3t-3.2-2.7q-1.3-1.8-3.6-1.8-2.2 0-2.2-2t-3-2-3-1.5-1-1.7q-1-0.3-4.5-5.6-3.5-5.2-2.3-4.7 1.3 0.5 2-1.5 0.8-2-1.2-1.5l-2 0.5 0.2-1 0.3-1h0.7q0.3 0 0.6-0.5l0.2-0.5 0.2-1.5 0.3-1.5 0.3-0.2 0.2-0.3 3-0.3q3-0.2 3.5 1.6 0.5 1.7 4.3 1 3.7-0.8 4-2.3 0.2-1.5 1.2-1.5t1.8 2q0.7 2 2.2 0t2.2-0.8q0.8 1.3 2 1 1.3-0.2 1-1.4-0.2-1.3 0.8-1.6 1-0.2 1.5 1 0.5 1.3 1.7 1 1.3-0.2 1.8-1.2t1.8 0.2q1.2 1.3 4.4 0.6 3.3-0.8 3-2.3-0.2-1.5 1.3-1.5t1.5 1.5 1.8 1q1.7-0.5 1.4-2-0.2-1.5 0.8-1.5t1.5 1.8q0.5 1.7 1.7 1.4 1.3-0.2 1.6-1.7 0.2-1.5 1-1 0.7 0.5 1.2 2t1.8-1q1.2-2.5 2.2-2.5t1.8 2q0.7 2 1.4 0 0.8-2 1.6-1.5 0.7 0.5 1 1.3 0.2 0.7 4.4 0.4 4.3-0.2 4.8-1.2t1.8 0.2q1.2 1.3 2.7 0.3t3.3-0.7q1.7 0.2 1.4-0.6-0.2-0.7 0.8-1 1-0.2 2 1 1 1.3 1.5-0.2t1.5-1.8q1-0.2 1 0.8t1.8 0.5q1.7-0.5 1.4-1.5-0.2-1 0.8-1t1 1.5 1.8 1q1.7-0.5 2.2-2t1.8 0.3q1.2 1.7 1.2 0.2t0.5-1.8l0.5-0.2 0.8 0.5q0.7 0.5 1 1.3 0.2 0.7 1.4 0.4 1.3-0.2 1.6-1.7 0.2-1.5 1.2-1.5t1.8 2q0.7 2 2-0.2 1.2-2.3 1.7-0.6 0.5 1.8 1.7 1.3 1.3-0.5 1.6-2 0.2-1.5 1.2-1.5t1 1.5 1.8 0q1.7-1.5 2.4-0.3 0.8 1.3 2 1 1.3-0.2 1.8-1.7t1.2-0.3q0.8 1.3 4.3 1 3.5-0.2 3.5-1.7t1-1.5 2 1.2q1 1.3 2 0.8t2 0 1.2 0.8zm-1 2l-0.2-0.3 0.2-0.3q0.3-0.2 0.3 0.3v0.5l-0.3-0.2zm-119.4 45.7q1.2-0.5 1.2 0.5t-1.2 0.5q-1.3-0.5 0-1zm71.4 27.3q-0.2-0.3 0-0.6 0.3-0.2 0.3 0.3t-0.3 0.3z" fill="#990317" stroke="#990317"/>
  <path d="m995 527l-0.5 1-0.3 0.2-0.2 0.3-0.2 0.3-0.3 0.2-0.5 1-0.5 1v3l0.3 0.2 0.2 0.3 0.5 0.3 0.5 0.2-0.2 0.5q-0.3 0.5 0 2 0.2 1.5-1.3 1.5t-1.7 1l-0.3 1-0.3 0.2-0.2 0.3-0.2 0.3-0.3 0.2-0.3 0.2-0.2 0.3v0.5l-0.2 0.5q-0.3 0.5-5 9.7-4.8 9.3-8 14l-3.3 4.8-0.3 0.2-0.2 0.3-0.2 0.3-0.3 0.2-0.3 0.2-0.2 0.3v0.5l-0.5 0.2-0.5 0.3v0.5l-0.2 0.5-0.3 0.5-0.5 1.5q-0.5 1.5-1.2 3.3-0.8 1.7-2.3 0.7t-2 0.3q-0.5 1.2-4.5 1.4-4 0.3-5.8 1.6-1.7 1.2-9.4 2.4l-7.8 1.3-2.5 0.3-2.5 0.2-0.5 0.2q-0.5 0.3-0.5 0.6v0.2l-7-0.2q-7-0.3-8.5-0.6l-1.5-0.2-0.2-1q-0.3-1-0.8-0.5l-0.5 0.5h-0.5l-0.2-0.5-0.3-0.5-0.3-0.2-0.2-0.3 1.5-0.5q1.5-0.5 1.3-2.2-0.3-1.8-0.3-6.8t2.7-6.8q2.8-1.7 4.6-5l1.7-3.2 0.5 0.5q0.5 0.5 0.8 0.3l0.2-0.3 1.2 0.3q1.3 0.2 4 3 2.8 2.7 5.6 1 2.7-1.8 7.4-7 4.8-5.3 5.8-8 1-2.8 0-2.8t-1.5-1.2q-0.5-1.3-1.5-1.6-1-0.2 0-3.4 1-3.3-0.2-5-1.3-1.8-1.6-4.3-0.2-2.5 1.8-3.3 2-0.7 1.2-1.4-0.7-0.8 2.3-2.8t3.5-3.5l0.5-1.5 0.3-1 0.2-1-1 0.2-1 0.3-0.2 0.3-0.3 0.2-0.5-1-0.5-1-0.5 1-0.5 1-0.3-0.2-0.2-0.3-0.2-0.3-0.3-0.2-0.5-1.5q-0.5-1.5-1.2-0.7-0.8 0.7-1.8-0.6-1-1.2-2-1.2t-1 1.5-3.5 1.7q-3.5 0.3-4.3-1-0.7-1.2-1.2 0.3t-1.8 1.7q-1.2 0.3-2-1-0.7-1.2-2.4 0.3-1.8 1.5-1.8 0t-1-1.5-1.2 1.5q-0.3 1.5-1.6 2-1.2 0.5-1.7-1.3-0.5-1.7-1.7 0.6-1.3 2.2-2 0.2-0.8-2-1.8-2t-1.2 1.5q-0.3 1.5-1.6 1.7-1.2 0.3-1.4-0.4-0.3-0.8-1-1.3l-0.8-0.5-0.2-0.5q-0.3-0.5-0.6-1.5-0.2-1-7.7-1.8l-7.5-0.7 0.2-0.3 0.3-0.2v-2l-0.3-0.2-0.2-0.3 0.2-0.3 0.3-0.2v-1l-0.3-0.2-0.2-0.3-0.2-0.3-0.3-0.2-0.3-0.2-0.2-0.3-1-0.5-1-0.5v-0.5l2.5-0.2 2.5-0.3 33-4q33-4 33-4.3v-0.2l15.2-1q15.3-1 21.8 7.5t5 13-3 6.5-2 3zm-47.8 16.8q-0.2-0.3 0-0.6 0.3-0.2 0.3 0.3t-0.3 0.3z" fill="#9c0216" stroke="#9c0216"/>
  <path d="m31.5 241.2l-1.5-98.2 0.8 0.5q0.7 0.5 1.4 3.7 0.8 3.3 1 5 0.3 1.8 0.6 7.3l0.2 5.5 1-0.2 1-0.3 0.2-0.3 0.3-0.2 0.3-2.5 0.2-2.5 1 0.2 1 0.3h1l0.2-0.3 0.3-0.2 0.3 0.2 0.2 0.3 0.2 0.3 0.3 0.2 0.5 6.5q0.5 6.5 0.5 19.5t1.5 41 2 32.5 0.5 30 0.5 25 0.8 8l0.2 8.5h2l0.2-1 0.3-1 0.5-4 0.5-4 0.3-1 0.2-1h3l0.2 1 0.3 1 0.3 0.2 0.2 0.3 0.2 0.3 0.3 0.2 2 2.5q2 2.5 2.5 5l0.5 2.5 0.3-0.2 0.2-0.3 0.2-0.3 0.3-0.2 0.5-1.5 0.5-1.5 0.3-0.2 0.2-0.3 0.2-0.3 0.3-0.2 0.3-0.2 0.2-0.3 0.2-0.3 0.3-0.2 0.5-1 0.5-1 0.3 0.2 0.2 0.3 0.5 0.3 0.5 0.2 1.2 6.5q1.3 6.5 2.6 8.3 1.2 1.7 16.7 0.2t19.5-2.5 14.5-1 33.5-2 28.5-2.3l5.5-0.2v0.5l0.2 0.3 0.3 0.2 0.3 0.2 0.2 0.3 0.2 0.3 0.3 0.2 0.3 0.2 0.2 0.3-0.2 0.3-0.3 0.2-0.3 0.2-0.2 0.3-3.5 0.5-3.5 0.5-7.5 0.5q-7.5 0.5-41.5 4l-34 3.5-1 0.5-1 0.5-1 0.3-1 0.2-0.2 1-0.3 1v2l0.3 0.2 0.2 0.3 1 0.5 1 0.5 0.2 0.3 0.3 0.2 0.3 0.2 0.2 0.3 12.5 11.5q12.5 11.5 21 18.2 8.5 6.8 12 10.6 3.5 3.7 18.3 16.4 14.7 12.8 15 13.8 0.2 1 3 2.5 2.7 1.5 24 20.7 21.2 19.3 36 32 14.7 12.8 15 13.3l0.2 0.5v0.8q0 0.7 1.5 3.4 1.5 2.8 3 2.8t1 1.2q-0.5 1.3-2 1.6-1.5 0.2-1.3 3.2 0.3 3 1.8 5t0.2 2.8q-1.2 0.7 2 1 3.3 0.2 3.3 1.2t-1 2 0.7 1q1.8 0 2.3 5t-0.5 5 0 2.2q1 2.3-1.8 2.6-2.7 0.2-2.4 1.4 0.2 1.3 2.4 3 2.3 1.8 2.3 5.3v3.5l-0.3 0.2-0.2 0.3h-1l-0.2-0.3-0.3-0.2-0.3 0.2-0.2 0.3h-2l-0.2-0.3-0.3-0.2-0.3-0.2-0.2-0.3-0.2-0.3-0.3-0.2-0.3-0.2-0.2-0.3-0.2-0.3-0.3-0.2-0.3-0.2q-0.2-0.3-5.2-3.3t-16.2-12.3q-11.3-9.2-14.6-10l-3.2-0.7-0.2-0.3-0.3-0.2-0.3 0.2-0.2 0.3-1.5 0.5-1.5 0.5-1 0.5-1 0.5-0.2 0.3-0.3 0.2-2.5 12q-2.5 12-2.2 14l0.2 2h-2v2l-1 0.2-1 0.3-0.2 0.3-0.3 0.2-0.3 0.2-0.2 0.3h-1l-1.5-0.5-1.5-0.5h-4l-0.2-0.3-0.3-0.2-0.5-2q-0.5-2-3.5-10l-3-8-0.3-0.2-0.2-0.3-1-0.5-1-0.5h-3l-1.5 0.5-1.5 0.5-0.2 0.3-0.3 0.2-0.3 0.2-0.2 0.3-0.2 0.3-0.3 0.2-0.3 0.2-0.2 0.3-0.2 0.3-0.3 0.2-4.3 11.8q-4.2 11.7-4.2 12.7t1.2 4.3q1.3 3.2 2.3 9.2t0.5 24.5-1 23l-0.5 4.5-0.5 2-0.5 2-0.3-0.2-0.2-0.3-0.2-0.3-0.3-0.2-0.3 0.2-0.2 0.3h-1l-0.2-0.3-0.3-0.2-0.3-0.2q-0.2-0.3-2.4-2l-2.3-1.8-0.3-0.2-0.2-0.3-1.5 0.5q-1.5 0.5-0.7 1.2 0.7 0.8 1 1.8l0.2 1-1-0.2-1-0.3-0.2-0.3-0.3-0.2-0.5-1q-0.5-1-2.2-2.8-1.8-1.7-8-11-6.3-9.2-11-13.2-4.8-4-5-5-0.3-1-3-3-2.8-2-3-3-0.3-1-5-6.8-4.8-5.7-11.8-7.2t-10.2-5.2q-3.3-3.8-7-7.3-3.8-3.5-5.8-6.7-2-3.3-5.5-9.6-3.5-6.2-6.5-8.4-3-2.3-5.2-6.6-2.3-4.2-7.6-9.4-5.2-5.3-15.2-7.3t-12.8-4.3q-2.7-2.2-3.2-83.7t0.2-82.3q0.8-0.7-0.7-99zm224.7 263q0.3-0.2 0.6 0 0.2 0.3-0.3 0.3t-0.3-0.3z" fill="#33332f" stroke="#33332f"/>
  <path d="m43 63.5v-1.5h2l0.8 11q0.7 11 1.2 20.5l0.5 9.5 0.5 1 0.5 1 0.5 2 0.5 2 0.3 0.2 0.2 0.3 0.2 0.3 0.3 0.2 0.5-2 0.5-2 0.3-1.5q0.2-1.5 1.7-2.3l1.5-0.7 0.2-0.3 0.3-0.2 0.3-0.2 0.2-0.3 0.2-0.3 0.3-0.2 0.3-0.2 0.2-0.3h2l-0.2 0.3-0.3 0.2-0.3 0.2-0.2 0.3-0.2 0.3-0.3 0.2-0.3 0.2-0.2 0.3 1 0.3 1 0.2 0.2 9.5 0.3 9.5 0.5-2 0.5-2 0.5 1 0.5 1 0.3-0.2 0.2-0.3 0.2-0.3 0.3-0.2 0.5-1.5 0.5-1.5 0.5-4q0.5-4 0.8-4h0.2v50l-1 0.2-1 0.3-1 0.5-1 0.5 0.8 1.3q0.7 1.2 0 2-0.8 0.7 0.7 1 1.5 0.2 1.5 1.2t-1.8 1.5q-1.7 0.5-2 1.5-0.2 1-3.4 1-3.3 0-2.6 3.2 0.8 3.3 1.8 3 1-0.2 1 0.8t-1 1-1 2.2q0 2.3 0.8 1.6 0.7-0.8 1.7 11.7t1.3 17.5l0.2 5h2v-2l1-0.2 1-0.3 0.2-0.3 0.3-0.2 0.3 0.2 0.2 0.3 0.2 0.3 0.3 0.2 0.3 0.2 0.2 0.3 0.5 0.3 0.5 0.2 1 16.8q1 16.7 3 17.7t14.2 1.7q12.3 0.8 19-1 6.8-1.7 10.3-2.7t15.5 0.5 14 2.2q2 0.8 3.5 4.8t38 1.8q36.5-2.3 40-2.6l3.5-0.2v2h2v0.5l0.2 0.3 0.3 0.2 0.3 0.2 0.2 0.3-2.5 0.5-2.5 0.5-5.5 0.5q-5.5 0.5-38 3t-32.7 7.8q-0.3 5.2-1.8 7.7t-4.8 5.3q-3.2 2.7-3.4 4l-0.3 1.2 1.5 1.5q1.5 1.5 1.8 2l0.2 0.5-1.5-0.2-1.5-0.3-1-0.5q-1-0.5-1.5 0.2-0.5 0.8-4-0.4-3.5-1.3-12.5-2.3t-11.2-4.3l-2.3-3.2-0.3-0.2-0.2-0.3-0.2-0.3-0.3-0.2-0.5-1-0.5-1-0.5-1-0.5-1-0.3-0.2-0.2-0.3-0.2-0.3-0.3-0.2-0.3-0.2-0.2-0.3 0.2-0.3 0.3-0.2 0.3-0.2 0.2-0.3 1.5-0.5q1.5-0.5 4.5-2l3-1.5 1-0.5 1-0.5 0.2-0.3 0.3-0.2v-2l-0.3-0.2-0.2-0.3-0.2-0.3-0.3-0.2-0.3-0.2-0.2-0.3h-5l-1 0.5-1 0.5-2 0.5q-2 0.5-3.2 2.2-1.3 1.8-16 1.3-14.8-0.5-14.8-1.5v-1l-1.5 0.2-1.5 0.3-0.2 0.3-0.3 0.2v23q0 23 0.3 29.5l0.2 6.5-0.5-0.2-0.5-0.3-0.2-0.3-0.3-0.2-0.5 1-0.5 1-0.3 0.2-0.2 0.3-0.2 0.3-0.3 0.2-0.3 0.2-0.2 0.3-0.2 0.3-0.3 0.2-0.5 1.5-0.5 1.5-0.3 0.2-0.2 0.3-0.2 0.3-0.3 0.2-0.5-2.5q-0.5-2.5-2.5-5l-2-2.5-0.3-0.2-0.2-0.3-0.2-0.3-0.3-0.2-0.3-1-0.2-1h-3l-0.2 1-0.3 1-0.5 4-0.5 4-0.3 1-0.2 1h-2l-0.2-8.5q-0.3-8.5-0.8-8t-0.5-25-0.5-30-2-32.5-1.5-41-0.5-19.5l-0.5-6.5-0.3-0.2-0.2-0.3-0.2-0.3-0.3-0.2-0.3 0.2-0.2 0.3h-1l-1-0.3-1-0.2-0.2 2.5-0.3 2.5-0.3 0.2-0.2 0.3-1 0.3-1 0.2-0.2-5.5q-0.3-5.5-1.3-10.5t-1.7-5.5l-0.8-0.5v-47l0.2-8.5q0.3-8.5 0.8-10.5t1.5-6 2.3-4.8l1.2-0.7 0.2-0.3 0.3-0.2 0.3-0.2 0.2-0.3 1-0.5 1-0.5 0.2-0.3 0.3-0.2 0.3 0.2 0.2 0.3 0.2 0.3 0.3 0.2 0.3 0.2 0.2 0.3 1 0.3 1 0.2v-1.5zm-9.8 86.7q0.3-0.2 0.6 0 0.2 0.3-0.3 0.3t-0.3-0.3z" fill="#20201d" stroke="#20201d"/>
  <path d="m315.5 487l2-32h0.5l1 45.2q1 45.3 13.2 46 12.3 0.8 50-4 37.8-4.7 42.3-5.7t6.5-1.3l2-0.2v0.5l-0.2 0.3-0.3 0.2-0.3 0.2-0.2 0.3-0.2 0.3-0.3 0.2-0.3 0.2-0.2 0.3 1 0.5 1 0.5-0.2 0.3-0.3 0.2-0.3 1q-0.2 1 1.3 1.8 1.5 0.7-1 1.2t0.5 1.5 4 1.5l1 0.5 0.2 0.3 0.3 0.2 0.3 0.2 0.2 0.3 0.2 0.3 0.3 0.2v2l-0.3 0.2-0.2 0.3-2.2 1.3q-2.3 1.2-3 3.7-0.8 2.5-1.8 2.5t-1 1-1.5 0.8l-1.5-0.3-1-0.3-1-0.2 0.2 1.5 0.3 1.5 0.3-0.2 0.2-0.3 0.2-0.3 0.3-0.2 0.3 1 0.2 1 2 0.2q2 0.3 5.5 0l3.5-0.2-0.8 4q-0.7 4 1.3 8.5t2.3 5l0.2 0.5h0.2q0.3 0 0.6 0.5l0.2 0.5h0.2q0.3 0 0.6 0.5l0.2 0.5v0.2q0 0.3-1 0.3t-2.5-2.7q-1.5-2.8-2.3-2.3-0.7 0.5-2.4 1.7-1.8 1.3-2.3 0l-0.5-1.2-1 0.2-1 0.3-0.2 0.3-0.3 0.2-0.3 0.5-0.2 0.5h-0.2q-0.3 0-1.3 2t-4.7 4.2q-3.8 2.3-9.3 0.8t-8.5-4.5-3.8-8.3l-0.7-5.2 0.3-1 0.2-1-3.5 0.2-3.5 0.3-1 0.5-1 0.5 1 0.3 1 0.2-2.5 5.8q-2.5 5.7-5.5 9.7t-8 4.3l-5 0.2 0.2 1 0.3 1 6 11.5q6 11.5 7 13t1.5 5l0.5 3.5 0.5 1 0.5 1v2l-0.3-0.2-0.2-0.3-0.2-0.3-0.3-0.2-0.3 0.2-0.2 0.3-0.2 0.3-0.3 0.2-0.3 0.2-0.2 0.3-0.2 0.3-0.3 0.2-0.5-1-0.5-1-0.5-1.5q-0.5-1.5-3-3.5t-5.2-2q-2.8 0-2.8 1t-1.5 1.2q-1.5 0.3-3 3-1.5 2.8-3.5 2.6-2-0.3-1.8-1.6 0.3-1.2-1 0-1.2 1.3-4.7 1.6l-3.5 0.2-0.2 1.5-0.3 1.5-0.3 0.2-0.2 0.3h-1l-0.2-0.3-0.3-0.2v2l0.5 1 0.5 1 0.3 0.2 0.2 0.3 0.2 0.3 0.3 0.2 0.3 0.2 0.2 0.3 0.2 0.3 0.3 0.2 2.7 2.8q2.8 2.7 8.6 5.4 5.7 2.8 7 6 1.2 3.3 2.7 5.3t3 2.3q1.5 0.2 1.5 1.2t1.8 1.5q1.7 0.5 2.2 3.5t-2 7.5-2.5 14.5 1 13 1.3 3h0.2l0.2 1q0.3 1 0.6 1h0.2v1.5l0.5 0.3 0.5 0.2 0.2 1.5q0.3 1.5 0.8 2.5l0.5 1 0.3 0.2 0.2 0.3-0.2 0.3-0.3 0.2-0.3 0.2-0.2 0.3-0.2 0.3-0.3 0.2-0.3 0.2-0.2 0.3-0.2 0.3-0.3 0.2-0.3 0.2-0.2 0.3-0.2 0.3-0.3 0.2-0.3 0.2-0.2 0.3-0.2 0.3q-0.3 0.2-7 1-6.8 0.7-17.8 0.7h-11l-0.2-0.3-0.3-0.2-0.3-0.2-0.2-0.3-0.2-0.3-0.3-0.2-0.5-1-0.5-1-0.5-1.5-0.5-1.5-0.3-0.2-0.2-0.3v-2q0-1.5 2-0.7 2 0.7 2.5-0.8l0.5-1.5 0.2-0.3 0.3-0.2 0.3-0.2 0.2-0.3-0.2-0.3-0.3-0.2-0.5-1q-0.5-1-0.8-1.2-0.2-0.3-2.7-4.8t-3-3.8q-0.5 0.8-1.5 0.6-1-0.3-1.8 1-0.7 1.2-1.2-0.8t-1 0l-0.5 2-0.5-1-0.5-1-0.5-4q-0.5-4-4.5-63l-4-59-0.3-1.5-0.2-1.5-1 0.2q-1 0.3-2 1.3t-3.5 1.5l-2.5 0.5v-0.5l0.5-0.2q0.5-0.3 0.5-0.6v-0.2l0.2-0.5q0.3-0.5 1-2.5l0.8-2-1 0.2q-1 0.3-2.5 1.3t-1.7-3.3q-0.3-4.2-0.8-23.7t1.5-51.5zm53.5 101v-1l1 0.2 1 0.3 0.2 0.3 0.3 0.2v2l-0.3-0.2-0.2-0.3-1-0.3-1-0.2v-1z" fill="#111" stroke="#111"/>
  <path d="m891.5 369l3.5-0.5 2-0.3 2-0.2h7v0.5l5.5 0.5q5.5 0.5 5.5 0.8v0.2l11 5.8q11 5.7 16.5 7.7t62.3 24.7q56.7 22.8 68 27 11.2 4.3 12.7 4.8l1.5 0.5 0.2 0.3 0.3 0.2 0.3 0.2 0.2 0.3 0.2 0.3 0.3 0.2 0.3 0.2 0.2 0.3 0.2 0.3 0.3 0.2 0.3 0.2 0.2 0.3 0.2 0.3 0.3 0.2 0.3 1 0.2 1-1.5 0.2-1.5 0.3-3 0.5q-3 0.5-13 1.2l-10 0.8-0.5-0.2q-0.5-0.3-13-0.8t-16.5 1-8.8 4.8q-4.7 3.2-42.4 8.4l-37.8 5.3-1.5 0.5-1.5 0.5v0.5l-4.5 0.2-4.5 0.3-2.5 0.3-2.5 0.2v-0.5l0.2-0.3 0.3-0.2 0.3-0.2 0.2-0.3 0.2-0.3 0.3-0.2 0.5-2 0.5-2 0.3-0.2 0.2-0.3 0.2-0.3 0.3-0.2v-1l-0.3-0.2-0.2-0.3-1.5-0.5q-1.5-0.5-2.7-1.8-1.3-1.2-2-2-0.8-0.7-3.6-4.4l-2.7-3.8v-2l0.5-1.5 0.5-1.5 0.5-1 0.5-1 0.3-0.2 0.2-0.3 5.5-2q5.5-2 8-2.5t4.5-1l2-0.5 0.2-0.3 0.3-0.2 0.5-1 0.5-1v-2l-0.3-0.2-0.2-0.3-0.2-0.3-0.3-0.2-0.3-0.2-0.2-0.3-0.2-0.3-0.3-0.2-0.3-0.2-0.2-0.3-0.2-0.3-0.3-0.2-0.3-0.2-0.2-0.3-1-0.5q-1-0.5-16.5-8.5t-27.5-12.5-23-9.8q-11-5.2-11-6.2t-1-1.2q-1-0.3 0-0.8t-2.2-1.2q-3.3-0.8-9.6-4l-6.2-3.3-1-0.5-1-0.5-3-0.5-3-0.5v-0.5l2-0.2 2-0.3 15.5-2q15.5-2 25.5-3.5t13.5-2z" fill="#e9eae7" stroke="#e9eae7"/>
  <path d="m695.5 547.2l1.5-0.2v1q0 1-5.8 2.5-5.7 1.5-7.4 5.5-1.8 4-2.8 4t-1.5 1.8q-0.5 1.7 0.7 2.4 1.3 0.8 2 2.6 0.8 1.7 2.3 2 1.5 0.2 1.5 1.2t-1.8 1q-1.7 0-2.4 4-0.8 4-1.8 4t-0.5 2-0.5 2-1-1.5-1-1.5-3.2 8q-2.3 8-2 9 0.2 1-2.8 1.5t-3 1.5 0.8 1.5q0.7 0.5 0.4 0.7-0.2 0.3-2.7 0.8l-2.5 0.5 0.8 0.7q0.7 0.8 0.4 2.3-0.2 1.5 1.8 2t2 4.5-0.8 4.5q-0.7 0.5 0 2.5 0.8 2 1.8 2t1.5 1.2q0.5 1.3 6 2.3t12.5 0 10-1.5l3-0.5 1.5-0.3 1.5-0.2v0.5l1.5 0.3 1.5 0.2v3l-2.5 0.2-2.5 0.3-1.5 0.5q-1.5 0.5-10 1.5l-8.5 1 1 0.5 1 0.5 1.5 0.5 1.5 0.5-0.2 0.3-0.3 0.2-0.3 0.2-0.2 0.3 2.5 3q2.5 3 4.5 3.5l2 0.5-2.5 0.3-2.5 0.2v2l1.5 0.2 1.5 0.3v0.5l-3.5 0.2q-3.5 0.3-25 3.3t-32.5 5.3q-11 2.2-11-0.8t-1-3.2q-1-0.3-4.8-7.6-3.7-7.2-7.7-10.7t-9.7-5l-5.8-1.5-0.2-0.5q-0.3-0.5-9.6-0.3l-9.2 0.3-1.5 0.3-1.5 0.2 0.2-2.5 0.3-2.5 0.3-0.2 0.2-0.3 0.2-0.3 0.3-0.2 0.5-1.5q0.5-1.5 1-3t0.2-2l-0.2-0.5 0.2-2q0.3-2 3-6.5 2.8-4.5 1.8-4.5t-0.8-2.5q0.3-2.5 4-3 3.8-0.5 3.3-3t7-3.3l7.5-0.7 2.5-0.5 2.5-0.5 1-0.5 1-0.5-3.5-0.5-3.5-0.5-0.2-0.3-0.3-0.2-0.3-1q-0.2-1-2.2-1.2-2-0.3-4.5-2-2.5-1.8-2.5-2.8t-1.5-1.8q-1.5-0.7-5.5-1.7l-4-1 1.5-0.5 1.5-0.5-0.2-0.3-0.3-0.2-0.3-0.2-0.2-0.3-0.2-0.3-0.3-0.2-0.3-0.2-0.2-0.3v-0.5l1-0.2 1-0.3h2l0.2 0.3 0.3 0.2 0.3-0.2 0.2-0.3 18.8-3.7q18.7-3.8 18.4-4.8-0.2-1 2.8-1t4-1.2q1-1.3 2.5-0.8t2.5 0 3-0.2q2 0.2 2-1.3t1-1.5 1.5 1.2q0.5 1.3 2 1.6 1.5 0.2 1.7-1.8 0.3-2 1-0.8 0.8 1.3 2.6 1 1.7-0.2 2.2-1.2t0.8 0q0.2 1 2.7 1t2.7-1.5q0.3-1.5 1-0.3 0.8 1.3 2 1 1.3-0.2 1.6-1.7l0.2-1.5h2l0.2 1.5 0.3 1.5h3.5l0.5-1.2q0.5-1.3 2.5-0.6 2 0.8 3-0.4 1-1.3 2.8-1 1.7 0.2 2.2-0.8t0.8 0q0.2 1 2.2 1t2-1.5 1-1.5 1 1 2 1 2.2-1.5q0.3-1.5 1-0.3 0.8 1.3 2.3 1.3t3-0.3zm-69.3 11.6q-0.2-0.3 0-0.6 0.3-0.2 0.3 0.3t-0.3 0.3zm47 69q-0.2-0.3 0-0.6 0.3-0.2 0.3 0.3t-0.3 0.3z" fill="#8b0313" stroke="#8b0313"/>
  <path d="m932 372l1 0.5 0.5 0.3 0.5 0.2 1 0.2 1 0.3 0.2 0.3 0.3 0.2 0.3 0.2 0.2 0.3 25 9.5q25 9.5 34 12.5t9 1.3q0-1.8 9.5 2 9.5 3.7 14 4.7t13.5 5.5 21 9 13 5.5 7.2 2.7q6.3 1.8 13.6 5 7.2 3.3 17.7 6.3t12 4 2 1.3l0.5 0.2v0.2q0 0.3 0.5 0.6l0.5 0.2-0.2 1q-0.3 1-0.6 2l-0.2 1-1 0.2-1 0.3-0.2 0.3-0.3 0.2-0.3 0.2-0.2 0.3 0.2 0.3 0.3 0.2 0.3 0.2 0.2 0.3 2.2-0.7q2.3-0.8 4.6 3.4 2.2 4.3 4.4 6 2.3 1.8 3.3 4.3t0 29-1.5 30-1 9.5l-0.5 6-0.5 1.5-0.5 1.5-0.5-1.5-0.5-1.5-0.3 0.2-0.2 0.3-0.2 0.3-0.3 0.2-0.5-5-0.5-5h-0.5l-0.2-1-0.3-1-0.5-1-0.5-1-0.5 3-0.5 3-0.5 4-0.5 4-0.3 3-0.2 3h-2l-0.2-1-0.3-1-0.5-3.5q-0.5-3.5-0.8-6.5-0.2-3-1.2-3.2-1-0.3-2-2-1-1.8-2-2-1-0.3-1.5-1.6-0.5-1.2-7.5-2.7t-7.2-6q-0.3-4.5 0.2-7l0.5-2.5 0.5-1 0.5-1 0.3-0.2 0.2-0.3 0.2-0.3 0.3-0.2 0.3-0.2 0.2-0.3 0.2-0.3 0.3-0.2v-3l-0.3 0.2-0.2 0.3-0.2 0.3-0.3 0.2-0.3 0.2-0.2 0.3-0.2 0.3-0.3 0.2-0.3 0.2-0.2 0.3-0.2 0.3-0.3 0.2-0.3 0.2-0.2 0.3-1 0.3q-1 0.2-1.2 2.2-0.3 2-3 2.2l-2.8 0.3-0.2-0.3q-0.3-0.2-0.8-0.7t-3.2-0.7q-2.8-0.3-1.6-2 1.3-1.8 0.6-2-0.8-0.3-1.3 1-0.5 1.2-1.5 1.2t-0.8-1q0.3-1-0.4-1.8-0.8-0.7-0.6-2.4 0.3-1.8-1-0.6l-1.2 1.3-0.2 0.3-0.3 0.2-0.3-2q-0.2-2 0.8-2.2 1-0.3 1.5-3l0.5-2.8h0.2q0.3 0 0.6-0.5l0.2-0.5h0.2q0.3 0 0-0.5l-0.2-0.5v-0.2q0-0.3 1-4.6l1-4.2-2-0.2q-2-0.3-5.5-0.8l-3.5-0.5 0.2-0.3 0.3-0.2 0.3-0.2 0.2-0.3 0.2-0.3q0.3-0.2 1.3-5.2l1-5-0.3-0.2-0.2-0.3-0.2-0.3-0.3-0.2-0.3-0.2-0.2-0.3-4.5-0.5q-4.5-0.5-6-1t-2.3 0.8q-0.7 1.2-3.7 1.2t-2.5-1.5-2.5-2.5l-3-1-0.3-0.2-0.2-0.3-0.2-0.3-0.3-0.2-0.3-0.2-0.2-0.3-0.2-0.3-0.3-0.2v-3l-0.3-0.2-0.2-0.3-1.5-0.3-1.5-0.2v-2l2.5-0.2 2.5-0.3 4.2-0.7q4.3-0.8 4-1.8l-0.2-1 10-0.8q10-0.7 13-1.2l3-0.5 1.5-0.3 1.5-0.2-0.2-1-0.3-1-0.3-0.2-0.2-0.3-0.2-0.3-0.3-0.2-0.3-0.2-0.2-0.3-0.2-0.3-0.3-0.2-0.3-0.2-0.2-0.3-0.2-0.3-0.3-0.2-0.3-0.2-0.2-0.3-1.5-0.5q-1.5-0.5-12.7-4.8-11.3-4.2-68-27-56.8-22.7-62.3-24.7t-16.5-7.7l-11-5.8 5 0.2q5 0.3 7 0.8t3 1zm153.2 97.8q-0.2-0.3 0-0.6 0.3-0.2 0.3 0.3t-0.3 0.3z" fill="#121111" stroke="#121111"/>
  <path d="m878 92l2 0.5 1.5 0.5 1.5 0.5 1.5 0.5 1.5 0.5v0.5l-4-0.2-4-0.3-3.5-0.5q-3.5-0.5-32.5-7t-62.5-13.8l-33.5-7.2v39.5q0 39.5 13.5 43.3 13.5 3.7 16 4.2l2.5 0.5 1.5 0.5 1.5 0.5 1.5 0.3 1.5 0.2v2l-7-0.2q-7-0.3-17-2.8l-10-2.5-2-0.3-2-0.2v8h3v0.5l-1.5 0.5q-1.5 0.5-8.5 1.2l-7 0.8v-0.2q0-0.3-8.5-0.3t-8.5-1.7q0-1.8-7-1.6-7 0.3-12-2.7t-7.2-8.7q-2.3-5.8-12.6-6-10.2-0.3-147.7 8l-137.5 8.2v-0.5l0.2-0.3 0.3-0.2 0.3-0.2 0.2-0.3-3.5-0.5-3.5-0.5 0.2-0.3 0.3-0.2 0.3-0.5 0.2-0.5 1.5-0.2 1.5-0.3 148-9q148-9 151-14.5t10-8 11.5-2.8q4.5-0.2 4.7-6.2 0.3-6 0.6-20.5l0.2-14.5-7.5-0.2q-7.5-0.3-9.5-0.8t-4.5-3-4.7-8.2q-2.3-5.8-131-1.3l-128.8 4.5v-0.5l1-0.5 1-0.5 127-6.5q127-6.5 130-11.5t5-7 12-2.7q10-0.8 11-8.6 1-7.7 3-8.7t13.5-0.5 12.3 1.2q0.7 0.8 1 19.8 0.2 19 65.2 34.2 65 15.3 67 15.8z" fill="#252522" stroke="#252522"/>
  <path d="m439.5 578.8l0.5 0.2v1q0 1 1 1h1.2q0.3 0 0.6 0.5l0.2 0.5h1q1 0 1.5 1.8 0.5 1.7 6.3 4 5.7 2.2 7 2.7 1.2 0.5 1.4-1 0.3-1.5 4 7.3 3.8 8.7 4.8 9 1 0.2 1.2 7.2 0.3 7 2.3 12.5t4.7 6q2.8 0.5 4.3 4t0.5 3.5-1 2 1 2 2-1.2q1-1.3 2.5 0.7t2.3 2.3q0.7 0.2 0.4 4.2l-0.2 4h2l0.2-1.5 0.3-1.5 0.3-0.2 0.2-0.3 0.2-0.3 0.3-0.2 0.5-1q0.5-1 1.2-2.2l0.8-1.3h7v0.5l-0.2 1.5-0.3 1.5-0.3 0.2-0.2 0.3-0.2 0.3-0.3 0.2-1 2q-1 2-1.5 3l-0.5 1-0.5 1-0.5 1v4h0.5v0.5l0.2 0.3 0.3 0.2 0.3 0.2 0.2 0.3 1 0.5q1 0.5 2 0.8l1 0.2 0.2 1 0.3 1 0.3 0.2 0.2 0.3-0.2 0.3-0.3 0.2-0.3 0.2-0.2 0.3-2.5 0.5-2.5 0.5-2 0.5-2 0.5 7.5 1.5q7.5 1.5 10.7 3.8 3.3 2.2 6.6 10 3.2 7.7 4.4 10 1.3 2.2 1.6 2.7l0.2 0.5 0.2 1.5 0.3 1.5 0.5 1.5 0.5 1.5 0.3 0.2 0.2 0.3 0.2 0.3 0.3 0.2v2l-0.3-0.2-0.2-0.3-0.2-0.3-0.3-0.2-0.3 0.2-0.2 0.3h-3.5q-3.5 0-10.5 1t-17.5-0.5-13-0.8q-2.5 0.8-2.5-0.2t-1.2-1.5q-1.3-0.5-3.8-5.5t-4-13-4.8-9.2q-3.2-1.3-4.2-4.6-1-3.2-3.5-5-2.5-1.7-7.5-4.2t-7.5-5.2q-2.5-2.8-3.5-2.8t-5.5-5.2q-4.5-5.3-5.5-4.8t-2-1.5l-1-2-0.2-0.3-0.3-0.2-0.3-1-0.2-1 0.2-1.5 0.3-1.5 0.3-3 0.2-3 2.5 1.2q2.5 1.3 3.5 1.8l1 0.5 0.2 0.3 0.3 0.2v-4l-0.5-1.5q-0.5-1.5-1-6.5t3.8-13q4.2-8 3.2-8.2-1-0.3-2.8-3-1.7-2.8-3-9.8l-1.2-7 0.2-0.5 0.3-0.5 0.3-0.2 0.2-0.3 1-0.3 1-0.2 0.5 1.2q0.5 1.3 2.3 0 1.7-1.2 2.4-1.4 0.8-0.3 1.3 0zm48.7 76.4q0.3-0.2 0.6 0l0.2 0.3h-0.5q-0.5 0-0.3-0.3z" fill="#151111" stroke="#151111"/>
  <path d="m574.5 635h1.5l5.2 2.5q5.3 2.5 7.8 5.5t6 11 3.8 13q0.2 5 3.7 5.2 3.5 0.3 6 2 2.5 1.8 4.5 4 2 2.3 6 3.8t5 1.5h1l1-0.5q1-0.5 3.2-2.8 2.3-2.2 3.3-7.2t4.7-5.8q3.8-0.7 4.6-1.4l0.7-0.8 3.5 2.5q3.5 2.5 3.8 3.5 0.2 1 4.7 3.8 4.5 2.7 8.3 4 3.7 1.2 7 5.2 3.2 4 5.2 4.5t2.5 1.7q0.5 1.3 5.3 3.6 4.7 2.2 5.4 3.4 0.8 1.3 3.3 1.6 2.5 0.2 2.5 1.7t8.5 2.3q8.5 0.7 13 2.7t6.5 2.5l2 0.5 1.5 0.5 1.5 0.5 2 0.5 2 0.5-1.5 0.5-1.5 0.5-1.5 0.5-1.5 0.5-0.2 0.3-0.3 0.2h-0.5l-2.5 0.2q-2.5 0.3-9.5 1.8t-16.5 2-27-1-19-2.5-3-0.7q-1.5 0.2-1.5-0.8t-7-1.5-6.8-1.5q0.3-1-12.4-3l-12.8-2-2-0.2q-2-0.3-8.5-0.8l-6.5-0.5 0.2-0.3 0.3-0.2 0.3-0.2 0.2-0.3 1-0.5 1-0.5 0.2-0.3q0.3-0.2 1.8-3.2t2-9-1-12.5-1.5-8.5-2.7-3.8q-2.8-1.7-4.8-4.4l-2-2.8 1.2-0.5q1.3-0.5 0.6-2-0.8-1.5 1.2-1.5h2v-2l-1-0.2q-1-0.3-6.5-3.8l-5.5-3.5-1.5-0.5q-1.5-0.5-1.5-3.8 0-3.2 1.5-3.2zm109.7 62.5q-0.2-1.5 0.8-1.5t0.2 1.5q-0.7 1.5-1 0zm2 1.7q0.3-0.2 0.6 0 0.2 0.3-0.3 0.3t-0.3-0.3z" fill="#958b8c" stroke="#958b8c"/>
  <path d="m1063.5 448.8l0.5 0.2 0.2 1q0.3 1-4 1.8l-4.2 0.7-2.5 0.3-2.5 0.2v2l1.5 0.2 1.5 0.3 0.2 0.3 0.3 0.2v3l0.3 0.2 0.2 0.3 0.2 0.3 0.3 0.2 0.3 0.2 0.2 0.3 0.2 0.3 0.3 0.2 3 1q3 1 2.5 2.5t2.5 1.5 3.7-1.2q0.8-1.3 2.3-0.8t6 1l4.5 0.5 0.2 0.3 0.3 0.2 0.3 0.2 0.2 0.3 0.2 0.3 0.3 0.2 0.3 1q0.2 1 1.4 1.5 1.3 0.5-0.7 2t-2.5 3.5-0.8 2.2l-0.2 0.3-0.2 0.3-0.3 0.2-0.3 0.2-0.2 0.3 3.5 0.5q3.5 0.5 5.5 0.8l2 0.2-1 4.2q-1 4.3-1 4.6v1.2l-0.5 0.2q-0.5 0.3-0.5 0.6v0.2l-0.5 0.2q-0.5 0.3-7.5 5.6l-7 5.2-0.5 0.2-0.5 0.3v0.5l-0.5 0.2-0.5 0.3v0.5l-0.5 0.2-0.5 0.3-0.2 0.3-0.3 0.2-0.3-0.2-0.2-0.3-0.2-0.3-0.3-0.2-0.3-0.2-0.2-0.3 0.2-0.3 0.3-0.2v-2q0-2-0.7-2.8-0.8-0.7-2.6-5-1.7-4.2-3.4-4.7l-1.8-0.5 0.2-2q0.3-2 0.6-3 0.2-1-13.3 0.2-13.5 1.3-16 2.3t-3.7 3.7q-1.3 2.8-1.8 2.3t-2.8-1.7q-2.2-1.3-6 3.4-3.7 4.8-7.7 5.8t-4.3 4q-0.2 3-1.2 3t1.8 5q2.7 5 0.4 7.2-2.2 2.3-4.2 7l-2 4.8h-3l-0.2 1-0.3 1-0.3 0.2-0.2 0.3-0.2 0.3-0.3 0.2-0.3 1-0.2 1-0.5-0.2-0.5-0.3-0.2-0.3-0.3-0.2v-3l0.5-1 0.5-1 0.3-0.2 0.2-0.3 0.2-0.3 0.3-0.2 0.5-1q0.5-1 2-3t3-6.5-5-13-21.8-7.5l-15.2 1-2-0.2-2-0.3 1-0.5 1-0.5 1.5-0.5 1.5-0.5 1-0.5 1-0.5-2-0.5q-2-0.5-1.2-1.2l0.7-0.8 0.3-0.2 0.2-0.3-1-0.3q-1-0.2-0.8-1.7 0.3-1.5-3.4-2.3-3.8-0.7-4.6-1.4-0.7-0.8-2.4-4.3-1.8-3.5-0.8-3.7 1-0.3-0.2-3l-1.3-2.8-0.3-0.2-0.2-0.3-0.2-0.3-0.3-0.2-0.3-0.2-0.2-0.3-0.2-0.3-0.3-0.2-0.3-0.2-0.2-0.3v-1l1.5-0.5 1.5-0.5 37.8-5.3q37.7-5.2 42.4-8.4 4.8-3.3 8.8-4.8t16.5-1 13 0.8zm-62.3 50q-0.2-0.3 0-0.6 0.3-0.2 0.3 0.3t-0.3 0.3z" fill="#222020" stroke="#222020"/>
  <path d="m548 653.2l1-0.2-0.2 1q-0.3 1-0.3 2.5v1.5l0.3 0.2 0.2 0.3-0.2 0.3-0.3 0.2-0.3 0.2-0.2 0.3 3.5 0.7q3.5 0.8 3.5 1.8t1.5 1 2 6.8q0.5 6.7-1.7 6-2.3-0.8-1.3 2.2t0.7 6q-0.2 3 0.8 3t4.5 3.8q3.5 3.7 4.3 4.4 0.7 0.8 2.2 14.3t1.8 17l0.2 3.5h-1l-0.2-0.5-0.3-0.5-0.3-2q-0.2-2-4.7-1.2-4.5 0.7-6.5 1.7t-10 0l-8-1-2.5-0.5-2.5-0.5-0.2-0.3-0.3-0.2-0.3-0.2-0.2-0.3-1-0.5-1-0.5 0.2-0.3 0.3-0.2 0.3-0.2 0.2-0.3 0.2-0.3 0.3-0.2 0.3-0.2 0.2-0.3 0.2-0.3 0.3-0.2 0.3-0.2 0.2-0.3 2.2-0.7q2.3-0.8 2.6-1.8 0.2-1 1.2-0.8 1 0.3 2.5 0.3h1.5l-0.2-0.3-0.3-0.2-0.3-0.2-0.2-0.3-1-0.3-1-0.2 0.2-2.5 0.3-2.5 0.3-0.2 0.2-0.3-0.2-0.3q-0.3-0.2-2-1-1.8-0.7-6.8-4.2l-5-3.5-0.2-0.3-0.3-0.2-0.3-0.2-0.2-0.3-0.2-0.3-0.3-0.2-0.3-0.2-0.2-0.3-0.2-0.3-0.3-0.2-0.3-0.2-0.2-0.3-0.2-0.3-0.3-0.2h-0.5l-0.2-0.5q-0.3-0.5-1.6-2.7-1.2-2.3-4.4-10-3.3-7.8-6.6-10-3.2-2.3-10.7-3.8l-7.5-1.5 2-0.5 2-0.5 2.5-0.5 2.5-0.5 0.2-0.3 0.3-0.2 0.3-0.2 0.2-0.3-0.2-0.3-0.3-0.2-0.3-1-0.2-1-1-0.2q-1-0.3-2-0.8l-1-0.5-0.2-0.3-0.3-0.2-0.3-0.2-0.2-0.3v-0.5l1-0.2 1-0.3 24-3.5q24-3.5 25-3.8z" fill="#282626" stroke="#282626"/>
  <path d="m614 511.2l2-0.2v2l2 0.2 2 0.3 2.5 3.5q2.5 3.5 3.5 3.8 1 0.2 1 5.2t2 5.5 0.8 3q-1.3 2.5-1.3 3.5v1h0.5v0.2q0 0.3-43 6.8l-43 6.5-1 0.5-1 0.5-0.2 0.3-0.3 0.2-0.3 0.2-0.2 0.3-0.2 0.3-0.3 0.2-0.3 0.2-0.2 0.3-0.2 0.3-0.3 0.2-0.5 1.5-0.5 1.5-0.3 0.2-0.2 0.3h8l15-2.5q15-2.5 31-4t42-4.5 29-3.3l3-0.2 0.2 1 0.3 1v1l-0.3 0.2-0.2 0.3-0.2 0.3-0.3 0.2-0.3 1.5-0.2 1.5h-0.5l-0.3-1.5-0.2-1.5h-2l-0.2 1.5q-0.3 1.5-1.6 1.7-1.2 0.3-2-1-0.7-1.2-1 0.3-0.2 1.5-2.7 1.5t-2.7-1q-0.3-1-0.8 0t-2.2 1.2q-1.8 0.3-2.6-1-0.7-1.2-1 0.8-0.2 2-1.7 1.8-1.5-0.3-2-1.6-0.5-1.2-1.5-1.2t-1 1.5-2 1.3q-2-0.3-5.8 1.4-3.7 1.8-5.4 2-1.8 0.3-21.3 4.3l-19.5 4-0.2 0.3-0.3 0.2-0.3-0.2-0.2-0.3h-2l-1 0.3-1 0.2-3.5 0.2q-3.5 0.3-14.5 2.3t-17.5 2.7l-6.5 0.8h-2l-0.2-1-0.3-1-0.3 1q-0.2 1-1.7 1h-1.5l0.2-2q0.3-2-1.4-2.2l-1.8-0.3-0.2 0.3-0.3 0.2v-1q0-1 2.5-7t3.5-9-0.3-2.8q-1.2 0.3-0.7-1.4 0.5-1.8-1.3-2.3-1.7-0.5-2.2-4.5t1.2-5.8q1.8-1.7 0.3-2.4-1.5-0.8-1.3-1.8 0.3-1-0.7-2.5t-4.3-2.3l-3.2-0.7-0.2-0.3-0.3-0.2-0.3-1-0.2-1 1 0.2 1 0.3h3l24.5-3.5q24.5-3.5 36.7-4.2 12.3-0.8 19-2.6 6.8-1.7 8.8-2zm14.2 22.6q-0.2-0.3 0-0.6 0.3-0.2 0.3 0.3t-0.3 0.3zm0 21q-0.2-0.3 0-0.6 0.3-0.2 0.3 0.3t-0.3 0.3z" fill="#262322" stroke="#262322"/>
  <path d="m930.5 469.8l2.5-0.3 4.5-0.3 4.5-0.2v0.5l0.2 0.3 0.3 0.2 0.3 0.2 0.2 0.3 0.2 0.3 0.3 0.2 0.3 0.2 0.2 0.3 0.2 0.3 0.3 0.2 1.3 2.8q1.2 2.7 0.2 3-1 0.2 0.8 3.7 1.7 3.5 2.4 4.3 0.8 0.7 4.6 1.4 3.7 0.8 3.4 2.3-0.2 1.5 0.8 1.7l1 0.3-0.2 0.3-0.3 0.2-0.7 0.8q-0.8 0.7 1.2 1.2l2 0.5-1 0.5-1 0.5-1.5 0.5-1.5 0.5-1 0.5-1 0.5 2 0.3 2 0.2v0.2q0 0.3-33 4.3l-33 4-2.5 0.3-2.5 0.2-3.5 0.2q-3.5 0.3-39.5 3.6l-36 3.2-2.5-0.2-2.5-0.3-4-0.3q-4-0.2-6.2-5.2-2.3-5-4-5-1.8 0-1.8-1t1.5-1 1.7-5.5q0.3-5.5 2-6l1.8-0.5h1l0.2 0.5q0.3 0.5 0.6 0l0.2-0.5v-1h0.2q0.3 0 0.6-0.5l0.2-0.5v-0.2q0-0.3 0.5-0.6l0.5-0.2h2q2 0 2 1t0.8 0.5q0.7-0.5 1-1.3 0.2-0.7 10.2-1.2t21-1.5 9.5-1.5 2.5-1 38-5 38-5l4-0.5 0.5-0.3 0.5-0.2 2.5-0.2zm-131.3 18q-0.2-0.3 0-0.6 0.3-0.2 0.3 0.3t-0.3 0.3z" fill="#232222" stroke="#232222"/>
  <path d="m883.5 507.2l3.5-0.2v0.5l1 0.5 1 0.5 0.2 0.3 0.3 0.2 0.3 0.2 0.2 0.3 0.2 0.3 0.3 0.2v1l-0.3 0.2-0.2 0.3 0.2 0.3 0.3 0.2v2l-0.3 0.2-0.2 0.3 7.5 0.7q7.5 0.8 7.7 1.8 0.3 1 0.6 1.5l0.2 0.5-0.5 0.2q-0.5 0.3-0.5 1.8t-1.2-0.2q-1.3-1.8-1.8-0.3t-2.2 2q-1.8 0.5-1.8-1t-1-1.5-0.8 1q0.3 1-1.4 1.5-1.8 0.5-1.8-0.5t-1-0.8q-1 0.3-1.5 1.8t-1.5 0.2q-1-1.2-2-1-1 0.3-0.8 1 0.3 0.8-1.4 0.6-1.8-0.3-3.3 0.7t-2.7-0.3q-1.3-1.2-1.8-0.2t-4.8 1.2q-4.2 0.3-4.4-0.4-0.3-0.8-1-1.3-0.8-0.5-1.6 1.5-0.7 2-1.4 0-0.8-2-1.8-2t-2.2 2.5q-1.3 2.5-1.8 1t-1.2-2q-0.8-0.5-1 1-0.3 1.5-1.6 1.7-1.2 0.3-1.7-1.4-0.5-1.8-1.5-1.8t-0.8 1.5q0.3 1.5-1.4 2-1.8 0.5-1.8-1t-1.5-1.5-1.3 1.5q0.3 1.5-3 2.3-3.2 0.7-4.4-0.6-1.3-1.2-1.8-0.2t-1.8 1.2q-1.2 0.3-1.7-1-0.5-1.2-1.5-1-1 0.3-0.8 1.6 0.3 1.2-1 1.4-1.2 0.3-2-1-0.7-1.2-2.2 0.8t-2.2 0q-0.8-2-1.8-2t-1.2 1.5q-0.3 1.5-4 2.3-3.8 0.7-4.3-1-0.5-1.8-3.5-1.6l-3 0.3-0.2 0.3-0.3 0.2-0.3 1.5-0.2 1.5-0.5 0.2q-0.5 0.3-0.5 0.6v0.2l-1-0.2q-1-0.3-1.2-1-0.3-0.8-1-1.3-0.8-0.5-1 1-0.3 1.5-2 1.3-1.8-0.3-3.8 0.7t-1 1.5-6.5 2-17.5 1.8q-10 0.2-10.2-0.8-0.3-1-0.8 0t-2.8 1.2q-2.2 0.3-4.7 0.3t-5 0.5-5.5 1.5-6 0-3.8-0.3q-0.7 0.8-2 1-1.2 0.3-1.7-1-0.5-1.2-1.5-1.2t-1.2 1q-0.3 1-1.6 1.5-1.2 0.5-1.2-0.5t-1-1-1.2 1q-0.3 1-2 1.5-1.8 0.5-1.8-1t-1-1.5-1.2 1.5q-0.3 1.5-1.6 1.7-1.2 0.3-1.7-1-0.5-1.2-1.5-1-1 0.3-0.8 1.6 0.3 1.2-1.4 1.4-1.8 0.3-2.6-1-0.7-1.2-1 0.3-0.2 1.5-1.7 1.5h-1.5l-1.5 0.2q-1.5 0.3-3 0.3t-2.3-1.3q-0.7-1.2-1 0.3-0.2 1.5-2.2 1.5t-2-1-1-1-1 1.5-2 1.5-2.2-1q-0.3-1-0.8 0t-2.2 0.8q-1.8-0.3-2.8 1-1 1.2-3 0.4-2-0.7-2.5 0.6l-0.5 1.2h-3l0.2-1.5 0.3-1.5 0.3-0.2 0.2-0.3 0.2-0.3 0.3-0.2v-1l-0.3-1-0.2-1-3 0.2q-3 0.3-29 3.3t-42 4.5-31 4l-15 2.5h-8l0.2-0.3 0.3-0.2 0.5-1.5 0.5-1.5 0.3-0.2 0.2-0.3 0.2-0.3 0.3-0.2 0.3-0.2 0.2-0.3 0.2-0.3 0.3-0.2 0.3-0.2 0.2-0.3 1-0.5 1-0.5 43-6.5q43-6.5 43-6.8v-0.2l26.5-3.2q26.5-3.3 80.5-11.3t59-8.5l5-0.5 4-0.5 4-0.5v-0.5l36-3.2q36-3.3 39.5-3.6z" fill="#950f20" stroke="#950f20"/>
  <path d="m1179.5 447v-1h0.5l2.2 2.5q2.3 2.5-1 99.5-3.2 97-7.2 98.8-4 1.7-9 2.2l-5 0.5h-3v-1l1.5-0.5 1.5-0.5-0.2-0.3-0.3-0.2v-1q0-1-0.5-12.5t1.5-21.5 2.5-16.5 3-14 6-58 3.5-61v-10.5l0.3 0.2 0.2 0.3 1.8-0.3q1.7-0.2 1.7-2.2t0-3z" fill="#212220" stroke="#212220"/>
  <path d="m330.5 70.8l0.5 0.2v0.2q0 0.3-90 4.3t-90.2 8.3q-0.3 4.2-3 9-2.8 4.7 1.7 7.4 4.5 2.8 4.5 4.3v1.5l-0.5-0.2-0.5-0.3v-0.5l-0.5-0.2-0.5-0.3v-0.5h-1v0.5h-4l-0.2-0.3q-0.3-0.2-3-1-2.8-0.7-5.8-0.7t-11 0.5-12.5-1.2q-4.5-1.8-5.7-4.3l-1.3-2.5-0.3-0.2-0.2-0.3-0.2-0.3-0.3-0.2-0.3-0.2-0.2-0.3-0.2-0.3-0.3-0.2-0.3-0.2-0.2-0.3-0.2-0.3-0.3-0.2-0.3-1-0.2-1 4-1.5q4-1.5 4.2-3l0.3-1.5 0.3-0.2 0.2-0.3 1-0.5 1-0.5 0.2-0.3 0.3-0.2v-2l-0.3-0.2-0.2-0.3h-4l-1 0.5-1 0.5-1 0.5-1 0.5-2 0.5q-2 0.5-3 0.8-1 0.2-1.5 3.2t-17 2.2l-16.5-0.7-1 0.3-1 0.2v19h-0.2q-0.3 0-0.8 4l-0.5 4-0.5 1.5-0.5 1.5-0.3 0.2-0.2 0.3-0.2 0.3-0.3 0.2-0.5-1-0.5-1-0.5 2-0.5 2-0.3-9.5-0.2-9.5-1-0.2-1-0.3 0.2-0.3 0.3-0.2 0.3-0.2 0.2-0.3 0.2-0.3 0.3-0.2 0.3-0.2 0.2-0.3h-2l-0.2 0.3-0.3 0.2-0.3 0.2-0.2 0.3-0.2 0.3-0.3 0.2-0.3 0.2-0.2 0.3-1.5 0.7q-1.5 0.8-1.7 2.3l-0.3 1.5-0.5 2-0.5 2-0.3-0.2-0.2-0.3-0.2-0.3-0.3-0.2-0.5-2-0.5-2-0.5-1-0.5-1-0.5-9.5q-0.5-9.5-1.2-20.5l-0.8-11h-2v3l-1-0.2-1-0.3-0.2-0.3-0.3-0.2-0.3-0.2-0.2-0.3-0.2-0.3-0.3-0.2-0.3 0.2-0.2 0.3-1 0.5-1 0.5-0.2 0.3-0.3 0.2-0.3 0.2-0.2 0.3-1.2 0.7q-1.3 0.8-2.3 4.8t-1.5 6-0.8 10.5l-0.2 8.5h-0.5l0.5-21q0.5-21 2.8-22.2 2.2-1.3 15.2-0.8t14.2 1.2q1.3 0.8 2 8.3 0.8 7.5 16.3 8t16-0.7q0.5-1.3 9-4.3t22-2.5 16.7 4.8q3.3 4.2 3.6 6.2 0.2 2 31.7 0.2 31.5-1.7 91-2.2t60-0.2z" fill="#292a26" stroke="#292a26"/>
  <path d="m606 704.2v-0.2l12.8 2q12.7 2 12.4 3-0.2 1 8.3 2.2 8.5 1.3 10 2.3t19 2.5 27 1 16.5-2 9.5-1.8l2.5-0.2v3l-0.5 0.2-0.5 0.3-2.5 0.5-2.5 0.5-2 0.5q-2 0.5-18.5 4t-41 7-43.5 6.8l-19 3.2-0.2-0.5-0.3-0.5-0.3-0.2-0.2-0.3 0.2-0.3 0.3-0.2 0.3-1 0.2-1-4.5-0.2q-4.5-0.3-11.5-1.3l-7-1-1-0.3-1-0.2v-2h1.5l0.3 0.2 0.2 0.3 1 0.5 1 0.5 4.5-0.5q4.5-0.5 8-5t6.7-3.8q3.3 0.8 2.6-1.7-0.8-2.5 4.2-2.3 5 0.3 5.2 0l0.3-0.2 0.3-0.2 0.2-0.3 1.5-0.3 1.5-0.2-0.2-1.5-0.3-1.5-0.3-0.2-0.2-0.3-0.2-0.3q-0.3-0.2-3-2.4l-2.8-2.3-0.2-0.3-0.3-0.2-0.3-0.2-0.2-0.3 1.5-0.5 1.5-0.5h6l-0.2-0.3-0.3-0.2-0.3-0.2-0.2-0.3-1-0.5-1-0.5v-0.3z" fill="#312a2a" stroke="#312a2a"/>
  <path d="m954 110.8v-0.3l6 0.5q6 0.5 35 6.5t32.5 5.5 7-4 9.5-5.2q6-1.8 6-0.8t-1 1-1 1 3.8 1.5q3.7 0.5 4.4-0.3 0.8-0.7 4.6-0.4 3.7 0.2 3.4 1.7-0.2 1.5 0.8 1.5t1.5-1.8q0.5-1.7 4.5-1.2t5 2.2q1 1.8 4 1.3t3 1 4.8 2q4.7 0.5 5.4 2.5 0.8 2 21.3 1.2 20.5-0.7 20.7-1l0.3-0.2 0.3-0.2 0.2-0.3 2-0.3 2-0.2h0.5v2l-0.3 0.2-0.2 0.3 0.2 0.3 0.3 0.2 0.3 3q0.2 3-1.8 3.5t-2.5 2.5l-0.5 2 3 0.5q3 0.5 3.2 4l0.3 3.5 0.3 0.2 0.2 0.3 0.2 0.3 0.3 0.2 0.5 1 0.5 1v1l-0.3 0.2-0.2 0.3-0.2 0.3-0.3 0.2h-0.5l-0.2-0.5-0.3-0.5-0.3-0.2-0.2-0.3v-0.5l-0.5-0.2-0.5-0.3v-0.5l-9 0.2q-9 0.3-25-0.2t-16.8-4.8q-0.7-4.2-4.4-4.4l-3.8-0.3-1.5 0.5-1.5 0.5-2 0.5-2 0.5 1 0.3q1 0.2 0.8 5.7-0.3 5.5-2 8.7-1.8 3.3-5.8 5.8t-13 2.5-15-2.5-7.8-4.8q-1.7-2.2-3.4-5.7-1.8-3.5-27.3-1.7-25.5 1.7-46.5 2.2l-21 0.5 0.2-0.3 0.3-0.2 0.3-0.5 0.2-0.5v-0.5l3-0.5 3-0.5 36-3.5q36-3.5 42-3.8l6-0.2 0.2-3 0.3-3 0.3-2.5 0.2-2.5-1-0.2-1-0.3-2-0.5q-2-0.5-7-1.5t-33.5-8.7l-28.5-7.8v-0.2zm94.2 7q-0.2-0.3 0-0.6 0.3-0.2 0.3 0.3t-0.3 0.3zm2 1q-0.2-0.3 0-0.6 0.3-0.2 0.3 0.3t-0.3 0.3z" fill="#25231e" stroke="#25231e"/>
  <path d="m744.5 251.2l0.5-18.2 1.5 0.2 1.5 0.3 35 11.5q35 11.5 36 12l1 0.5 1.5 0.5 1.5 0.5 1 0.5 1 0.5 2 0.3 2 0.2 0.5 0.2q0.5 0.3 2.5 0.8l2 0.5 1 0.5 1 0.5-1 0.3-1 0.2 0.2 1.5 0.3 1.5 0.3 0.5 0.2 0.5-0.5 0.2-0.5 0.3-0.2 0.3-0.3 0.2-0.3-0.2-0.2-0.3h-2l-3 0.5q-3 0.5-7.5 1.5t-26 2.5-26.5 2.5-16.5 1.3l-11.5 0.2-0.2-0.5-0.3-0.5-0.3-0.2-0.2-0.3-0.2-0.3-0.3-0.2-0.3-0.2-0.2-0.3-2-0.5-2-0.5-1-0.5-1-0.5 3.5-0.5q3.5-0.5 6-1t3-18.8z" fill="#fcfbfa" stroke="#fcfbfa"/>
  <path d="m316 260l0.5-1 0.3 0.2 0.2 0.3 0.5 0.3 0.5 0.2 0.2 9q0.3 9 0.8 15l0.5 6 0.5-1.5 0.5-1.5 0.3-0.2 0.2-0.3 0.2-0.3 0.3-0.2 0.3-0.2 0.2-0.3 1.5-2.3q1.5-2.2 6-3 4.5-0.7 9.5-1.7t13-0.5 9.8 1.2q1.7 0.8 0.4 2-1.2 1.3-0.2 1.6 1 0.2 1 1.7v1.5l1.5 0.2 1.5 0.3 1.5 0.3 1.5 0.2 0.2-1q0.3-1-0.4-2.8l-0.8-1.7-0.2-0.3-0.3-0.2-0.3-0.2-0.2-0.3h2l1 0.5 1 0.5 0.2 0.3 0.3 0.2 0.3 0.2 0.2 0.3 0.2 0.3 0.3 0.2 1.5 2q1.5 2 3.8 9.8 2.2 7.7 29.7 6.2t42.5-2.2q15-0.8 15.5 1.2t3 1.8q2.5-0.3 9-0.3h6.5l-0.2 0.3-0.3 0.2-0.3 0.2-0.2 0.3v0.5l-1 0.2-1 0.3-3.5 0.3q-3.5 0.2-3.5 1.2t-7.2 1q-7.3 0-13 1.2-5.8 1.3-26.3 2.8l-20.5 1.5 2.2 0.7q2.3 0.8 2.6 1l0.2 0.3-4 0.5q-4 0.5-5.5 1t-4 0.5-3.3 0.7q-0.7 0.8-10.4 1.8-9.8 1-10 2.5-0.3 1.5-3 5.3-2.8 3.7-8.8 6.7t-17.5 3-17.5-3l-6-3-1.5-0.5q-1.5-0.5-1.5-0.8v-0.2l0.2-0.5 0.3-0.5h0.5v-0.2q0-0.3-1.5-0.6-1.5-0.2-2-2-0.5-1.7-1.5-31.4l-1-29.8h0.5l0.5-1 0.5-1 0.5-1zm3 61q1 0 0.5 1.2-0.5 1.3-1 0-0.5-1.2 0.5-1.2z" fill="#3a312f" stroke="#3a312f"/>
  <path d="m989 576.8v0.2l-1.5 3.2q-1.5 3.3 1.3 3.6 2.7 0.2 2.7 11.7t-4.5 21.5-4.8 11l-0.2 1h-0.2q-0.3 0-0.6 1-0.2 1-3.2 2.2-3 1.3-6 1.8t-5.2-1.2q-2.3-1.8-3.3-6.8l-1-5-0.3 0.2q-0.2 0.3-8.7 8.3t-11.5 9-10.5 0-12.5-1.5-7 1.8q-2 2.2-3.5 2.4l-1.5 0.3h-2l-0.2-0.3-0.3-0.2-0.3-0.2-0.2-0.3-0.2-0.3-0.3-0.2-0.3-0.2q-0.2-0.3-1.4-5.6l-1.3-5.2-0.3-0.2-0.2-0.3h-2l-2.5 0.5-2.5 0.5-0.2 0.3-0.3 0.2h-0.5l-0.2-1.5q-0.3-1.5-0.6-4-0.2-2.5-4.7-3.3-4.5-0.7-3-1.7t0-1.5l-1.5-0.5-3-0.5-3-0.5-0.2-0.3-0.3-0.2-0.3-0.2-0.2-0.3v-0.5l1.5-0.2 1.5-0.3 12.5-1.7q12.5-1.8 12-3-0.5-1.3 26-5.8t30.5-4.8l4-0.2 0.2-1 0.3-1 0.5-1 0.5-1 0.3-0.2 0.2-0.3 0.2-0.3 0.3-0.2 0.5-1 0.5-1 0.3-0.2 0.2-0.3 0.2-0.3 0.3-0.2 0.3-1.5 0.2-1.5-1 0.2-1 0.3-4 0.5q-4 0.5-16 1.5l-12 1-2-0.5-2-0.5v-0.5h0.5l0.3-0.5 0.2-0.5 2.5-0.2 2.5-0.3 7.8-1.3q7.7-1.2 9.4-2.4 1.8-1.3 5.8-1.6 4-0.2 4.5-1.4 0.5-1.3 2-0.3t2.3-0.7q0.7-1.8 1.2-3.3l0.5-1.5 0.3-0.5 0.2-0.5v-0.5l0.5-0.3 0.5-0.2h0.5v1q0 1-0.3 1.2l-0.2 0.3 0.2 0.3 0.3 0.2 0.5 1 0.5 1 0.3 0.2 0.2 0.3 0.2 0.3 0.3 0.2 0.3-0.2 0.2-0.3 0.2-0.3 0.3-0.2 0.3-0.2 0.2-0.3 0.2-0.3 0.3-0.2 0.3-0.2 0.2-0.3 0.2-0.3 0.3-0.2 0.3 0.2 0.2 0.3 0.2 0.3 0.3 0.2 3.3-2.2q3.2-2.3 5.7-0.8t2.5 1.8z" fill="#4c2524" stroke="#4c2524"/>
  <path d="m590.5 624.2l1.5-0.2 5.8 1.5q5.7 1.5 9.7 5t7.7 10.7q3.8 7.3 4.8 7.6 1 0.2 1 3.2t11 0.8q11-2.3 32.5-5.3t25-3.3l3.5-0.2h0.5l0.3-0.2 0.2-0.3 1-0.3 1-0.2-0.2 0.5q-0.3 0.5 0.2 3t-2.8 3.5q-3.2 1-3.2 2.5t-1 1.5-1 1-2 1.2q-2 0.3-3.2 2-1.3 1.8-5.6 3l-4.2 1.3-0.2 0.3-0.3 0.2-0.3 0.2-0.2 0.3 0.2 0.3 0.3 0.2 0.3 0.2 0.2 0.3 2.2 2.7q2.3 2.8 2.6 7 0.2 4.3 2.2 6.3t10.5 3 13 0 14.5-1 12-0.3l2-0.2 3.2 0.5q3.3 0.5 4 1.7 0.8 1.3 10.3 2.8t10.7 2.2q1.3 0.8 1 1.8-0.2 1 1.6 1.5 1.7 0.5 1.4 3.5-0.2 3 0.6 3.5 0.7 0.5 0.4 2.5-0.2 2 2.8 2.8 3 0.7 5.5 1l2.5 0.2 0.2 1 0.3 1h0.5v0.5l-3 0.5-3 0.5-2 0.5q-2 0.5-21 3l-19 2.5-2.5 0.3-2.5 0.2v-3h0.5l0.3-0.2 0.2-0.3 1.5-0.5 1.5-0.5 1.5-0.5 1.5-0.5-2-0.5-2-0.5-1.5-0.5-1.5-0.5-2-0.5q-2-0.5-6.5-2.5t-13-2.7q-8.5-0.8-8.5-2.3t-5-1.5-5-2.2q0-2.3-3-3.8t-3.5-2.8q-0.5-1.2-2.5-1.7t-5.2-4.5q-3.3-4-7-5.2-3.8-1.3-8.3-4-4.5-2.8-4.7-3.8-0.3-1-3.8-3.5l-3.5-2.5-0.7 0.8q-0.8 0.7-4.6 1.4-3.7 0.8-4.7 5.8t-3.3 7.2q-2.2 2.3-3.2 2.8l-1 0.5h-1q-1 0-5-1.5t-6-3.8q-2-2.2-4.5-4-2.5-1.7-6-2-3.5-0.2-3.7-5.2-0.3-5-3.8-13t-6-11-7.8-5.5l-5.2-2.5v-0.5l-1.5-0.3-1.5-0.2 0.2-1 0.3-1 0.3-0.2 0.2-0.3 0.2-0.3 0.3-0.2 0.3-0.2 0.2-0.3 3-0.5q3-0.5 8-1l5-0.5 1-0.5q1-0.5-1-1t-1-1 0-1 0.5-0.8zm94.5 71.8q0-1 1.5-0.2 1.5 0.7 0 1-1.5 0.2-1.5-0.8z" fill="#532422" stroke="#532422"/>
  <path d="m992 314l-1-0.5 4.5 1q4.5 1 20.5 6t19 4.3q3-0.8 5-3 2-2.3 9.5-2.3t6.5 1 7 1.7q8 0.8 9-0.4 1-1.3 2-1 1 0.2 2.5 2.4 1.5 2.3 4 2.8t3.5 2 2.5 0.8q1.5-0.8 1.5 0.7t1 1.5 1-1 2-0.5 2 2 6 2.3q6 0.7 15 1.2l9 0.5 2 0.3 2 0.2v0.5l0.2 0.3 0.3 0.2 0.3 0.2 0.2 0.3-2.5 0.5-2.5 0.5 0.2 0.3 0.3 0.2 0.3 0.2 0.2 0.3 0.2 0.3 0.3 0.2v4l-0.3 0.2-0.2 0.3-1 0.5-1 0.5 0.2 0.3 0.3 0.2 0.3 0.2 0.2 0.3 0.2 0.3 0.3 0.2 0.3 0.2 0.2 0.3 2-0.3q2-0.2 2.8 1.8 0.7 2 0.7 0.5t0-2.5v-1l0.3 0.2 0.2 0.3 0.2 0.3 0.3 0.2 0.3 0.2 0.2 0.3 1 0.5 1 0.5 0.2 0.3 0.3 0.2v1l-0.5 1-0.5 1-0.3 0.2-0.2 0.3 0.2 0.3 0.3 0.2 0.3 0.2 0.2 0.3-1.5 0.3-1.5 0.2v2l-0.5 0.2-0.5 0.3h-6q-6 0-20-1.3-14-1.2-14.2-5.2-0.3-4-4-4.2l-3.8-0.3-1 0.3-1 0.2-0.2 1-0.3 1-0.5 3q-0.5 3-2 7.5t-4.2 7.3q-2.8 2.7-15.8 2.7t-17.5-2-7-6.5-51 0.8l-48.5 5.2 0.2 1 0.3 1 0.3 0.2 0.2 0.3 1.5 0.3q1.5 0.2 1.5 1.2v1l-1 0.2-1 0.3-0.2 0.3-0.3 0.2-0.3 0.2-0.2 0.3v0.5l-0.5-0.2-0.5-0.3-1-0.5q-1-0.5-3-1t-7-0.8l-5-0.2v-0.2q0-0.3-5.5-0.8l-5.5-0.5v-1l3-0.5 3-0.5 5.5-0.7q5.5-0.8 5-2-0.5-1.3 19.5-4.3t52.5-6.7q32.5-3.8 34.5-12.6 2-8.7-14-15.2t-17.5-7l-1.5-0.5-2.5-0.5q-2.5-0.5-3-0.8l-0.5-0.2 1.5-0.8q1.5-0.7 0.5-1.2z" fill="#21221e" stroke="#21221e"/>
  <path d="m797.5 486.2l0.5-0.2h0.2q0.3 0 0.8 0.5t-1.2 1.5l-1.8 1h-1l-0.2-0.5q-0.3-0.5-0.6 0l-0.2 0.5-1.8 0.5q-1.7 0.5-2.2 6.5t2.2 11.5q2.8 5.5 6.8 5.7l4 0.3 2.5 0.3 2.5 0.2v0.5l-4 0.5-4 0.5-5 0.5q-5 0.5-59 8.5t-80.5 11.3l-26.5 3.2h-0.5v-1q0-1 1-2t-0.3-1.8q-1.2-0.7-0.7-2 0.5-1.2-0.5-1.2t-1-5-1-5.2q-1-0.3-3.5-3.8l-2.5-3.5-2-0.3-2-0.2v-2l1-0.2 1-0.3 13.5-1.5q13.5-1.5 16.5-1.5t1.5-0.5 49-7.5 66.5-8 21-2.5 8-1.8l3-0.2v-0.2q0-0.3 0.5-0.6z" fill="#272322" stroke="#272322"/>
  <path d="m575.5 567.2l3.5-0.2v0.5l0.2 0.3 0.3 0.2 0.3 0.2 0.2 0.3 0.2 0.3 0.3 0.2 0.3 0.2 0.2 0.3-1.5 0.5-1.5 0.5 4 1q4 1 5.5 1.7 1.5 0.8 1.5 1.8t2.5 2.8q2.5 1.7 4.5 2 2 0.2 2.2 1.2l0.3 1 0.3 0.2 0.2 0.3 3.5 0.5 3.5 0.5-1 0.5-1 0.5-2.5 0.5-2.5 0.5-7.5 0.7q-7.5 0.8-7 3.3t-3.3 3q-3.7 0.5-4 3-0.2 2.5 0.8 2.5t-1.8 4.5q-2.7 4.5-3 6.5l-0.2 2h-0.5l-6.5 16q-6.5 16-7.8 20.5-1.2 4.5-2.7 4.7-1.5 0.3-4 0.6l-2.5 0.2h-0.2q-0.3 0-0.6 0.5l-0.2 0.5-3.5 0.2q-3.5 0.3-24.5 3.3l-21 3-1 0.3-1 0.2h-0.5v-4l0.5-1 0.5-1 0.5-1q0.5-1 1.5-3l1-2 0.3-0.2 0.2-0.3 0.2-0.3 0.3-0.2 0.3-1.5 0.2-1.5h0.2q0.3 0 1.8-4.5t4-14.5 6.5-19 7.5-19.5 7.2-11.7l3.8-1.3 2-0.5 2-0.5v-0.5l6.5-0.8q6.5-0.7 17.5-2.7t14.5-2.3z" fill="#720410" stroke="#720410"/>
  <path d="m1058.8 488.5l0.2-0.5 1.8 0.5q1.7 0.5 3.4 4.7 1.8 4.3 2.6 5 0.7 0.8 0.7 2.8v2l-0.3 0.2-0.2 0.3 0.2 0.3 0.3 0.2 0.3 0.2 0.2 0.3 0.2 0.3 0.3 0.2 0.7-1.2q0.8-1.3 1.8-1.6l1-0.2-0.2 1q-0.3 1-2.6 3.8-2.2 2.7-5 7.4-2.7 4.8-2 13.8 0.8 9-0.2 9t-5.2 7q-4.3 7-9.6 10.8-5.2 3.7-7.2 7-2 3.2-3 3-1-0.3-1.5-1.6-0.5-1.2-1.5-1.2t-1.5 2-1.5 2-0.8-1q0.3-1-1.4-1.8l-1.8-0.7-0.2-0.3-0.3-0.2-0.3 0.2-0.2 0.3-0.2 0.3-0.3 0.2-0.3 0.2-0.2 0.3-0.2 0.3-0.3 0.2-0.3 0.2-0.2 0.3h-2l0.2-0.3 0.3-0.2 0.3-0.2 0.2-0.3 0.2-0.3 0.3-0.2 0.3-0.2 0.2-0.3 0.2-0.3 0.3-0.2v-1l-0.3-0.2q-0.2-0.3 1-2.6l1.3-2.2 0.3-1 0.2-1h2l-0.2-1-0.3-1-0.3 0.2-0.2 0.3-1 0.3-1 0.2-0.2 1-0.3 1-0.3 0.2-0.2 0.3-1 0.5-1 0.5-0.2 0.3-0.3 0.2-0.3 0.2q-0.2 0.3-1.2 1.3t-1.8 0.3q-0.7-0.8-4.4 2-3.8 2.7-10.8 2.7t-11 6.7l-4 6.8v-0.2q0-0.3-2.5-1.8t-5.7 0.8l-3.3 2.2-0.3-0.2-0.2-0.3-0.2-0.3-0.3-0.2-0.3 0.2-0.2 0.3-0.2 0.3-0.3 0.2-0.3 0.2-0.2 0.3-0.2 0.3-0.3 0.2-0.3 0.2-0.2 0.3-0.2 0.3-0.3 0.2-0.3-0.2-0.2-0.3-0.2-0.3-0.3-0.2-0.5-1-0.5-1-0.3-0.2-0.2-0.3-0.2-0.3-0.3-0.2-0.3-0.2-0.2-0.3v-1l0.5-0.3 0.5-0.2v-0.5l0.2-0.3 0.3-0.2 0.3-0.2 0.2-0.3 0.2-0.3 0.3-0.2 3.3-4.8q3.2-4.7 8-14 4.7-9.2 5-9.7l0.2-0.5h2v2l3.5-1q3.5-1 3 0.8-0.5 1.7 4 3.2t7.5 3 7.2 0.8q4.3-0.8 6.3-3.3t3.5-7 1.2-10.7q-0.2-6.3 2-7.6 2.3-1.2 6.8-4.2t6.2-5.8q1.8-2.7 4.3-4 2.5-1.2 4.5-4 2-2.7 3-3 1-0.2 1.2-3.2 0.3-3 1.8-6.5t1.8-4z" fill="#231f21" stroke="#231f21"/>
  <path d="m225.5 161.2l7.5-0.2-0.2 0.5-0.3 0.5-0.3 0.2-0.2 0.3-0.2 0.3-0.3 0.2-0.3 1-0.2 1h2v0.5l-7 0.5q-7 0.5-40.5 2.8-33.5 2.2-34.5 8.7t-2 6.7q-1 0.3-2.5 2.8t-4 1l-2.5-1.5-1-0.5-1-0.5h-2l0.2 0.3 0.3 0.2 0.3 1.5 0.2 1.5h-1q-1 0-1.2-1-0.3-1-6-4.8-5.8-3.7-8.8-7-3-3.2-2-3.2t0.8-1.5l-0.3-1.5-0.3-0.2-0.2-0.3h-2l-1.5 0.5q-1.5 0.5-7 2t-6 4.2q-0.5 2.8-15 2.6-14.5-0.3-15-1.6-0.5-1.2-3-1l-2.5 0.3-0.2 0.3-0.3 0.2v9q0 9 0.3 18l0.2 9-0.5-0.2-0.5-0.3-0.2-0.3-0.3-0.2-0.3-0.2-0.2-0.3-0.2-0.3-0.3-0.2-0.3 0.2-0.2 0.3-1 0.3-1 0.2v2h-2l-0.2-5q-0.3-5-1.3-17.5t-1.7-11.7q-0.8 0.7-1.6-5.6-0.7-6.2 2.6-6.2 3.2 0 4-2.5 0.7-2.5 1.2-3.5t-0.2-2.2l-0.8-1.3 1-0.5 1-0.5 1-0.3 1-0.2 5 1.2q5 1.3 16.5 0.8t18.3-3.2q6.7-2.8 12.4-3.6 5.8-0.7 15.3 0.8t12.7 5.2q3.3 3.8 4.6 5.6 1.2 1.7 34.7-0.3t41-2.3z" fill="#2c2b26" stroke="#2c2b26"/>
  <path d="m372.5 153.2l13.5-0.2-0.2 0.5-0.3 0.5-0.3 0.2-0.2 0.3 3.5 0.5 3.5 0.5-0.2 0.3-0.3 0.2-0.3 0.2-0.2 0.3v0.5l-4.5 0.2q-4.5 0.3-15 1.3l-10.5 1 1 0.5 1 0.5 1.5 0.3 1.5 0.2-0.2 1-0.3 1v4l-0.3 0.2-0.2 0.3 1 0.5q1 0.5 2 1l1 0.5 0.2 0.3 0.3 0.2 0.3 0.2 0.2 0.3 0.2 0.3 0.3 0.2 0.3 0.2 0.2 0.3 1 0.3q1 0.2 1-2.6v-2.7l0.2-0.3 0.3-0.2 0.3 0.2 0.2 0.3 0.2 0.3 0.3 0.2 0.3 0.2 0.2 0.3 0.2 0.3 0.3 0.2 0.3 0.2 0.2 0.3 0.2 0.3 0.3 0.2 0.3 0.2 0.2 0.3 0.2 0.3 0.3 0.2 2 4.5q2 4.5 2.3 7.5 0.2 3 37.2 1.8 37-1.3 44.5-1.8t14.3-0.2q6.7 0.2 7.2 1.2t0.8 1h0.2v0.2q0 0.3-2.5 0.8t-53 4.2q-50.5 3.8-51.3 5.3-0.7 1.5-2.7 7.5t-4.5 9-8.2 4.8q-5.8 1.7-13.8 2.7t-13.5-0.5-10.5-4.5l-5-3-0.2-0.3-0.3-0.2-0.5-1-0.5-1-0.5 4q-0.5 4-0.8 18.5l-0.2 14.5h11l-0.2 0.5-0.3 0.5-0.3 1-0.2 1 1 0.2 1 0.3v0.5l-2.5 0.2-2.5 0.3-3.2 0.7q-3.3 0.8-3.6 5.3l-0.2 4.5-0.5-0.2-0.5-0.3-0.2-0.3-0.3-0.2-0.5 1-0.5 1-0.5 1-0.5 1h-0.5l-0.2-11q-0.3-11-0.6-44-0.2-33 2.3-32.8 2.5 0.3 5.3-3.4l2.7-3.8 0.5-1 0.5-1 0.3-0.2 0.2-0.3 0.2-0.3 0.3-0.2 0.3-0.2 0.2-0.3 0.2-0.3 0.3-0.2 0.3-1 0.2-1-13-0.2q-13-0.3-22-0.3h-9l-1 0.3-1 0.2-0.2-0.5-0.3-0.5-0.3-0.2-0.2-0.3-0.2-0.3-0.3-0.2-0.3-0.2-0.2-0.3 3.5-0.5 3.5-0.5 36.5-2.5q36.5-2.5 50-2.8z" fill="#3d3532" stroke="#3d3532"/>
  <path d="m912.8 588l0.2 1 8 0.2q8 0.3 9 0l1-0.2v1q0 1 1.5 1.2l1.5 0.3 12-1q12-1 16-1.5l4-0.5 1-0.3 1-0.2-0.2 1.5-0.3 1.5-0.3 0.2-0.2 0.3-0.2 0.3-0.3 0.2-0.5 1-0.5 1-0.3 0.2-0.2 0.3-0.2 0.3-0.3 0.2-0.5 1-0.5 1-0.3 1-0.2 1-4 0.2q-4 0.3-30.5 4.8t-26 5.8q0.5 1.2-12 3l-12.5 1.7-1.5 0.3-1.5 0.2-1 0.2q-1 0.3-5 0.8t-34.5 5.5-56 9-47.5 7.3l-22 3.2-1 0.2-1 0.3-3 0.5q-3 0.5-5.5 0.8l-2.5 0.2-1 0.2-1 0.3-0.2 0.3-0.3 0.2h-0.5v-0.5l-1.5-0.3-1.5-0.2v-2l2.5-0.2 2.5-0.3-2-0.5q-2-0.5-4.5-3.5l-2.5-3 0.2-0.3 0.3-0.2 0.3-0.2 0.2-0.3-1.5-0.5-1.5-0.5-1-0.5-1-0.5 8.5-1q8.5-1 10-1.5l1.5-0.5 2.5-0.3 2.5-0.2v-3l-1.5-0.2-1.5-0.3v-0.5l4.2-1q4.3-1 4.6-2 0.2-1 1.4-1.5 1.3-0.5 1.6-1.5 0.2-1 2-1.5 1.7-0.5 2-1.5 0.2-1 2-1.5 1.7-0.5 2-1.5 0.2-1 2.7-0.2 2.5 0.7 3.3 1 0.7 0.2 1-0.8 0.2-1 2.2-1.2 2-0.3 3.5 0.2t8.5-1 11-1.5 7.5-1.5 4.5-1.2q1 0.2 0.5 1.4-0.5 1.3 1.5 1.8t4.8-0.2q2.7-0.8 3 0.2 0.2 1 1.7 1t1.5-1.5 1-1.5 1.5 1.2q0.5 1.3 4.5 0.3t6.2-0.7q2.3 0.2 2.8-1.3t1.8-0.3q1.2 1.3 2.7 0.8t3.3-0.8q1.7-0.2 2-1.7 0.2-1.5 1.2-1.5t1 1.5 1.5 1.5 1.7-2q0.3-2 1-0.2 0.8 1.7 2 1.4 1.3-0.2 1.8-2.2t1.2-0.2q0.8 1.7 2 1.4 1.3-0.2 1.8-2.2t1.2-0.8q0.8 1.3 2.3 1.6 1.5 0.2 1.7-1.3 0.3-1.5 1-0.3 0.8 1.3 4.6 1 3.7-0.2 4-1.7 0.2-1.5 1.2-1.5t1 1 1.5 1h1.5l0.2-1.5 0.3-1.5 0.3-0.2 0.2-0.3 1-0.5 1-0.5v-0.5l1 1.5q1 1.5 4.5 1t3.5 0.5 1.8 0.5q1.7-0.5 2.7-2t1.3 0q0.2 1.5 1.7 1.5t2-1.2q0.5-1.3 3-2 2.5-0.8 2.5 0.7t3 1.3q3-0.3 4.5-0.8t2.5-0.2q1 0.2 2-1 1-1.3 1.5 0.4 0.5 1.8 6 0.3t6-2.3q0.5-0.7 5.3-1 4.7-0.2 5.2-2.2t2.8-1.8q2.2 0.3 2.7 0l0.5-0.2h0.5l0.5-0.5q0.5-0.5 0.8 0.5zm-13.6 5.8q-0.2-0.3 0-0.6 0.3-0.2 0.3 0.3t-0.3 0.3zm-174 19q-0.2-0.3 0-0.6 0.3-0.2 0.3 0.3t-0.3 0.3z" fill="#851721" stroke="#851721"/>
  <path d="m818.5 160.8l0.5 0.2v0.2q0 0.3-1.5 0.8l-1.5 0.5-3 0.3-3 0.2-32.5 2.5q-32.5 2.5-32 32.7 0.5 30.3 41.5 45.3t41.2 15.3q0.3 0.2 0.6 0.7l0.2 0.5-2-0.2-2-0.3-1-0.5-1-0.5-1.5-0.5-1.5-0.5-1-0.5q-1-0.5-36-12l-35-11.5-1.5-0.3-1.5-0.2-0.5 18.2q-0.5 18.3-3 18.8t-6 1l-3.5 0.5 1 0.5 1 0.5 2 0.5 2 0.5 0.2 0.3 0.3 0.2 0.3 0.2 0.2 0.3 0.2 0.3 0.3 0.2 0.3 0.5 0.2 0.5v0.5l-1 0.5-1 0.5-0.2 0.3-0.3 0.2-0.3 0.2-0.2 0.3-2 0.3-2 0.2v2h-3l-3.5 0.2q-3.5 0.3-10 0.6l-6.5 0.2h-2l0.2-2 0.3-2 0.3-0.2 0.2-0.3 0.2-0.3 0.3-0.2 0.3-0.2q0.2-0.3 2.7-1.8t2-18.2l-0.5-16.8-2.5 0.2q-2.5 0.3-6.5 0.3t-8.8-2.7q-4.7-2.8-7.2-8.3t-10.8-5.7q-8.2-0.3-175.2 12.2l-167 12.5-3 0.3-3 0.2v-0.5l-1-0.3-1-0.2 0.2-1 0.3-1 0.3-0.5 0.2-0.5h0.5l0.3-0.2 0.2-0.3 177.5-13.5q177.5-13.5 180.3-19.2 2.7-5.8 5-7.6 2.2-1.7 10.2-3.2t9.5-1.2q1.5 0.2 1.7-1.3 0.3-1.5 0.6-15l0.2-13.5-4 0.2q-4 0.3-20 0.8l-16 0.5-1-0.3-1-0.2v-0.5l2.5-0.5 2.5-0.5 0.2-0.3 0.3-0.2 0.3-0.2 0.2-0.3 14-2q14-2 24-3t10.5-1 2.5-0.3l2-0.2 7-0.8q7-0.7 8.5-1.2l1.5-0.5v-0.5l29.5-0.5q29.5-0.5 29.5 0.5t4.8 1q4.7 0 5 0.2 0.2 0.3 0.7 0.6z" fill="#2d261f" stroke="#2d261f"/>
  <path d="m1091 225.8l2-0.3 1-0.3 1-0.2 0.2 1.5 0.3 1.5 0.3 0.2 0.2 0.3 1 0.5 1 0.5v0.5l-0.5 0.2-0.5 0.3h-3l-0.2-0.3q-0.3-0.2-1.6-0.4-1.2-0.3-1.7 1.4-0.5 1.8-1.5 2l-1 0.3-0.2 0.3-0.3 0.2-0.5 1-0.5 1-0.3 0.2-0.2 0.3h-2l-0.2-0.3-0.3-0.2v2l0.3 0.2 0.2 0.3 0.2 0.3 0.3 0.2 0.3 1 0.2 1-1 0.2q-1 0.3-2 0.6-1 0.2-1.2 4.2-0.3 4-2.3 9t-6.7 7.8q-4.8 2.7-9.8 3.2t-12.5-1.5-11.3-4.7q-3.7-2.8-5-6.3-1.2-3.5-57.7 1.7l-56.5 5.3-0.2-0.3-0.3-0.2-0.3-0.2-0.2-0.3v-0.5h0.5l0.3-0.2 0.2-0.3 2-0.5 2-0.5-0.2-0.3-0.3-0.2-0.3-0.2-0.2-0.3 0.2-0.3 0.3-0.2 0.3-0.2 0.2-0.3 3-0.5q3-0.5 47.5-6t49.5-6l5-0.5 0.2-0.3 0.3-0.2 0.5-1.5 0.5-1.5 0.5-2 0.5-2 0.5-2 0.5-2v-1l-0.3-0.2-0.2-0.3-2-0.5q-2-0.5-30.5-9.5l-28.5-9-2-0.5-2-0.5-2-0.5q-2-0.5-2-0.8v-0.2l6 0.2q6 0.3 21.5 4.3t30.5 7.5 17.5 0.5 7-4.5 18.5-0.2q14 1.2 16 3.4 2 2.3 4.2 3 2.3 0.8 2.6 2 0.2 1.3 1.4 0.6 1.3-0.8 1.6 0.2 0.2 1 2.2 0.8z" fill="#342c25" stroke="#342c25"/>
  <path d="m350.5 395.5h6.5l3 0.5 3 0.5 0.2 0.3 0.3 0.2 0.3 0.2 0.2 0.3-0.2 0.3-0.3 0.2-0.3 0.2-0.2 0.3-0.2 0.3-0.3 0.2v3l0.3 0.2 0.2 0.3-5 0.5-5 0.5 4 0.5 4 0.5h2.5q2.5 0 2.3-0.3-0.3-0.2 1.4-1 1.8-0.7 0.8-3l-1-2.2 1 0.2 1 0.3 0.2 0.3 0.3 0.2 0.3 0.2 0.2 0.3 0.2 0.3 0.3 0.2 0.3 0.2 0.2 0.3 1 0.3 1 0.2 2.8 5.5q2.7 5.5 3.4 9.7 0.8 4.3 28.8 2.8t30-2 10.5-0.8l8.5-0.2 0.2 1 0.3 1 0.3 1 0.2 1-3.5 0.2-3.5 0.3-2 0.5q-2 0.5-36.5 4.5t-39 13.7q-4.5 9.8-6.3 10.8-1.7 1-10.4 3.2-8.8 2.3-15.8 1.3t-11-3-6.5-2.5l-2.5-0.5-1 0.3-1 0.2-0.2 1.5-0.3 1.5h-0.5l-0.2-4q-0.3-4 0.4-4.5 0.8-0.5 1.6-6.5 0.7-6 0-6.5-0.8-0.5-0.8-2t3-2.5 3.5-3.5-1.7-3q-2.3-0.5-1.8-2t4.2-3.7l3.8-2.3-0.2-0.3-0.3-0.2-0.3-0.2-0.2-0.3-0.2-0.3-0.3-0.2-0.3 0.2q-0.2 0.3-1.7-0.7t-1.5-2.7q0-1.8-1-1.8h-1l0.2-0.5 0.3-0.5 0.5-1q0.5-1 1-1.5l0.5-0.5 0.3-1 0.2-1 2-1.2q2-1.3 9-1.8t13.5-0.5z" fill="#373737" stroke="#373737"/>
  <path d="m1059.2 486l-0.2 2-0.2 0.5q-0.3 0.5-1.8 4t-1.8 6.5q-0.2 3-1.2 3.2-1 0.3-3 3-2 2.8-4.5 4-2.5 1.3-4.3 4-1.7 2.8-6.2 5.8t-6.8 4.2q-2.2 1.3-2 7.6 0.3 6.2-1.2 10.7t-3.5 7-6.3 3.3q-4.2 0.7-7.2-0.8t-7.5-3-4-3.2q0.5-1.8-3-0.8l-3.5 1v-2h-2v-0.5l0.2-0.3 0.3-0.2 0.3-0.2 0.2-0.3 0.2-0.3 0.3-0.2 0.3-1q0.2-1 1.7-1t1.3-1.5q-0.3-1.5 0-2l0.2-0.5 0.2-1 0.3-1 0.3-0.2 0.2-0.3 0.2-0.3 0.3-0.2 0.5-1q0.5-1 0.8-2 0.2-1 1.2-1.2 1-0.3 1.8-2 0.7-1.8 4.2-5.3t1.5-7.5-2.7-8.2l-0.8-4.3-0.2-0.3-0.3-0.2-0.3-1-0.2-1 1 0.2 1 0.3 1 0.5q1 0.5 1.8 0.8 0.7 0.2 1-0.8 0.2-1 3.2-1.2 3-0.3 6.5-4.8t5.7-3.2q2.3 1.2 2.8 1.7t1.8-2.3q1.2-2.7 3.7-3.7t16-2.3q13.5-1.2 13.3-0.2-0.3 1-0.6 3z" fill="#2e1514" stroke="#2e1514"/>
  <path d="m704 642l3-0.5 1-0.3 1-0.2v1q0 1-2.5 1.8l-2.5 0.7 1.5 0.5 1.5 0.5-0.2 0.3-0.3 0.2-0.3 0.2-0.2 0.3-0.2 0.3-0.3 0.2-0.3 0.2-0.2 0.3-1 0.5-1 0.5-1 0.5-1 0.5 6 1.5q6 1.5 6.5 3.8 0.5 2.2 5.3 5.7 4.7 3.5 6 5.3 1.2 1.7 3.7 1.4 2.5-0.2 4.3 2.8 1.7 3 2.2 4l0.5 1 0.3 0.2 0.2 0.3 1 0.3 1 0.2-0.2 1.5-0.3 1.5-0.3 0.2-0.2 0.3-0.2 0.3-0.3 0.2-0.3 0.2-0.2 0.3-2 0.5-2 0.5v0.5l-2 0.2q-2 0.3-12 0.3t-14.5 1-13 0-10.5-3-2.2-6.3q-0.3-4.2-2.6-7l-2.2-2.7-0.2-0.3-0.3-0.2-0.3-0.2-0.2-0.3 0.2-0.3 0.3-0.2 0.3-0.2 0.2-0.3 4.2-1.3q4.3-1.2 5.6-3 1.2-1.7 3.2-2 2-0.2 2-1.2t1-1 1-1.5 3.2-2.5q3.3-1 2.8-3.5t-0.2-3l0.2-0.5 2.5-0.2q2.5-0.3 5.5-0.8z" fill="#921b1f" stroke="#921b1f"/>
  <path d="m566 627l6.5-16h0.5l0.2 0.5q0.3 0.5-0.2 2t-1 3l-0.5 1.5-0.3 0.2-0.2 0.3-0.2 0.3-0.3 0.2-0.3 2.5-0.2 2.5 1.5-0.2 1.5-0.3 9.2-0.3q9.3-0.2 9.6 0.3l0.2 0.5-1.5 0.2q-1.5 0.3-0.5 0.8t0 1 1 1 1 1l-1 0.5-5 0.5q-5 0.5-8 1l-3 0.5-0.2 0.3-0.3 0.2-0.3 0.2-0.2 0.3-0.2 0.3-0.3 0.2-0.3 1-0.2 1 1.5 0.2 1.5 0.3v0.5h-1.5q-1.5 0-1.5 3.2 0 3.3 1.5 3.8l1.5 0.5 5.5 3.5q5.5 3.5 6.5 3.8l1 0.2v2h-2q-2 0-1.2 1.5 0.7 1.5-0.6 2l-1.2 0.5 2 2.8q2 2.7 4.8 4.4 2.7 1.8 2.7 3.8t1.5 8.5 1 12.5-2 9-1.8 3.2l-0.2 0.3-1 0.5-1 0.5-0.2 0.3-0.3 0.2-0.3 0.2-0.2 0.3 6.5 0.5q6.5 0.5 8.5 0.8l2 0.2v0.5l1 0.5 1 0.5 0.2 0.3 0.3 0.2 0.3 0.2 0.2 0.3h-3l-0.2-0.3q-0.3-0.2-0.6 0.8-0.2 1-1.2 0.8l-1-0.3h-3l0.2 0.3 0.3 0.2 0.3 0.2 0.2 0.3 2.8 2.3q2.7 2.2 3 2.4l0.2 0.3 0.2 0.3 0.3 0.2 0.3 1.5 0.2 1.5-1.5 0.2-1.5 0.3-0.2 0.3-0.3 0.2-0.3 0.2q-0.2 0.3-5.2 0-5-0.2-4.2 2.3 0.7 2.5-2.6 1.7-3.2-0.7-6.7 3.8t-8 5l-4.5 0.5-1.5-0.3-1.5-0.2v-1l-0.2-3.5q-0.3-3.5-1.8-17t-2.2-14.3q-0.8-0.7-4.3-4.4-3.5-3.8-4.5-3.8t-0.8-3q0.3-3-0.7-6t1.3-2.2q2.2 0.7 1.7-6-0.5-6.8-2-6.8t-1.5-1-3.5-1.8l-3.5-0.7 0.2-0.3 0.3-0.2 0.3-0.2 0.2-0.3-0.2-0.3-0.3-0.2-0.3-2-0.2-2 0.5-0.2 0.5-0.3v-0.5l2.5-0.2q2.5-0.3 4-0.6 1.5-0.2 2.7-4.7 1.3-4.5 7.8-20.5z" fill="#352d30" stroke="#352d30"/>
  <path d="m962.2 621.2l0.3-0.2 1 5q1 5 3.3 6.8 2.2 1.7 5.2 1.2t6-1.8q3-1.2 3.2-2.2 0.3-1 0.6-1h0.2l1.5 0.8q1.5 0.7 3 1.2l1.5 0.5-1 0.5q-1 0.5-1.2 0.8-0.3 0.2 0.4 1 0.8 0.7-1.7 1.7t-10.5 9-13 11.5-6 6.2q-1 2.8-2 3-1 0.3-1.5-0.4-0.5-0.8-5.5 0.2t-5 2-2.2 3l-2.3 2-0.5 1-0.5 1-0.3 0.2-0.2 0.3-1 0.5-1 0.5-0.2 0.3-0.3 0.2-0.3 0.2-0.2 0.3-0.2 0.3-0.3 0.2-0.3 0.2-0.2 0.3-0.2 0.3-0.3 0.2-0.3 0.2-0.2 0.3 4 0.3 4 0.2v0.5l-3 0.5-3 0.5-4.5 0.5q-4.5 0.5-14 3t-49.5 8.8l-40 6.2-0.2-0.5-0.3-0.5-0.3-0.2-0.2-0.3-0.2-0.3-0.3-0.2-0.3-0.2-0.2-0.3h-10l1-0.5 1-0.5 1-0.5 1-0.5 0.2-0.3 0.3-0.2 0.5-1 0.5-1 0.3-0.2 0.2-0.3 0.2-0.3 0.3-0.2 0.3-0.2 0.2-0.3 4-1.7q4-1.8 5-3.6 1-1.7 4-1.2t6 0.5 4.5 0h1.5l0.2 0.3 0.3 0.2 0.5-1 0.5-1 0.3-0.2 0.2-0.3-2-1q-2-1-1-1.3 1-0.2 1-1.2t-1-1-1-1 7.5-7.2q7.5-6.3 9.5-6.6 2-0.2 3.8-3.7 1.7-3.5 5-8.3 3.2-4.7 7.7-6.2t10.3-7.8q5.7-6.2 6-6.7l0.2-0.5h0.5l0.3-0.2 0.2-0.3 2.5-0.5 2.5-0.5h2l0.2 0.3 0.3 0.2 1.3 5.2q1.2 5.3 1.4 5.6l0.3 0.2 0.3 0.2 0.2 0.3 0.2 0.3 0.3 0.2 0.3 0.2 0.2 0.3h2l1.5-0.3q1.5-0.2 3.5-3 2-2.7 3-3 1-0.2 1 0.8t4 1.2q4 0.3 11.5 1.3t10.5 0 11.5-9 8.7-8.3z" fill="#6d675f" stroke="#6d675f"/>
 </g>
</svg>
